<svg xmlns="http://www.w3.org/2000/svg" viewBox="0 0 329.27 312.68"><title>Ресурс 1</title><g id="Слой_2" data-name="Слой 2"><g id="Слой_1-2" data-name="Слой 1"><path d="M58.37,108.21l5.48-6.57a1.16,1.16,0,0,0-1.78-1.49l-5.49,6.56a1.17,1.17,0,0,0,1.79,1.5Z" fill="#5a4f98"/><path d="M75.61,91.21c1.34-1.59,2.66-3.18,4-4.77a1.17,1.17,0,0,0-1.79-1.5l-4,4.77a1.16,1.16,0,0,0,1.78,1.5Z" fill="#5a4f98"/><path d="M65,114.78l3.49-4.17a1.17,1.17,0,0,0-1.79-1.5c-1.16,1.4-2.33,2.79-3.49,4.18A1.17,1.17,0,0,0,65,114.78Z" fill="#5a4f98"/><path d="M100.69,93.93l3-3.57a1.17,1.17,0,0,0-1.79-1.5q-1.5,1.78-3,3.58a1.16,1.16,0,0,0,1.78,1.49Z" fill="#5a4f98"/><path d="M75,127.14,78.45,123a1.17,1.17,0,0,0-1.79-1.5l-3.48,4.18A1.17,1.17,0,0,0,75,127.14Z" fill="#5a4f98"/><path d="M85.16,99.19l-4,4.77A1.17,1.17,0,0,0,83,105.45l4-4.77a1.17,1.17,0,0,0-1.79-1.49Z" fill="#5a4f98"/><path d="M49.12,134.42a1.17,1.17,0,0,0,1.5-1.79,1.17,1.17,0,0,0-1.5,1.79Z" fill="#5a4f98"/><path d="M67.88,140.47l-6,7.16a1.16,1.16,0,0,0,1.78,1.49l6-7.15a1.17,1.17,0,0,0-1.79-1.5Z" fill="#5a4f98"/><path d="M41.39,146.7l-4,4.77a1.17,1.17,0,0,0,1.79,1.5l4-4.77a1.17,1.17,0,0,0-1.79-1.5Z" fill="#5a4f98"/><path d="M60.63,127.32c-.5.59-1,1.19-1.49,1.79a1.16,1.16,0,0,0,1.78,1.49l1.5-1.78a1.17,1.17,0,0,0-1.79-1.5Z" fill="#5a4f98"/><path d="M30.17,132.25l-2.5,3a1.17,1.17,0,0,0,1.79,1.49c.83-1,1.66-2,2.5-3a1.17,1.17,0,0,0-1.79-1.5Z" fill="#5a4f98"/><path d="M48.84,156l-4,4.77a1.16,1.16,0,0,0,1.78,1.5l4-4.77a1.17,1.17,0,0,0-1.79-1.5Z" fill="#5a4f98"/><path d="M47.8,119.64l-2,2.38a1.17,1.17,0,0,0,1.79,1.5l2-2.39a1.17,1.17,0,0,0-1.79-1.49Z" fill="#5a4f98"/><path d="M52.65,142.93l-2.5,3a1.17,1.17,0,0,0,1.79,1.49l2.5-3a1.17,1.17,0,0,0-1.79-1.5Z" fill="#5a4f98"/><path d="M102.27,74.48a1.17,1.17,0,0,0,1.49-1.79,1.17,1.17,0,0,0-1.49,1.79Z" fill="#5a4f98"/><path d="M62.79,77.45q-3,3.58-6,7.16a1.17,1.17,0,0,0,1.79,1.5l6-7.16a1.17,1.17,0,0,0-1.79-1.5Z" fill="#5a4f98"/><path d="M99.47,111.15l-4,4.77a1.17,1.17,0,0,0,1.79,1.5c1.33-1.59,2.65-3.18,4-4.77a1.17,1.17,0,0,0-1.8-1.5Z" fill="#5a4f98"/><path d="M90.11,80.53a1.17,1.17,0,0,0,1.5-1.79,1.17,1.17,0,0,0-1.5,1.79Z" fill="#5a4f98"/><path d="M89.3,59.08l-5,6a1.17,1.17,0,0,0,1.79,1.5l5-6a1.17,1.17,0,0,0-1.79-1.49Z" fill="#5a4f98"/><path d="M120,75.65q-2.75,3.27-5.48,6.56a1.16,1.16,0,0,0,1.79,1.49q2.75-3.27,5.48-6.56A1.17,1.17,0,0,0,120,75.65Z" fill="#5a4f98"/><path d="M90.46,78.29,83,87.24a1.16,1.16,0,0,0,1.78,1.49l7.48-8.94a1.17,1.17,0,0,0-1.79-1.5Z" fill="#5a4f98"/><path d="M105.61,68.66q-3.73,4.47-7.48,9a1.17,1.17,0,0,0,1.79,1.49q3.73-4.47,7.48-8.95a1.17,1.17,0,0,0-1.79-1.49Z" fill="#5a4f98"/><path d="M83.12,131.93l-4,4.77a1.17,1.17,0,0,0,1.79,1.5l4-4.77a1.17,1.17,0,0,0-1.79-1.5Z" fill="#5a4f98"/><path d="M41.05,105.89l-3,3.58a1.17,1.17,0,0,0,1.79,1.5l3-3.58a1.17,1.17,0,0,0-1.79-1.5Z" fill="#5a4f98"/><path d="M31.11,167.49l-2.49,3A1.16,1.16,0,0,0,30.4,172c.84-1,1.67-2,2.5-3a1.17,1.17,0,0,0-1.79-1.5Z" fill="#5a4f98"/><path d="M52.81,95.46c-.5.59-1,1.19-1.49,1.79a1.17,1.17,0,0,0,1.79,1.49c.49-.6,1-1.19,1.49-1.79a1.16,1.16,0,0,0-1.79-1.49Z" fill="#5a4f98"/><path d="M73.91,66a1.17,1.17,0,0,0,1.5-1.79A1.17,1.17,0,0,0,73.91,66Z" fill="#5a4f98"/><path d="M145.92,68.92l-1.49,1.78a1.17,1.17,0,0,0,1.79,1.5c.49-.6,1-1.19,1.49-1.79a1.17,1.17,0,0,0-1.79-1.49Z" fill="#5a4f98"/><path d="M110.55,93.05l-5,6a1.17,1.17,0,0,0,1.79,1.49l5-6a1.17,1.17,0,0,0-1.79-1.5Z" fill="#5a4f98"/><path d="M87.64,108.35l-3.5,4.17a1.17,1.17,0,0,0,1.79,1.5l3.49-4.18a1.16,1.16,0,0,0-1.78-1.49Z" fill="#5a4f98"/><path d="M56.34,165.79a1.17,1.17,0,0,0,1.5-1.79,1.17,1.17,0,0,0-1.5,1.79Z" fill="#5a4f98"/><path d="M81.8,148.06l-6,7.15a1.17,1.17,0,0,0,1.79,1.5l6-7.16a1.17,1.17,0,0,0-1.79-1.49Z" fill="#5a4f98"/><path d="M118.07,121.63l5.49-6.56a1.17,1.17,0,0,0-1.79-1.5l-5.49,6.56a1.17,1.17,0,0,0,1.79,1.5Z" fill="#5a4f98"/><path d="M135.32,104.63c1.33-1.58,2.66-3.18,4-4.77a1.17,1.17,0,0,0-1.79-1.49l-4,4.77a1.17,1.17,0,0,0,1.79,1.49Z" fill="#5a4f98"/><path d="M124.73,128.21l3.5-4.18a1.17,1.17,0,0,0-1.8-1.49l-3.49,4.17a1.17,1.17,0,0,0,1.79,1.5Z" fill="#5a4f98"/><path d="M160.4,107.36l3-3.58a1.17,1.17,0,0,0-1.79-1.5q-1.48,1.8-3,3.58a1.17,1.17,0,0,0,1.79,1.5Z" fill="#5a4f98"/><path d="M134.67,140.57c1.16-1.4,2.33-2.79,3.49-4.18a1.17,1.17,0,0,0-1.79-1.49l-3.49,4.17a1.17,1.17,0,0,0,1.79,1.5Z" fill="#5a4f98"/><path d="M144.86,112.61l-4,4.77a1.17,1.17,0,0,0,1.79,1.5l4-4.77a1.17,1.17,0,0,0-1.79-1.5Z" fill="#5a4f98"/><path d="M108.83,147.85a1.17,1.17,0,0,0,1.49-1.79,1.17,1.17,0,0,0-1.49,1.79Z" fill="#5a4f98"/><path d="M84.72,162.15a1.17,1.17,0,0,0,1.49-1.79,1.17,1.17,0,0,0-1.49,1.79Z" fill="#5a4f98"/><path d="M127.58,153.9q-3,3.57-6,7.15a1.17,1.17,0,0,0,1.79,1.5l6-7.16a1.16,1.16,0,0,0-1.79-1.49Z" fill="#5a4f98"/><path d="M101.1,160.13l-4,4.77a1.16,1.16,0,0,0,1.79,1.49c1.33-1.59,2.66-3.17,4-4.77a1.16,1.16,0,0,0-1.78-1.49Z" fill="#5a4f98"/><path d="M120.33,140.75l-1.49,1.78a1.17,1.17,0,0,0,1.79,1.5c.5-.6,1-1.19,1.49-1.79a1.16,1.16,0,0,0-1.79-1.49Z" fill="#5a4f98"/><path d="M89.87,145.68c-.83,1-1.66,2-2.5,3a1.17,1.17,0,0,0,1.8,1.5l2.49-3a1.17,1.17,0,0,0-1.79-1.49Z" fill="#5a4f98"/><path d="M108.55,169.39l-4,4.78a1.17,1.17,0,0,0,1.79,1.49l4-4.77a1.17,1.17,0,0,0-1.79-1.5Z" fill="#5a4f98"/><path d="M107.51,133.06l-2,2.39a1.17,1.17,0,0,0,1.79,1.5c.66-.8,1.33-1.59,2-2.39a1.17,1.17,0,0,0-1.79-1.5Z" fill="#5a4f98"/><path d="M112.35,156.36l-2.49,3a1.17,1.17,0,0,0,1.79,1.49l2.49-3a1.17,1.17,0,0,0-1.79-1.5Z" fill="#5a4f98"/><path d="M162,87.9a1.17,1.17,0,0,0,1.5-1.79A1.17,1.17,0,0,0,162,87.9Z" fill="#5a4f98"/><path d="M122.5,90.88l-6,7.16a1.16,1.16,0,0,0,1.78,1.49q3-3.57,6-7.16a1.17,1.17,0,0,0-1.79-1.49Z" fill="#5a4f98"/><path d="M159.18,124.58l-4,4.77a1.17,1.17,0,0,0,1.79,1.5l4-4.78a1.17,1.17,0,0,0-1.79-1.49Z" fill="#5a4f98"/><path d="M149.82,94a1.17,1.17,0,0,0,1.49-1.79A1.17,1.17,0,0,0,149.82,94Z" fill="#5a4f98"/><path d="M149,72.5l-5,6A1.16,1.16,0,0,0,145.81,80l5-6A1.17,1.17,0,0,0,149,72.5Z" fill="#5a4f98"/><path d="M179.74,89.07l-5.49,6.56a1.17,1.17,0,0,0,1.79,1.5l5.49-6.56a1.17,1.17,0,0,0-1.79-1.5Z" fill="#5a4f98"/><path d="M150.17,91.72l-7.48,8.94a1.17,1.17,0,0,0,1.79,1.5l7.48-9a1.17,1.17,0,0,0-1.79-1.49Z" fill="#5a4f98"/><path d="M165.31,82.08q-3.74,4.48-7.48,9a1.17,1.17,0,0,0,1.79,1.5l7.48-9a1.17,1.17,0,0,0-1.79-1.5Z" fill="#5a4f98"/><path d="M142.82,145.36l-4,4.77a1.17,1.17,0,0,0,1.8,1.5l4-4.78a1.17,1.17,0,0,0-1.79-1.49Z" fill="#5a4f98"/><path d="M100.76,119.32l-3,3.57a1.17,1.17,0,0,0,1.79,1.5c1-1.19,2-2.38,3-3.58a1.16,1.16,0,0,0-1.78-1.49Z" fill="#5a4f98"/><path d="M90.81,180.92l-2.49,3a1.17,1.17,0,0,0,1.79,1.49l2.49-3a1.17,1.17,0,0,0-1.79-1.49Z" fill="#5a4f98"/><path d="M112.52,108.88l-1.5,1.79a1.17,1.17,0,0,0,1.79,1.5l1.5-1.79a1.17,1.17,0,0,0-1.79-1.5Z" fill="#5a4f98"/><path d="M133.61,79.4a1.17,1.17,0,0,0,1.5-1.79,1.17,1.17,0,0,0-1.5,1.79Z" fill="#5a4f98"/><path d="M205.62,82.34c-.49.6-1,1.19-1.49,1.79a1.17,1.17,0,0,0,1.79,1.5l1.5-1.79a1.17,1.17,0,0,0-1.8-1.5Z" fill="#5a4f98"/><path d="M170.25,106.48l-5,6a1.17,1.17,0,0,0,1.79,1.5l5-6a1.16,1.16,0,0,0-1.79-1.49Z" fill="#5a4f98"/><path d="M147.34,121.78,143.85,126a1.17,1.17,0,0,0,1.79,1.5q1.74-2.1,3.49-4.18a1.17,1.17,0,0,0-1.79-1.49Z" fill="#5a4f98"/><path d="M116.05,179.21a1.17,1.17,0,0,0,1.49-1.79,1.17,1.17,0,0,0-1.49,1.79Z" fill="#5a4f98"/><path d="M133.27,112.55a1.17,1.17,0,0,0,1.49-1.8,1.17,1.17,0,0,0-1.49,1.8Z" fill="#5a4f98"/><path d="M141.51,161.48l-6,7.16a1.17,1.17,0,0,0,1.79,1.5l6-7.17a1.17,1.17,0,0,0-1.79-1.49Z" fill="#5a4f98"/><path d="M20.59,216.45q2.73-3.28,5.48-6.56a1.17,1.17,0,0,0-1.79-1.5L18.79,215a1.17,1.17,0,0,0,1.8,1.5Z" fill="#5a4f98"/><path d="M37.83,199.45l4-4.77a1.17,1.17,0,0,0-1.79-1.5L36,198a1.17,1.17,0,0,0,1.79,1.49Z" fill="#5a4f98"/><path d="M27.24,223l3.5-4.18a1.17,1.17,0,0,0-1.8-1.49l-3.49,4.17a1.17,1.17,0,0,0,1.79,1.5Z" fill="#5a4f98"/><path d="M62.91,202.18l3-3.58a1.17,1.17,0,0,0-1.79-1.5l-3,3.58a1.17,1.17,0,0,0,1.79,1.5Z" fill="#5a4f98"/><path d="M37.18,235.38l3.49-4.17a1.17,1.17,0,0,0-1.79-1.5q-1.74,2.1-3.49,4.18a1.17,1.17,0,0,0,1.79,1.49Z" fill="#5a4f98"/><path d="M47.38,207.43l-4,4.77a1.17,1.17,0,0,0,1.79,1.5l4-4.78a1.16,1.16,0,0,0-1.78-1.49Z" fill="#5a4f98"/><path d="M11.34,242.66a1.16,1.16,0,0,0,1.5-1.78,1.16,1.16,0,0,0-1.5,1.78Z" fill="#5a4f98"/><path d="M30.09,248.72q-3,3.57-6,7.15a1.17,1.17,0,0,0,1.79,1.5l6-7.16a1.16,1.16,0,0,0-1.79-1.49Z" fill="#5a4f98"/><path d="M22.85,235.56l-1.5,1.79a1.17,1.17,0,0,0,1.79,1.5l1.5-1.79a1.17,1.17,0,0,0-1.79-1.5Z" fill="#5a4f98"/><path d="M10,227.88c-.67.79-1.33,1.59-2,2.39a1.17,1.17,0,0,0,1.79,1.49l2-2.38a1.17,1.17,0,0,0-1.79-1.5Z" fill="#5a4f98"/><path d="M14.86,251.18l-2.49,3a1.17,1.17,0,0,0,1.79,1.5l2.49-3a1.17,1.17,0,0,0-1.79-1.5Z" fill="#5a4f98"/><path d="M64.48,182.72a1.17,1.17,0,0,0,1.5-1.79,1.17,1.17,0,0,0-1.5,1.79Z" fill="#5a4f98"/><path d="M25,185.7l-6,7.16a1.17,1.17,0,0,0,1.79,1.49l6-7.16A1.17,1.17,0,0,0,25,185.7Z" fill="#5a4f98"/><path d="M61.69,219.39l-4,4.78a1.17,1.17,0,0,0,1.79,1.49l4-4.77a1.17,1.17,0,0,0-1.79-1.5Z" fill="#5a4f98"/><path d="M52.33,188.77a1.17,1.17,0,0,0,1.5-1.79,1.17,1.17,0,0,0-1.5,1.79Z" fill="#5a4f98"/><path d="M51.52,167.32l-5,6a1.17,1.17,0,0,0,1.79,1.49c1.66-2,3.32-4,5-6a1.17,1.17,0,0,0-1.79-1.5Z" fill="#5a4f98"/><path d="M82.25,183.89q-2.75,3.29-5.48,6.56a1.16,1.16,0,0,0,1.78,1.5L84,185.39a1.17,1.17,0,0,0-1.79-1.5Z" fill="#5a4f98"/><path d="M52.68,186.53q-3.74,4.49-7.48,8.95A1.17,1.17,0,0,0,47,197L54.47,188a1.17,1.17,0,0,0-1.79-1.5Z" fill="#5a4f98"/><path d="M67.83,176.9l-7.49,8.95a1.17,1.17,0,0,0,1.8,1.5l7.47-8.95a1.16,1.16,0,0,0-1.78-1.5Z" fill="#5a4f98"/><path d="M45.33,240.17q-2,2.4-4,4.78a1.17,1.17,0,0,0,1.79,1.49l4-4.77a1.17,1.17,0,0,0-1.8-1.5Z" fill="#5a4f98"/><path d="M3.27,214.13l-3,3.58a1.17,1.17,0,0,0,1.79,1.5l3-3.58a1.17,1.17,0,0,0-1.79-1.5Z" fill="#5a4f98"/><path d="M15,203.7l-1.5,1.79a1.17,1.17,0,0,0,1.79,1.5l1.5-1.79A1.17,1.17,0,0,0,15,203.7Z" fill="#5a4f98"/><path d="M36.12,174.22a1.17,1.17,0,0,0,1.5-1.79,1.17,1.17,0,0,0-1.5,1.79Z" fill="#5a4f98"/><path d="M108.14,177.16l-1.5,1.79a1.17,1.17,0,0,0,1.79,1.49l1.5-1.79a1.17,1.17,0,0,0-1.79-1.49Z" fill="#5a4f98"/><path d="M72.77,201.3q-2.51,3-5,6a1.17,1.17,0,0,0,1.79,1.5l5-6a1.17,1.17,0,0,0-1.79-1.49Z" fill="#5a4f98"/><path d="M49.85,216.59l-3.49,4.18a1.17,1.17,0,0,0,1.79,1.49l3.49-4.17a1.17,1.17,0,0,0-1.79-1.5Z" fill="#5a4f98"/><path d="M44,256.3q-3,3.57-6,7.16a1.17,1.17,0,0,0,1.8,1.49q3-3.57,6-7.15A1.17,1.17,0,0,0,44,256.3Z" fill="#5a4f98"/><path d="M90.85,224.51q2.75-3.27,5.48-6.56a1.16,1.16,0,0,0-1.79-1.49L89.06,223a1.17,1.17,0,0,0,1.79,1.49Z" fill="#5a4f98"/><path d="M108.09,207.52l4-4.77a1.17,1.17,0,0,0-1.79-1.5l-4,4.77a1.17,1.17,0,0,0,1.79,1.5Z" fill="#5a4f98"/><path d="M97.51,231.09l3.49-4.17a1.17,1.17,0,0,0-1.79-1.5c-1.17,1.39-2.33,2.79-3.49,4.18a1.17,1.17,0,0,0,1.79,1.49Z" fill="#5a4f98"/><path d="M133.17,210.24q1.5-1.78,3-3.58a1.17,1.17,0,0,0-1.79-1.49l-3,3.58a1.17,1.17,0,0,0,1.79,1.49Z" fill="#5a4f98"/><path d="M107.44,243.45l3.49-4.17a1.17,1.17,0,0,0-1.79-1.5L105.65,242a1.17,1.17,0,0,0,1.79,1.49Z" fill="#5a4f98"/><path d="M117.64,215.5l-4,4.77a1.17,1.17,0,0,0,1.79,1.49l4-4.77a1.17,1.17,0,0,0-1.79-1.49Z" fill="#5a4f98"/><path d="M81.6,250.73a1.17,1.17,0,0,0,1.5-1.79,1.17,1.17,0,0,0-1.5,1.79Z" fill="#5a4f98"/><path d="M100.36,256.78l-6,7.16a1.16,1.16,0,0,0,1.78,1.49l6-7.15a1.17,1.17,0,0,0-1.79-1.5Z" fill="#5a4f98"/><path d="M73.87,263l-4,4.77a1.17,1.17,0,0,0,1.79,1.5l4-4.77a1.17,1.17,0,0,0-1.79-1.5Z" fill="#5a4f98"/><path d="M93.11,243.63c-.5.6-1,1.19-1.49,1.79a1.16,1.16,0,0,0,1.78,1.49l1.5-1.78a1.17,1.17,0,0,0-1.79-1.5Z" fill="#5a4f98"/><path d="M62.64,248.56l-2.49,3A1.17,1.17,0,0,0,61.94,253l2.49-3a1.17,1.17,0,0,0-1.79-1.5Z" fill="#5a4f98"/><path d="M81.32,272.28l-4,4.77a1.16,1.16,0,0,0,1.78,1.5l4-4.77a1.17,1.17,0,0,0-1.79-1.5Z" fill="#5a4f98"/><path d="M80.28,236c-.67.79-1.33,1.59-2,2.38a1.17,1.17,0,0,0,1.79,1.5l2-2.39A1.17,1.17,0,0,0,80.28,236Z" fill="#5a4f98"/><path d="M85.12,259.25l-2.49,3a1.17,1.17,0,0,0,1.79,1.49l2.49-3a1.16,1.16,0,0,0-1.79-1.49Z" fill="#5a4f98"/><path d="M134.74,190.79a1.17,1.17,0,0,0,1.5-1.79,1.17,1.17,0,0,0-1.5,1.79Z" fill="#5a4f98"/><path d="M95.27,193.76l-6,7.16a1.17,1.17,0,0,0,1.79,1.5l6-7.16a1.17,1.17,0,0,0-1.79-1.5Z" fill="#5a4f98"/><path d="M132,227.46l-4,4.77a1.17,1.17,0,0,0,1.79,1.5l4-4.77a1.17,1.17,0,0,0-1.79-1.5Z" fill="#5a4f98"/><path d="M122.59,196.84a1.17,1.17,0,0,0,1.5-1.79,1.17,1.17,0,0,0-1.5,1.79Z" fill="#5a4f98"/><path d="M121.78,175.39l-5,6a1.17,1.17,0,0,0,1.79,1.5l5-6a1.17,1.17,0,0,0-1.79-1.49Z" fill="#5a4f98"/><path d="M152.51,192q-2.74,3.27-5.48,6.56a1.16,1.16,0,0,0,1.79,1.49l5.48-6.56a1.17,1.17,0,0,0-1.79-1.49Z" fill="#5a4f98"/><path d="M122.94,194.6l-7.47,9a1.16,1.16,0,0,0,1.78,1.49q3.75-4.47,7.48-8.95a1.17,1.17,0,0,0-1.79-1.49Z" fill="#5a4f98"/><path d="M138.09,185q-3.75,4.47-7.48,8.95a1.17,1.17,0,0,0,1.79,1.49q3.73-4.47,7.48-8.95a1.17,1.17,0,0,0-1.79-1.49Z" fill="#5a4f98"/><path d="M115.6,248.24l-4,4.77a1.17,1.17,0,0,0,1.79,1.5l4-4.77a1.17,1.17,0,0,0-1.79-1.5Z" fill="#5a4f98"/><path d="M73.53,222.2l-3,3.58a1.17,1.17,0,0,0,1.79,1.5l3-3.59a1.17,1.17,0,0,0-1.79-1.49Z" fill="#5a4f98"/><path d="M63.59,283.8c-.83,1-1.66,2-2.5,3a1.17,1.17,0,0,0,1.79,1.5l2.49-3a1.16,1.16,0,0,0-1.78-1.5Z" fill="#5a4f98"/><path d="M85.29,211.77l-1.49,1.78a1.17,1.17,0,0,0,1.79,1.5c.49-.6,1-1.19,1.49-1.79a1.16,1.16,0,0,0-1.79-1.49Z" fill="#5a4f98"/><path d="M107.17,191a1.17,1.17,0,0,0,1.5-1.79,1.17,1.17,0,0,0-1.5,1.79Z" fill="#5a4f98"/><path d="M178.4,185.22l-1.49,1.8a1.17,1.17,0,0,0,1.79,1.49c.49-.6,1-1.19,1.49-1.79a1.17,1.17,0,0,0-1.79-1.5Z" fill="#5a4f98"/><path d="M143,209.36l-5,6a1.17,1.17,0,0,0,1.79,1.49l5-6a1.17,1.17,0,0,0-1.79-1.5Z" fill="#5a4f98"/><path d="M120.11,224.66l-3.49,4.17a1.17,1.17,0,0,0,1.79,1.5c1.17-1.39,2.33-2.79,3.49-4.18a1.17,1.17,0,0,0-1.79-1.49Z" fill="#5a4f98"/><path d="M88.82,282.09a1.16,1.16,0,0,0,1.5-1.78,1.16,1.16,0,0,0-1.5,1.78Z" fill="#5a4f98"/><path d="M114.28,264.37l-6,7.15a1.17,1.17,0,0,0,1.79,1.5l6-7.16a1.17,1.17,0,0,0-1.79-1.49Z" fill="#5a4f98"/><path d="M184.17,120.13q2.75-3.27,5.48-6.56a1.16,1.16,0,0,0-1.78-1.49l-5.49,6.56a1.17,1.17,0,0,0,1.79,1.49Z" fill="#5a4f98"/><path d="M201.42,103.14l4-4.77a1.16,1.16,0,0,0-1.78-1.5c-1.33,1.59-2.67,3.18-4,4.77a1.17,1.17,0,0,0,1.79,1.5Z" fill="#5a4f98"/><path d="M190.83,126.71l3.49-4.17a1.17,1.17,0,0,0-1.79-1.5c-1.16,1.4-2.33,2.79-3.49,4.18a1.17,1.17,0,0,0,1.79,1.49Z" fill="#5a4f98"/><path d="M226.49,105.86l3-3.58a1.17,1.17,0,0,0-1.79-1.49l-3,3.58a1.17,1.17,0,0,0,1.79,1.49Z" fill="#5a4f98"/><path d="M200.77,139.07l3.48-4.17a1.16,1.16,0,0,0-1.78-1.5q-1.75,2.08-3.49,4.18a1.17,1.17,0,0,0,1.79,1.49Z" fill="#5a4f98"/><path d="M211,111.12l-4,4.77a1.17,1.17,0,0,0,1.79,1.49c1.33-1.58,2.66-3.18,4-4.77a1.17,1.17,0,0,0-1.79-1.49Z" fill="#5a4f98"/><path d="M174.93,146.35a1.17,1.17,0,0,0,1.49-1.79,1.17,1.17,0,0,0-1.49,1.79Z" fill="#5a4f98"/><path d="M142.43,178a1.17,1.17,0,0,0,1.49-1.79,1.17,1.17,0,0,0-1.49,1.79Z" fill="#5a4f98"/><path d="M193.68,152.4l-6,7.16a1.16,1.16,0,0,0,1.79,1.49q3-3.57,6-7.15a1.17,1.17,0,0,0-1.79-1.5Z" fill="#5a4f98"/><path d="M167.19,158.63l-4,4.77a1.17,1.17,0,0,0,1.79,1.5l4-4.77a1.17,1.17,0,0,0-1.79-1.5Z" fill="#5a4f98"/><path d="M186.43,139.25c-.5.6-1,1.19-1.49,1.79a1.16,1.16,0,0,0,1.79,1.49l1.49-1.78a1.17,1.17,0,0,0-1.79-1.5Z" fill="#5a4f98"/><path d="M156,144.18l-2.5,3a1.17,1.17,0,0,0,1.79,1.5c.83-1,1.66-2,2.5-3a1.17,1.17,0,0,0-1.79-1.5Z" fill="#5a4f98"/><path d="M174.64,167.9l-4,4.77a1.17,1.17,0,0,0,1.79,1.5l4-4.78a1.17,1.17,0,0,0-1.79-1.49Z" fill="#5a4f98"/><path d="M173.6,131.57l-2,2.38a1.17,1.17,0,0,0,1.79,1.5l2-2.39a1.17,1.17,0,0,0-1.79-1.49Z" fill="#5a4f98"/><path d="M178.44,154.87l-2.49,3a1.17,1.17,0,0,0,1.79,1.5c.83-1,1.66-2,2.5-3a1.17,1.17,0,0,0-1.8-1.49Z" fill="#5a4f98"/><path d="M228.07,86.41a1.17,1.17,0,0,0,1.49-1.79,1.17,1.17,0,0,0-1.49,1.79Z" fill="#5a4f98"/><path d="M188.6,89.38l-6,7.16A1.17,1.17,0,0,0,184.4,98q3-3.58,6-7.16a1.17,1.17,0,0,0-1.79-1.5Z" fill="#5a4f98"/><path d="M225.27,123.08l-4,4.77a1.17,1.17,0,0,0,1.79,1.5l4-4.77a1.17,1.17,0,0,0-1.79-1.5Z" fill="#5a4f98"/><path d="M215.91,92.46a1.17,1.17,0,0,0,1.5-1.79,1.17,1.17,0,0,0-1.5,1.79Z" fill="#5a4f98"/><path d="M215.1,71q-2.49,3-5,6a1.17,1.17,0,0,0,1.79,1.5l5-6A1.17,1.17,0,0,0,215.1,71Z" fill="#5a4f98"/><path d="M245.83,87.58q-2.75,3.27-5.48,6.56a1.16,1.16,0,0,0,1.79,1.49c1.82-2.18,3.66-4.37,5.48-6.56a1.17,1.17,0,0,0-1.79-1.49Z" fill="#5a4f98"/><path d="M216.27,90.22q-3.75,4.47-7.48,9a1.17,1.17,0,0,0,1.79,1.49l7.47-8.94a1.16,1.16,0,0,0-1.78-1.5Z" fill="#5a4f98"/><path d="M231.41,80.59l-7.48,8.94a1.17,1.17,0,0,0,1.79,1.5l7.48-9a1.17,1.17,0,0,0-1.79-1.49Z" fill="#5a4f98"/><path d="M208.92,143.86l-4,4.77a1.17,1.17,0,0,0,1.79,1.5l4-4.77a1.17,1.17,0,0,0-1.79-1.5Z" fill="#5a4f98"/><path d="M166.85,117.82l-3,3.58a1.17,1.17,0,0,0,1.79,1.49l3-3.57a1.17,1.17,0,0,0-1.79-1.5Z" fill="#5a4f98"/><path d="M156.91,179.42l-2.49,3a1.16,1.16,0,0,0,1.78,1.5c.84-1,1.67-2,2.5-3a1.17,1.17,0,0,0-1.79-1.5Z" fill="#5a4f98"/><path d="M178.61,107.38c-.49.6-1,1.2-1.49,1.79a1.17,1.17,0,0,0,1.79,1.5c.5-.6,1-1.19,1.49-1.79a1.17,1.17,0,0,0-1.79-1.5Z" fill="#5a4f98"/><path d="M199.71,77.9a1.17,1.17,0,0,0,1.5-1.79,1.17,1.17,0,0,0-1.5,1.79Z" fill="#5a4f98"/><path d="M271.72,80.84c-.49.6-1,1.2-1.49,1.79a1.17,1.17,0,0,0,1.79,1.5l1.49-1.79a1.17,1.17,0,0,0-1.79-1.5Z" fill="#5a4f98"/><path d="M236.35,105l-5,6a1.17,1.17,0,0,0,1.79,1.49l5-6a1.17,1.17,0,0,0-1.79-1.5Z" fill="#5a4f98"/><path d="M213.44,120.28l-3.5,4.17a1.17,1.17,0,0,0,1.8,1.5c1.16-1.4,2.32-2.78,3.48-4.17a1.16,1.16,0,0,0-1.78-1.5Z" fill="#5a4f98"/><path d="M182.15,177.72a1.17,1.17,0,0,0,1.49-1.79,1.17,1.17,0,0,0-1.49,1.79Z" fill="#5a4f98"/><path d="M207.6,160q-3,3.57-6,7.15a1.17,1.17,0,0,0,1.79,1.5l6-7.16A1.16,1.16,0,0,0,207.6,160Z" fill="#5a4f98"/><path d="M155.91,248.5l5.49-6.56a1.17,1.17,0,0,0-1.79-1.5L154.12,247a1.17,1.17,0,0,0,1.79,1.49Z" fill="#5a4f98"/><path d="M173.16,231.51l4-4.78a1.17,1.17,0,0,0-1.79-1.49l-4,4.77a1.17,1.17,0,0,0,1.79,1.5Z" fill="#5a4f98"/><path d="M162.57,255.08l3.49-4.17a1.17,1.17,0,0,0-1.79-1.5l-3.49,4.17a1.17,1.17,0,0,0,1.79,1.5Z" fill="#5a4f98"/><path d="M198.24,234.23q1.48-1.8,3-3.58a1.17,1.17,0,0,0-1.79-1.5l-3,3.58a1.17,1.17,0,0,0,1.79,1.5Z" fill="#5a4f98"/><path d="M172.51,267.44c1.16-1.39,2.32-2.79,3.49-4.18a1.17,1.17,0,0,0-1.79-1.5l-3.49,4.18a1.17,1.17,0,0,0,1.79,1.5Z" fill="#5a4f98"/><path d="M182.7,239.48l-4,4.77a1.17,1.17,0,0,0,1.79,1.5l4-4.77a1.17,1.17,0,0,0-1.79-1.5Z" fill="#5a4f98"/><path d="M146.67,274.71a1.16,1.16,0,0,0,1.49-1.78,1.16,1.16,0,0,0-1.49,1.78Z" fill="#5a4f98"/><path d="M165.42,280.76l-6,7.16a1.17,1.17,0,0,0,1.79,1.5l6-7.16a1.17,1.17,0,0,0-1.79-1.5Z" fill="#5a4f98"/><path d="M138.93,287l-4,4.77a1.17,1.17,0,0,0,1.8,1.49l4-4.77a1.17,1.17,0,0,0-1.79-1.49Z" fill="#5a4f98"/><path d="M158.17,267.62l-1.49,1.78a1.17,1.17,0,0,0,1.79,1.5l1.49-1.79a1.17,1.17,0,0,0-1.79-1.49Z" fill="#5a4f98"/><path d="M127.71,272.55l-2.5,3A1.17,1.17,0,0,0,127,277c.83-1,1.67-2,2.5-3a1.17,1.17,0,0,0-1.79-1.49Z" fill="#5a4f98"/><path d="M146.39,296.26l-4,4.78a1.17,1.17,0,0,0,1.79,1.49l4-4.77a1.17,1.17,0,0,0-1.79-1.5Z" fill="#5a4f98"/><path d="M145.34,259.93l-2,2.39a1.17,1.17,0,0,0,1.79,1.49l2-2.38a1.17,1.17,0,0,0-1.79-1.5Z" fill="#5a4f98"/><path d="M150.19,283.23c-.83,1-1.66,2-2.5,3a1.17,1.17,0,0,0,1.79,1.5c.84-1,1.67-2,2.5-3a1.17,1.17,0,0,0-1.79-1.5Z" fill="#5a4f98"/><path d="M199.81,214.77A1.17,1.17,0,0,0,201.3,213a1.17,1.17,0,0,0-1.49,1.79Z" fill="#5a4f98"/><path d="M160.34,217.75q-3,3.57-6,7.16a1.17,1.17,0,0,0,1.79,1.49q3-3.57,6-7.16a1.17,1.17,0,0,0-1.79-1.49Z" fill="#5a4f98"/><path d="M197,251.45l-4,4.77a1.17,1.17,0,0,0,1.79,1.49l4-4.77a1.17,1.17,0,0,0-1.79-1.49Z" fill="#5a4f98"/><path d="M187.65,220.82a1.16,1.16,0,0,0,1.5-1.78,1.16,1.16,0,0,0-1.5,1.78Z" fill="#5a4f98"/><path d="M186.84,199.37l-5,6a1.16,1.16,0,0,0,1.79,1.49l5-6a1.17,1.17,0,0,0-1.79-1.5Z" fill="#5a4f98"/><path d="M217.58,215.94l-5.49,6.56a1.17,1.17,0,0,0,1.79,1.5l5.49-6.56a1.17,1.17,0,0,0-1.79-1.5Z" fill="#5a4f98"/><path d="M188,218.59l-7.48,8.94a1.17,1.17,0,0,0,1.79,1.5l7.48-8.95a1.17,1.17,0,0,0-1.79-1.49Z" fill="#5a4f98"/><path d="M203.15,209q-3.74,4.49-7.48,9a1.17,1.17,0,0,0,1.79,1.49l7.48-8.94a1.17,1.17,0,0,0-1.79-1.5Z" fill="#5a4f98"/><path d="M180.66,272.22c-1.33,1.6-2.65,3.19-4,4.78a1.17,1.17,0,0,0,1.79,1.5l4-4.78a1.17,1.17,0,0,0-1.79-1.5Z" fill="#5a4f98"/><path d="M138.6,246.18l-3,3.59a1.17,1.17,0,0,0,1.79,1.49l3-3.58a1.17,1.17,0,0,0-1.79-1.5Z" fill="#5a4f98"/><path d="M128.65,307.78l-2.49,3a1.17,1.17,0,0,0,1.79,1.49l2.49-3a1.17,1.17,0,0,0-1.79-1.5Z" fill="#5a4f98"/><path d="M150.36,235.75l-1.5,1.79a1.17,1.17,0,0,0,1.79,1.5l1.5-1.79a1.17,1.17,0,0,0-1.79-1.5Z" fill="#5a4f98"/><path d="M171.45,206.27a1.17,1.17,0,0,0,1.5-1.79,1.17,1.17,0,0,0-1.5,1.79Z" fill="#5a4f98"/><path d="M243.47,209.21,242,211a1.17,1.17,0,0,0,1.79,1.49l1.49-1.78a1.16,1.16,0,0,0-1.78-1.5Z" fill="#5a4f98"/><path d="M208.09,233.35l-5,6a1.17,1.17,0,0,0,1.79,1.5l5-6a1.16,1.16,0,0,0-1.79-1.49Z" fill="#5a4f98"/><path d="M185.18,248.64c-1.17,1.39-2.33,2.79-3.49,4.18a1.16,1.16,0,0,0,1.79,1.49l3.49-4.17a1.17,1.17,0,0,0-1.79-1.5Z" fill="#5a4f98"/><path d="M153.89,306.08a1.17,1.17,0,0,0,1.49-1.79,1.17,1.17,0,0,0-1.49,1.79Z" fill="#5a4f98"/><path d="M179.35,288.35l-6,7.16a1.17,1.17,0,0,0,1.79,1.49l6-7.15a1.17,1.17,0,0,0-1.79-1.5Z" fill="#5a4f98"/><path d="M239.66,160.43q2.73-3.28,5.48-6.56a1.17,1.17,0,0,0-1.79-1.5l-5.49,6.57a1.17,1.17,0,0,0,1.8,1.49Z" fill="#5a4f98"/><path d="M256.9,143.43l4-4.77a1.17,1.17,0,0,0-1.79-1.49l-4,4.77a1.17,1.17,0,0,0,1.79,1.49Z" fill="#5a4f98"/><path d="M246.31,167c1.17-1.39,2.33-2.79,3.49-4.18a1.16,1.16,0,0,0-1.79-1.49l-3.48,4.17a1.16,1.16,0,0,0,1.78,1.5Z" fill="#5a4f98"/><path d="M282,146.16l3-3.58a1.17,1.17,0,0,0-1.79-1.5q-1.49,1.8-3,3.58a1.17,1.17,0,0,0,1.79,1.5Z" fill="#5a4f98"/><path d="M256.25,179.36l3.49-4.17a1.17,1.17,0,0,0-1.79-1.5c-1.16,1.4-2.33,2.79-3.49,4.18a1.17,1.17,0,0,0,1.79,1.49Z" fill="#5a4f98"/><path d="M266.44,151.41c-1.33,1.59-2.65,3.18-4,4.77a1.17,1.17,0,0,0,1.8,1.5q2-2.38,4-4.78a1.17,1.17,0,0,0-1.79-1.49Z" fill="#5a4f98"/><path d="M230.41,186.65a1.17,1.17,0,0,0,1.49-1.79,1.17,1.17,0,0,0-1.49,1.79Z" fill="#5a4f98"/><path d="M249.16,192.69l-6,7.16a1.17,1.17,0,0,0,1.79,1.5l6-7.16a1.17,1.17,0,0,0-1.79-1.5Z" fill="#5a4f98"/><path d="M222.68,198.92l-4,4.78a1.17,1.17,0,0,0,1.79,1.5l4-4.78a1.17,1.17,0,0,0-1.79-1.5Z" fill="#5a4f98"/><path d="M241.92,179.54l-1.5,1.79a1.17,1.17,0,0,0,1.79,1.5l1.5-1.79a1.17,1.17,0,0,0-1.79-1.5Z" fill="#5a4f98"/><path d="M211.45,184.48l-2.49,3a1.17,1.17,0,0,0,1.79,1.5l2.49-3a1.17,1.17,0,0,0-1.79-1.49Z" fill="#5a4f98"/><path d="M230.13,208.2l-4,4.77a1.17,1.17,0,0,0,1.79,1.49l4-4.77a1.17,1.17,0,0,0-1.79-1.49Z" fill="#5a4f98"/><path d="M229.09,171.86l-2,2.39a1.17,1.17,0,0,0,1.79,1.49l2-2.38a1.17,1.17,0,0,0-1.79-1.5Z" fill="#5a4f98"/><path d="M233.93,195.16c-.83,1-1.66,2-2.5,3a1.17,1.17,0,0,0,1.8,1.5l2.49-3a1.17,1.17,0,0,0-1.79-1.5Z" fill="#5a4f98"/><path d="M283.55,126.7a1.17,1.17,0,0,0,1.5-1.79,1.17,1.17,0,0,0-1.5,1.79Z" fill="#5a4f98"/><path d="M244.08,129.68l-6,7.16a1.16,1.16,0,0,0,1.78,1.49q3-3.57,6-7.16a1.17,1.17,0,0,0-1.79-1.49Z" fill="#5a4f98"/><path d="M280.76,163.38l-4,4.77a1.17,1.17,0,0,0,1.79,1.5l4-4.78a1.17,1.17,0,0,0-1.79-1.49Z" fill="#5a4f98"/><path d="M271.4,132.75a1.16,1.16,0,0,0,1.49-1.78,1.16,1.16,0,0,0-1.49,1.78Z" fill="#5a4f98"/><path d="M270.58,111.3l-5,6a1.16,1.16,0,0,0,1.79,1.49l5-6a1.17,1.17,0,0,0-1.79-1.5Z" fill="#5a4f98"/><path d="M301.32,127.87l-5.49,6.56a1.17,1.17,0,0,0,1.79,1.5l5.49-6.56a1.17,1.17,0,0,0-1.79-1.5Z" fill="#5a4f98"/><path d="M271.75,130.52l-7.48,8.94a1.17,1.17,0,0,0,1.79,1.5q3.74-4.47,7.48-9a1.17,1.17,0,0,0-1.79-1.49Z" fill="#5a4f98"/><path d="M286.89,120.88q-3.74,4.47-7.48,9a1.17,1.17,0,0,0,1.79,1.5l7.48-9a1.17,1.17,0,0,0-1.79-1.5Z" fill="#5a4f98"/><path d="M264.41,184.16l-4,4.77a1.16,1.16,0,0,0,1.79,1.49l4-4.77a1.16,1.16,0,0,0-1.78-1.49Z" fill="#5a4f98"/><path d="M222.34,158.11l-3,3.58a1.17,1.17,0,0,0,1.79,1.5l3-3.58a1.17,1.17,0,0,0-1.79-1.5Z" fill="#5a4f98"/><path d="M212.39,219.72l-2.49,3a1.17,1.17,0,0,0,1.79,1.49l2.49-3a1.16,1.16,0,0,0-1.79-1.49Z" fill="#5a4f98"/><path d="M234.1,147.68l-1.5,1.79a1.17,1.17,0,0,0,1.79,1.5l1.5-1.79a1.17,1.17,0,0,0-1.79-1.5Z" fill="#5a4f98"/><path d="M255.2,118.2a1.17,1.17,0,0,0,1.49-1.79,1.17,1.17,0,0,0-1.49,1.79Z" fill="#5a4f98"/><path d="M327.21,121.14l-1.5,1.79a1.17,1.17,0,0,0,1.79,1.5l1.5-1.8a1.17,1.17,0,0,0-1.79-1.49Z" fill="#5a4f98"/><path d="M291.84,145.28q-2.5,3-5,6a1.17,1.17,0,0,0,1.79,1.5l5-6a1.16,1.16,0,0,0-1.78-1.49Z" fill="#5a4f98"/><path d="M268.92,160.57c-1.16,1.4-2.33,2.79-3.49,4.18a1.17,1.17,0,0,0,1.79,1.49l3.49-4.17a1.17,1.17,0,0,0-1.79-1.5Z" fill="#5a4f98"/><path d="M237.63,218a1.17,1.17,0,0,0,1.5-1.79,1.17,1.17,0,0,0-1.5,1.79Z" fill="#5a4f98"/><path d="M263.09,200.28q-3,3.57-6,7.16a1.17,1.17,0,0,0,1.79,1.49q3-3.57,6-7.15a1.16,1.16,0,0,0-1.78-1.5Z" fill="#5a4f98"/><path d="M198.47,8.47,204,1.91A1.16,1.16,0,0,0,202.16.42L196.68,7a1.17,1.17,0,0,0,1.79,1.49Z" fill="#5a4f98"/><path d="M205.13,15.05l3.49-4.17a1.17,1.17,0,0,0-1.79-1.5q-1.76,2.08-3.49,4.18a1.17,1.17,0,0,0,1.79,1.49Z" fill="#5a4f98"/><path d="M215.06,27.41q1.75-2.09,3.49-4.18a1.17,1.17,0,0,0-1.79-1.49l-3.49,4.17a1.17,1.17,0,0,0,1.79,1.5Z" fill="#5a4f98"/><path d="M189.22,34.69a1.17,1.17,0,0,0,1.5-1.79,1.17,1.17,0,0,0-1.5,1.79Z" fill="#5a4f98"/><path d="M208,40.74q-3,3.57-6,7.15a1.17,1.17,0,0,0,1.79,1.5l6-7.16a1.17,1.17,0,0,0-1.8-1.49Z" fill="#5a4f98"/><path d="M181.49,47l-4,4.77a1.17,1.17,0,0,0,1.79,1.5l4-4.78A1.17,1.17,0,0,0,181.49,47Z" fill="#5a4f98"/><path d="M200.73,27.59l-1.5,1.79A1.17,1.17,0,0,0,201,30.87l1.5-1.79a1.17,1.17,0,0,0-1.79-1.49Z" fill="#5a4f98"/><path d="M170.26,32.52l-2.49,3a1.17,1.17,0,0,0,1.79,1.5l2.49-3a1.17,1.17,0,0,0-1.79-1.5Z" fill="#5a4f98"/><path d="M188.94,56.24,185,61a1.17,1.17,0,0,0,1.79,1.49l4-4.77a1.16,1.16,0,0,0-1.79-1.49Z" fill="#5a4f98"/><path d="M187.9,19.9l-2,2.39a1.17,1.17,0,0,0,1.79,1.5c.66-.8,1.32-1.6,2-2.39a1.17,1.17,0,0,0-1.79-1.5Z" fill="#5a4f98"/><path d="M192.74,43.2l-2.49,3A1.17,1.17,0,0,0,192,47.68c.83-1,1.66-2,2.5-3a1.17,1.17,0,0,0-1.8-1.5Z" fill="#5a4f98"/><path d="M223.22,32.2l-4,4.77a1.17,1.17,0,0,0,1.79,1.5l4-4.78a1.17,1.17,0,0,0-1.79-1.49Z" fill="#5a4f98"/><path d="M181.15,6.16l-3,3.58A1.17,1.17,0,0,0,180,11.23l3-3.58a1.16,1.16,0,0,0-1.79-1.49Z" fill="#5a4f98"/><path d="M171.21,67.76l-2.5,3a1.17,1.17,0,0,0,1.79,1.5l2.5-3a1.17,1.17,0,0,0-1.79-1.49Z" fill="#5a4f98"/><path d="M196.44,66.05a1.17,1.17,0,0,0,1.5-1.79,1.17,1.17,0,0,0-1.5,1.79Z" fill="#5a4f98"/><path d="M221.9,48.32l-6,7.16a1.17,1.17,0,0,0,1.79,1.5l6-7.16a1.17,1.17,0,0,0-1.79-1.5Z" fill="#5a4f98"/></g></g></svg>