<svg xmlns="http://www.w3.org/2000/svg" viewBox="0 0 422.42 229.81"><title>Ресурс 1</title><g id="Слой_2" data-name="Слой 2"><g id="Слой_1-2" data-name="Слой 1"><path d="M152,227.27a37.56,37.56,0,0,0,.65-8.78,2.68,2.68,0,0,0-2.6-2.34c-1.64-1.6-5.46-1.16-5.22,1.39.3,3.24.55,6.5.91,9.74.31,2.76,5.64,3.66,6.16.66,0-.22.07-.44.1-.66h0Z" fill="#b3c537"/><path d="M131.14,205.7c-.92,1.75-2.67,4.3-5,3.36-2.89-1.18-2-5-4.79-6.39A3.26,3.26,0,0,0,118,203c-2.48,1.84-1,4.89.28,7.05a10.46,10.46,0,0,0,6.13,4.33c5.24,1.6,10.08-2.2,11.3-7.13C136.35,204.83,132.22,203.66,131.14,205.7Z" fill="#b3c537"/><path d="M165,227.27a38.1,38.1,0,0,1-.64-8.78,2.68,2.68,0,0,1,2.6-2.34c1.63-1.6,5.45-1.16,5.22,1.39-.3,3.24-.55,6.5-.91,9.74-.31,2.76-5.64,3.66-6.16.66,0-.22-.07-.44-.11-.66h0Z" fill="#b3c537"/><path d="M185.82,205.7c.92,1.75,2.66,4.3,5,3.36,2.89-1.18,2-5,4.79-6.39a3.26,3.26,0,0,1,3.32.34c2.47,1.84,1,4.89-.29,7.05a10.41,10.41,0,0,1-6.12,4.33c-5.24,1.6-10.08-2.2-11.3-7.13C180.61,204.83,184.73,203.66,185.82,205.7Z" fill="#b3c537"/><path d="M187,171.63c-8.89-19.23-20.55-39.8-24.27-45.92-3.16-5.17-4-4.48-6.88.46-6.1,10.39-25.47,42.72-27.93,53-2.09,8.72-2.14,17.83,2.21,25.67a33.11,33.11,0,0,0,18.46,15.3c16.2,5.41,33-2.81,39.53-19C192.07,191.55,192.07,182.5,187,171.63Z" fill="#e85d2e"/><path d="M193.47,192.42c-.83-5.11-6.14-6.29-10.54-6.41-2.16-.06-38.37-.6-46.55-.38-4.33.12-10.36-.65-12.26,3.78-2.16,5.05.3,11.91,5.53,12.9,4.16.79,6.73-1.59,7.86-4.77.85,2.5,2.34,4.49,5.63,4.71,2.55.17,4.45-1.84,5.48-3.93.23-.48.44-1,.64-1.45,1.09,3.12,3.29,5.76,6.81,5.94,2.72.14,4.82-1.54,6.26-3.69a21.67,21.67,0,0,0,1.23-2.1c1.23,3.5,4.24,6.55,7.79,6.78s5.93-2,7.48-4.89a9,9,0,0,0,5.91,4.52C190.7,204.65,194.29,197.39,193.47,192.42Z" fill="#f5d64e"/><path d="M145.75,173.86a2.27,2.27,0,0,1-2.39-.14l.09.07-.08-.06,0,0-.07,0-.15-.12-.11-.08.08.06a2.11,2.11,0,0,1-.84-1.67,2.19,2.19,0,0,1,1.13-1.89,2.31,2.31,0,0,1,3.36,1.31A2.21,2.21,0,0,1,145.75,173.86Zm28.85,0a2.27,2.27,0,0,1-2.39-.14l.09.07-.08-.06-.05,0a.18.18,0,0,0-.07,0l-.15-.12-.1-.08.08.06a2.11,2.11,0,0,1-.84-1.67,2.19,2.19,0,0,1,1.13-1.89,2.31,2.31,0,0,1,3.36,1.31A2.21,2.21,0,0,1,174.6,173.86Zm-11.38.26c-.43,2.06-2,4.22-4.33,4-2.56-.23-3.6-2.56-3.76-4.86-.11-1.64,2.87-1.59,3.07,0a4,4,0,0,0,.58,1.84l.25.28a1.38,1.38,0,0,0,.19-.25,3.59,3.59,0,0,0,.49-1.42,1.56,1.56,0,0,1,1.31-1.37,2.25,2.25,0,0,1,1.38.14A1.37,1.37,0,0,1,163.22,174.12Z" fill="#fff"/><path d="M161,138.62a1.34,1.34,0,0,1-.69.8,1.56,1.56,0,0,1-2.19-.8l0-.05c-.43-1.47,1.65-2.13,2.47-1.28l0,.05A1.25,1.25,0,0,1,161,138.62Zm-.39-8.49a.1.1,0,0,0,0,0c-.82-.85-2.9-.2-2.47,1.27,0,0,0,0,0,.06a1.55,1.55,0,0,0,2.19.79,1.35,1.35,0,0,0,.69-.79A1.25,1.25,0,0,0,160.58,130.13Z" fill="#fff"/><path d="M380.45,222.09a26.22,26.22,0,0,0,0-4.25,6.31,6.31,0,0,0-2.14-4.6c-1.9-1.84-6.47-1.43-7.91.77-1.54,2.36-.27,10.35-.08,11.83a11.79,11.79,0,0,0-1.87.23c-1.66.47-2.17,2.12-.52,3s4.63.7,6.52.75C379.35,229.67,380.12,228.64,380.45,222.09Z" fill="#5a4f98"/><path d="M390.75,222.09a26.22,26.22,0,0,1,0-4.25,6.35,6.35,0,0,1,2.15-4.6c1.9-1.84,6.47-1.43,7.9.77,1.55,2.36.28,10.35.09,11.83a11.64,11.64,0,0,1,1.87.23c1.66.47,2.17,2.12.52,3s-4.63.7-6.53.75C391.85,229.67,391.08,228.64,390.75,222.09Z" fill="#5a4f98"/><path d="M422.19,213.31c-.35-6.62-16.38-54.69-21.17-69.07-.9-2.68-2.37-4.9-5.65-5.05a133.64,133.64,0,0,0-20,.28,5.86,5.86,0,0,0-5.51,4.47c-2.28,7.65-18.9,61.06-20.43,68.25-.53,2.44,1.4,4.15,3.49,4.61,9.83,2.14,53.87,1.52,64.57.91C421.6,217.47,422.29,215.09,422.19,213.31Z" fill="#f5d44f"/><path d="M360.6,206.07c-5-.21-10.49-3.35-11.42-8.66-.44-2.48-.56-5.25,1.11-7.38,1.12-1.44,3.12-3.28,5.11-2.64,2.32.76.59,5.42.86,7.25a7.68,7.68,0,0,0,5.24,6.1C365.07,201.78,364.32,206.23,360.6,206.07Zm58-18.67c-1.08-.39-3-.33-3.38,1.1-.53,2.13.5,4.18-.75,6.21-1.38,2.24-4,3-5.85,4.72a2.35,2.35,0,0,0,1.36,4.12,11.52,11.52,0,0,0,11.31-5.66C423.26,194.4,422.85,189,418.57,187.4Z" fill="#99b42c"/><path d="M376.5,175.9l0,.5c-.15,2.65-4.85,2.65-5,0,0-.16,0-.33,0-.5-.08-1.29,1.44-2,2.52-2S376.57,174.61,376.5,175.9Zm21.23-1.72c-1.09,0-2.61.73-2.54,2,0,.17,0,.33,0,.5.15,2.65,4.85,2.65,5,0,0-.17,0-.33,0-.5C400.33,174.91,398.81,174.18,397.73,174.18Zm-8.18,4.31c-.38,2.09-1.87,4.2-4.27,3.75a3.52,3.52,0,0,1-2.23-1.49,4,4,0,0,1-.59-3.17,1.33,1.33,0,0,1,2.2-.23c.41.53.59,1.22.95,1.8l.2.3a3.42,3.42,0,0,0,.43-1.32C386.53,176.18,389.92,176.45,389.55,178.49Z" fill="#5a4f98"/><path d="M376.07,184.31c-.53,1.39-2.15,1.9-3.63,2s-4.58-.52-5-2.24c-.39-1.51.93-2.71,2.54-3a10.42,10.42,0,0,1,3.48-.06C375.12,181.22,376.67,182.75,376.07,184.31Zm28.85-2a4.26,4.26,0,0,0-3.59-1.35l-1.7,0c-1.47,0-3.26.88-3.26,2.51s1.79,2.48,3.26,2.51l1.7,0a4.32,4.32,0,0,0,3.59-1.35A1.9,1.9,0,0,0,404.92,182.34Z" fill="#e85d2e"/><path d="M399.83,140.77c-.83-3.62-7.76-15-13.91-15.91-1.42-.21-3.42.33-3.45,2.1a8.6,8.6,0,0,0,.76,3.57c-2.09-1.33-4.17-2.67-6.31-3.93-3.21-1.88-8.63-4.48-11.62-.77-1.55,1.93.09,4.38,2.83,6.74a24.84,24.84,0,0,0-6.5,0c-1.68.25-3.33,2.38-2,3.92,9.18,10.73,24.89,9.65,37.46,7.27C398.69,143.49,400.26,142.7,399.83,140.77Z" fill="#e85d2e"/><path d="M287.37,202c-3.32-2.43-7.59-3-10.72-5.52-1.82-1.46-1-4.4.84-5.47,4.86-2.78,9.73-1.27,14.41,1.28,3.85,2.11,10.08,6.55,13.23,10.39.79-.75,1.28-1.27,2-1.91,2-1.77,4.82.09,3.18,2.84a41.22,41.22,0,0,1-5.42,6.53c-2.68,2.9-6.5.57-9-1.18C292.9,206.89,290.33,204.2,287.37,202Z" fill="#5a4f98"/><path d="M316,107.81c.85-3.3-4.87-6.38-7.1-3.8-4.48,5.19-6.43,16-12.28,24-10.14,13.89-24.92,7.51-24.34,11.26.92,6,24.65,9.44,37.56-15.16A88,88,0,0,0,316,107.81Z" fill="#f5d64e"/><path d="M252.85,210.7c.17-4.11,2.38-7.8,2.36-11.83,0-2.33-2.78-3.56-4.81-2.75-5.2,2.08-7.05,6.83-8,12.08-.75,4.32-1.16,12-.11,16.82-1.09.15-1.8.2-2.75.36-2.6.44-2.92,3.84.25,4.26a40.78,40.78,0,0,0,8.48-.17c3.94-.29,4.5-4.73,4.68-7.76C253.21,218.05,252.71,214.37,252.85,210.7Z" fill="#5a4f98"/><path d="M206.85,106.11c0-3.41,6.08-4.92,7.81-2,4.12,7,4.44,16.48,7.46,25.4,1.82,5.35,4.68,11.32,11.15,13,4.38,1.15,8.52-2,9.33,1,1.21,4.39-8.13,6.31-13.55,5.25-13.89-2.72-17.4-20.81-19.36-26.81A58.37,58.37,0,0,1,206.85,106.11Z" fill="#f5d64e"/><path d="M274.71,33.87c-1.12-19.24-34.27-25.45-38.16.29-4.91,32.36,5.64,138.67,7,149.45,2.54,20.82,30,24.2,36.33,5.32C282.88,179.92,276,55.28,274.71,33.87Z" fill="#b3c537"/><path d="M253.65,41.5a.82.82,0,0,0-1.41-.2c-3.12,5.26-7.61,9.93-13.47,11.24a7.86,7.86,0,0,1-6.4-1.36c-3.32-2.13-8.41-2-10.11,2.33a4.83,4.83,0,0,0,1.46,5.23c6.94,5.65,15.46,5.29,22.77.7C252.12,55.92,255.65,48.15,253.65,41.5Z" fill="#5a4f98"/><path d="M244.22,40.45c0,.31,0,.62-.07.93a2.55,2.55,0,0,1-1.23,2,2.7,2.7,0,0,1-3.25-.09,2.62,2.62,0,0,1-1.12-2c0-.31,0-.62,0-.93,0-1.46,1.67-2.23,2.9-2.2S244.32,39,244.22,40.45Zm25.77-1a3.42,3.42,0,0,0-2.7-1.33,3.64,3.64,0,0,0-2.26.68,2.44,2.44,0,0,0-.85,1.1,2.05,2.05,0,0,0,0,1.34c.05.25.09.49.14.73A2.39,2.39,0,0,0,265,43a3.43,3.43,0,0,0,2.11.76,3.57,3.57,0,0,0,1.52-.28,2.52,2.52,0,0,0,1.43-1.4c.06-.24.11-.48.18-.72A2.29,2.29,0,0,0,270,39.43ZM259.93,55.79ZM264.44,53c-.37-1.89-3.81-1.54-4,.31a6.8,6.8,0,0,1-.33,2.29.63.63,0,0,1-.2.23h0l-.13,0a5.84,5.84,0,0,1-.51-.3,11.23,11.23,0,0,1-1.78-1.8c-.37-.43-1.4-.59-1.61.13a3.54,3.54,0,0,0,.65,3.47A4.57,4.57,0,0,0,260,58.9C263.16,59.07,265,55.77,264.44,53Zm-4.51,2.83s0,0,0,0Z" fill="#5a4f98"/><path d="M266.81,19.08c-.73-3.34-1.49-7.8-1.15-11.12.24-2.34-3.31-3.42-4.7-.65a10.89,10.89,0,0,0-.66,2.2,49.18,49.18,0,0,0-4.61-8.27C254.35-.56,250-.56,250,2.31a24.6,24.6,0,0,0,.75,6.06A36,36,0,0,0,243,1.15c-1.53-1-4.7-.14-4.68,2,.12,14.18,14.51,19.37,26.23,19.19C266.76,22.29,267.49,22.13,266.81,19.08Z" fill="#f5d64e"/><path d="M236.82,103.17l1.21.3a60.28,60.28,0,0,0,17.58.91,107.27,107.27,0,0,0,15.74-2.32c1.78-.4,4.25-1,6.82-1.81-.31-6.63-.62-13.16-.94-19.42-1.89.86-3.76,1.87-5.75,2.77-3.69,1.66-8.07,2.22-12.08,2.57a58.49,58.49,0,0,1-13.55-.3c-3.4-.5-6.66-1.68-10-2.31C236.09,90,236.43,96.56,236.82,103.17Z" fill="#5a4f98"/><path d="M280.6,171.89c0-3-.07-6.32-.14-9.89-.9.45-1.72.86-2.39,1.14-4.92,2.05-10.68,3-16,3.51a55.92,55.92,0,0,1-16.78-.9,22.32,22.32,0,0,1-3.76-1.35c.34,3.6.65,6.82.92,9.57.83.3,1.49.51,1.87.6,5.66,1.49,12,1.41,17.75,1a80.87,80.87,0,0,0,16.76-3.08C279.44,172.28,280,172.08,280.6,171.89Z" fill="#f5d64e"/><path d="M258.92,116.32a48.62,48.62,0,0,1-15.27-.56,34.44,34.44,0,0,1-6.18-2.18c.18,2.86.38,5.71.58,8.52.88.29,1.7.54,2.42.75a55.43,55.43,0,0,0,17.42,1.83A64.94,64.94,0,0,0,274.51,122a39.93,39.93,0,0,0,4.55-1.68c-.13-3.22-.27-6.46-.42-9.7a29.18,29.18,0,0,1-5.83,2.8A65.21,65.21,0,0,1,258.92,116.32Z" fill="#f5d64e"/><path d="M259.44,155.42a101.65,101.65,0,0,0,15.9-2.45c1.42-.34,3.1-.71,4.87-1.16-.18-6.28-.41-13-.68-20l-.57.28a52,52,0,0,1-13.81,4.33,54.74,54.74,0,0,1-14.88.5,41,41,0,0,1-6.74-1.44c-1.29-.38-3-.72-4.56-1.06.57,7.17,1.14,14,1.68,20.1l.7.17C247.07,156.08,253.6,155.89,259.44,155.42Z" fill="#5a4f98"/><path d="M250.37,104.08c0,.55-1,.55-1.06,0a110,110,0,0,1-.62-17c0-.48.87-.48.91,0C250.09,92.81,250.76,98.32,250.37,104.08Zm7.1-17.26c0-.48-.87-.48-.9,0a108.61,108.61,0,0,0,.62,17c.05.56,1,.56,1.05,0C258.64,98.09,258,92.58,257.47,86.82Zm7.42-.7c0-.48-.88-.48-.91,0a107.58,107.58,0,0,0,.63,17c0,.55,1,.56,1,0C266.05,97.39,265.38,91.88,264.89,86.12Zm7.41-1.85c0-.48-.87-.48-.9,0a108.78,108.78,0,0,0,.62,17c.05.55,1,.55,1.05,0C273.47,95.54,272.79,90,272.3,84.27Zm-30.58,1.64a.46.46,0,0,0-.91,0,121.6,121.6,0,0,0,.63,17.91.53.53,0,0,0,1.05,0C242.89,97.76,242.21,92,241.72,85.91Z" fill="#fff"/><path d="M77.9,99.83c-9.38-7.44-23.22-9.45-34.5-5.8-12.39,4-19,13.81-20.71,26.37a38.92,38.92,0,0,0,2,18.81,23.19,23.19,0,0,0,2.25,4.73c2.48,8.25,18.11,9.7,25.16,10.09,10.8.6,23.29-.68,32.31-7.15a5,5,0,0,0,2.14-4.19,5.87,5.87,0,0,0,3.42-5.36C90,123.16,90,109.39,77.9,99.83Z" fill="#f5d44f"/><path d="M66.45,211.69c-.13-3.81-2.49-7.2-2.41-10.94,0-2.16,3.08-3.35,5.27-2.63,5.65,1.84,7.6,6.22,8.53,11.08.76,4,1.1,11.08-.11,15.61,1.18.12,2,.16,3,.29,2.83.37,3.14,3.51-.33,4a52,52,0,0,1-9.25,0c-4.28-.2-4.83-4.31-5-7.12C66,218.52,66.55,215.09,66.45,211.69Z" fill="#f5d44f"/><path d="M46.62,211.93c.25-3.82,2.72-7.28,2.77-11,0-2.17-3-3.27-5.19-2.49-5.71,2-7.81,6.43-8.9,11.32-.89,4-1.46,11.12-.4,15.61-1.18.15-2,.22-3,.38-2.84.44-3.25,3.6.2,3.95a53,53,0,0,0,9.25-.28c4.3-.32,5-4.44,5.24-7.27C46.89,218.75,46.41,215.33,46.62,211.93Z" fill="#f5d44f"/><path d="M94,127.33c-1.07-5.75-2.48-8-7.94-4.87a22.26,22.26,0,0,0-10.17,13c-1.12-5.37-3.62-9.38-7.83-9.78-4.74-.46-9.16,5.28-9.48,11a21.27,21.27,0,0,0-12.73-10.79c-7.06-2-11.35,1.93-13.41,7.38C29.72,128,20.29,120,18,124.4c-3.42,6.65-2.13,40.73-.43,49.48,3.49,18,9,32.87,41.32,33.4,30.05.5,38.09-16.4,37.56-37.56C96.14,156.85,96.48,140.59,94,127.33Z" fill="#e85d2e"/><path d="M36.63,165.72c-4.1-.66-7.73,1.89-11.21,3.72a63.72,63.72,0,0,1-11.36,5.14c-3,.89-4.34-1-4.61-3.23-.45-3.59.82-6.17,2.68-9.26,2-3.35,5.48-5.12,7.92-8s-1.22-5.1-3.74-4.4A22.85,22.85,0,0,0,.08,169.21C-.46,175.59,1.54,181.1,8,182.92c5.63,1.6,12.19-1.36,17.15-3.69,2.58-1.21,5.08-2.58,7.6-3.9,2.14-1.12,5.34-2,6.73-4.09C41,168.92,39.22,166.14,36.63,165.72Z" fill="#f5d44f"/><path d="M95.34,147.18c-1.88.11-3.46,3.29-1.75,4.5,4.18,3,20.66,12.16,9.86,16.72-3.44,1.45-9.19.36-12.37-.86-3.7-1.43-7.17-4.58-11.07-5.24-2.14-.37-5.79.95-4.76,3.8,1.89,5.2,10.94,7.79,15.65,9.34,6.53,2.14,14.4,2.31,20-2.19C123.22,163.31,106.37,146.55,95.34,147.18Z" fill="#f5d44f"/><path d="M41.34,109.49c0,.22,0,.45,0,.68-.21,3.63-6.65,3.63-6.86,0,0-.23,0-.46,0-.68-.1-1.78,2-2.78,3.47-2.78S41.44,107.71,41.34,109.49Zm34-3.29c-1.48,0-3.56,1-3.47,2.77,0,.22,0,.45,0,.68.21,3.64,6.66,3.64,6.86,0,0-.23,0-.46,0-.68C78.93,107.19,76.85,106.2,75.36,106.2Zm-13,5c-.52,2.87-2.56,5.75-5.86,5.13a4.79,4.79,0,0,1-3.05-2,5.43,5.43,0,0,1-.81-4.34,1.82,1.82,0,0,1,3-.32c.56.73.81,1.68,1.31,2.47l.27.42a5.06,5.06,0,0,0,.59-1.82C58.18,108,62.82,108.39,62.31,111.19Z" fill="#5a4f98"/><path d="M67.16,147.73c-4.17-2-6.91,3.72-8.5,8.46-1.24-3.86-4.25-9.81-7.76-7.37-2.2,1.53-1.31,5.28-.34,7.23a32.51,32.51,0,0,0,7.12,9.32,2.15,2.15,0,0,0,3.27-.46C62.58,162.08,73,150.53,67.16,147.73Z" fill="#5a4f98"/></g></g></svg>