<svg xmlns="http://www.w3.org/2000/svg" viewBox="0 0 305.72 229.81">
    <path d="M35.25,227.28a37.64,37.64,0,0,0,.65-8.79,2.7,2.7,0,0,0-2.6-2.34c-1.64-1.6-5.46-1.16-5.22,1.39.3,3.24.55,6.5.91,9.74.31,2.76,5.63,3.66,6.15.66,0-.22.08-.44.11-.66Z" fill="#b3c537"/><path d="M14.44,205.7c-.92,1.75-2.67,4.3-5,3.36-2.89-1.18-2-5-4.79-6.39a3.26,3.26,0,0,0-3.32.34c-2.48,1.85-1,4.89.28,7.05a10.46,10.46,0,0,0,6.13,4.33c5.24,1.6,10.08-2.2,11.3-7.13C19.65,204.83,15.52,203.66,14.44,205.7Z" fill="#b3c537"/><path d="M48.3,227.28a38.18,38.18,0,0,1-.64-8.79,2.69,2.69,0,0,1,2.6-2.34c1.63-1.6,5.45-1.16,5.22,1.39-.3,3.24-.56,6.5-.91,9.74-.31,2.76-5.64,3.66-6.16.66,0-.22-.07-.44-.11-.66Z" fill="#b3c537"/><path d="M69.12,205.7c.92,1.75,2.66,4.3,5,3.36,2.9-1.18,2-5,4.8-6.39a3.26,3.26,0,0,1,3.32.34c2.47,1.85,1,4.89-.29,7.05a10.41,10.41,0,0,1-6.12,4.33c-5.25,1.6-10.08-2.2-11.3-7.13C63.91,204.83,68,203.66,69.12,205.7Z" fill="#b3c537"/><path d="M70.34,171.63c-8.89-19.23-20.55-39.8-24.27-45.92-3.16-5.17-4-4.48-6.88.47-6.1,10.38-25.47,42.71-27.94,53-2.08,8.72-2.13,17.83,2.21,25.67a33.09,33.09,0,0,0,18.47,15.3c16.19,5.41,33-2.81,39.53-19C75.37,191.55,75.37,182.5,70.34,171.63Z" fill="#e85d2e"/><path d="M76.77,192.42c-.83-5.11-6.14-6.29-10.54-6.41-2.16-.06-38.38-.6-46.55-.38-4.34.12-10.36-.65-12.26,3.78-2.16,5.05.3,11.91,5.53,12.9,4.16.79,6.72-1.59,7.85-4.77.86,2.5,2.34,4.49,5.64,4.71,2.55.17,4.45-1.84,5.48-3.93.23-.48.44-1,.63-1.45,1.09,3.12,3.3,5.76,6.82,5.94,2.72.14,4.82-1.54,6.26-3.69a21.67,21.67,0,0,0,1.23-2.1c1.23,3.5,4.24,6.55,7.79,6.78s5.93-2,7.47-4.89A9,9,0,0,0,68,203.43C74,204.65,77.58,197.39,76.77,192.42Z" fill="#f5d64e"/><path d="M29.05,173.86a2.27,2.27,0,0,1-2.39-.14l.09.07-.08-.06-.05,0a.18.18,0,0,0-.07,0l-.14-.12-.11-.08.08.06a2.11,2.11,0,0,1-.84-1.67A2.19,2.19,0,0,1,26.67,170,2.31,2.31,0,0,1,30,171.26,2.22,2.22,0,0,1,29.05,173.86Zm28.85,0a2.27,2.27,0,0,1-2.39-.14l.09.07-.08-.06-.05,0-.07,0-.15-.12-.1-.08.08.06a2.11,2.11,0,0,1-.84-1.67A2.19,2.19,0,0,1,55.52,170a2.31,2.31,0,0,1,3.36,1.31A2.22,2.22,0,0,1,57.9,173.86Zm-11.39.26c-.42,2.06-1.95,4.22-4.32,4-2.57-.23-3.61-2.56-3.76-4.86-.11-1.63,2.87-1.59,3.07,0a4,4,0,0,0,.58,1.84,3.33,3.33,0,0,0,.25.28,1.38,1.38,0,0,0,.19-.25,3.75,3.75,0,0,0,.49-1.42,1.56,1.56,0,0,1,1.31-1.37,2.29,2.29,0,0,1,1.37.14A1.35,1.35,0,0,1,46.51,174.12Z" fill="#fff"/><path d="M44.26,138.62a1.3,1.3,0,0,1-.68.8,1.55,1.55,0,0,1-2.19-.8s0,0,0-.05c-.43-1.47,1.65-2.13,2.47-1.28l0,.05A1.24,1.24,0,0,1,44.26,138.62Zm-.38-8.49,0,0c-.82-.85-2.9-.2-2.47,1.28,0,0,0,0,0,0a1.55,1.55,0,0,0,2.19.79,1.3,1.3,0,0,0,.68-.79A1.24,1.24,0,0,0,43.88,130.13Z" fill="#fff"/><path d="M263.75,222.09a26.22,26.22,0,0,0,0-4.25,6.34,6.34,0,0,0-2.14-4.6c-1.9-1.84-6.47-1.43-7.91.77-1.54,2.36-.27,10.35-.09,11.83a11.65,11.65,0,0,0-1.86.23c-1.66.47-2.17,2.12-.52,3s4.62.71,6.52.75C262.65,229.67,263.42,228.64,263.75,222.09Z" fill="#5a4f98"/><path d="M274,222.09a27.41,27.41,0,0,1,0-4.25,6.35,6.35,0,0,1,2.15-4.6c1.9-1.84,6.47-1.43,7.9.77,1.55,2.36.28,10.35.09,11.83a11.79,11.79,0,0,1,1.87.23c1.66.47,2.17,2.12.52,3s-4.63.71-6.53.75C275.15,229.67,274.38,228.64,274,222.09Z" fill="#5a4f98"/><path d="M305.49,213.31c-.36-6.62-16.38-54.69-21.17-69.07-.9-2.68-2.37-4.89-5.65-5.05a133.64,133.64,0,0,0-20,.28,5.86,5.86,0,0,0-5.51,4.47c-2.28,7.65-18.9,61.06-20.43,68.25-.53,2.44,1.39,4.15,3.49,4.61,9.83,2.14,53.87,1.52,64.57.91C304.9,217.47,305.59,215.09,305.49,213.31Z" fill="#f5d44f"/><path d="M243.9,206.07c-5-.21-10.49-3.35-11.42-8.66-.44-2.48-.56-5.25,1.11-7.38,1.12-1.44,3.12-3.28,5.11-2.63,2.32.75.59,5.41.86,7.25a7.66,7.66,0,0,0,5.24,6.09C248.37,201.78,247.62,206.23,243.9,206.07Zm58-18.67c-1.07-.39-3-.33-3.37,1.1-.53,2.13.5,4.18-.75,6.21-1.38,2.24-4,3-5.85,4.72a2.35,2.35,0,0,0,1.36,4.12,11.52,11.52,0,0,0,11.31-5.65C306.56,194.4,306.15,189,301.86,187.4Z" fill="#99b42c"/><path d="M259.8,175.9l0,.5c-.15,2.65-4.85,2.65-5,0l0-.5c-.07-1.29,1.44-2,2.53-2S259.87,174.61,259.8,175.9ZM281,174.18c-1.08,0-2.6.73-2.53,2l0,.5c.15,2.65,4.85,2.65,5,0l0-.5C283.63,174.91,282.11,174.18,281,174.18Zm-8.17,4.31c-.38,2.09-1.87,4.2-4.27,3.75a3.5,3.5,0,0,1-2.23-1.49,4,4,0,0,1-.59-3.17,1.33,1.33,0,0,1,2.2-.23c.41.53.59,1.22,1,1.8l.2.3a3.8,3.8,0,0,0,.43-1.32C269.83,176.18,273.22,176.45,272.85,178.49Z" fill="#5a4f98"/><path d="M259.37,184.31c-.53,1.39-2.15,1.9-3.63,2s-4.59-.52-5-2.24c-.39-1.51.93-2.71,2.54-3a10.42,10.42,0,0,1,3.48-.06C258.42,181.22,260,182.75,259.37,184.31Zm28.85-2a4.26,4.26,0,0,0-3.59-1.35l-1.7,0c-1.47,0-3.26.88-3.26,2.51s1.79,2.48,3.26,2.51l1.7,0a4.29,4.29,0,0,0,3.59-1.35A1.92,1.92,0,0,0,288.22,182.34Z" fill="#e85d2e"/><path d="M283.13,140.77c-.83-3.62-7.76-15-13.91-15.91-1.43-.21-3.42.33-3.45,2.1a8.75,8.75,0,0,0,.75,3.57c-2.09-1.33-4.16-2.67-6.3-3.93-3.22-1.88-8.64-4.48-11.62-.77-1.55,1.93.09,4.38,2.82,6.74a24.84,24.84,0,0,0-6.5,0c-1.68.25-3.32,2.38-2,3.93,9.18,10.73,24.89,9.64,37.45,7.26C282,143.49,283.56,142.7,283.13,140.77Z" fill="#e85d2e"/><path d="M170.67,202c-3.32-2.43-7.59-3-10.72-5.52-1.82-1.46-1.06-4.4.84-5.47,4.86-2.78,9.73-1.27,14.41,1.28,3.85,2.11,10.08,6.55,13.23,10.4.78-.76,1.28-1.28,2-1.92,2-1.77,4.82.09,3.18,2.84a40.75,40.75,0,0,1-5.43,6.53c-2.67,2.9-6.49.57-9-1.18C176.19,206.89,173.62,204.2,170.67,202Z" fill="#5a4f98"/><path d="M199.32,107.81c.85-3.3-4.88-6.38-7.1-3.8-4.48,5.19-6.43,16-12.28,24-10.14,13.89-24.92,7.51-24.34,11.26.92,6,24.65,9.44,37.56-15.16A88,88,0,0,0,199.32,107.81Z" fill="#f5d64e"/><path d="M136.15,210.7c.17-4.11,2.38-7.8,2.36-11.83,0-2.33-2.78-3.56-4.81-2.75-5.2,2.08-7,6.83-8,12.08-.75,4.32-1.15,12-.1,16.82-1.09.15-1.8.21-2.75.37-2.6.43-2.93,3.83.25,4.25a40.79,40.79,0,0,0,8.48-.17c3.94-.29,4.5-4.73,4.68-7.76C136.51,218.06,136,214.37,136.15,210.7Z" fill="#5a4f98"/><path d="M90.15,106.11c0-3.41,6.08-4.92,7.8-2,4.13,7,4.45,16.48,7.47,25.4,1.82,5.35,4.68,11.32,11.15,13,4.38,1.15,8.52-2,9.33,1,1.21,4.39-8.13,6.31-13.56,5.25C98.46,146.05,95,128,93,122A58.37,58.37,0,0,1,90.15,106.11Z" fill="#f5d64e"/><path d="M158,33.87c-1.12-19.24-34.27-25.45-38.17.29-4.9,32.36,5.65,138.67,7,149.45,2.54,20.82,30,24.2,36.34,5.32C166.17,179.92,159.26,55.28,158,33.87Z" fill="#b3c537"/><path d="M137,41.5a.82.82,0,0,0-1.41-.2c-3.12,5.26-7.61,9.93-13.47,11.24a7.86,7.86,0,0,1-6.4-1.36c-3.32-2.13-8.41-2-10.11,2.33A4.83,4.83,0,0,0,107,58.74c6.94,5.65,15.46,5.29,22.77.7C135.41,55.92,139,48.15,137,41.5Z" fill="#5a4f98"/><path d="M127.52,40.45c0,.31,0,.62-.07.93a2.57,2.57,0,0,1-1.23,2,2.7,2.7,0,0,1-3.25-.09,2.59,2.59,0,0,1-1.12-2c0-.31,0-.62,0-.93,0-1.46,1.66-2.23,2.9-2.2S127.62,39,127.52,40.45Zm25.77-1a3.42,3.42,0,0,0-2.7-1.33,3.68,3.68,0,0,0-2.27.68,2.48,2.48,0,0,0-.84,1.1,2.05,2.05,0,0,0,0,1.34c.05.25.09.49.14.73a2.39,2.39,0,0,0,.74,1.09,3.43,3.43,0,0,0,2.11.76,3.6,3.6,0,0,0,1.52-.28,2.55,2.55,0,0,0,1.43-1.4c.05-.24.11-.48.17-.72A2.25,2.25,0,0,0,153.29,39.43ZM143.23,55.79Zm4.5-2.83c-.36-1.89-3.8-1.54-4,.31a6.55,6.55,0,0,1-.32,2.29.74.74,0,0,1-.2.23h0l-.14,0a5.3,5.3,0,0,1-.5-.3,11.29,11.29,0,0,1-1.79-1.8c-.37-.43-1.39-.59-1.6.13a3.54,3.54,0,0,0,.64,3.47,4.6,4.6,0,0,0,3.45,1.65C146.46,59.07,148.29,55.77,147.73,53Zm-4.5,2.83s0,0,0,0Z" fill="#5a4f98"/><path d="M150.11,19.08c-.73-3.34-1.49-7.8-1.15-11.12.24-2.34-3.32-3.42-4.7-.65a10.29,10.29,0,0,0-.66,2.2A49.18,49.18,0,0,0,139,1.24c-1.35-1.8-5.72-1.8-5.74,1.07A25.09,25.09,0,0,0,134,8.37a36.2,36.2,0,0,0-7.67-7.22c-1.53-1-4.7-.14-4.68,2,.12,14.18,14.5,19.37,26.23,19.19C150.06,22.29,150.79,22.13,150.11,19.08Z" fill="#f5d64e"/><path d="M120.11,103.17l1.22.3a60.28,60.28,0,0,0,17.58.91,107.27,107.27,0,0,0,15.74-2.32c1.78-.4,4.24-1,6.82-1.81-.31-6.63-.63-13.16-.94-19.42-1.89.86-3.76,1.87-5.75,2.77-3.69,1.66-8.07,2.22-12.08,2.57a58.49,58.49,0,0,1-13.55-.3c-3.4-.5-6.66-1.68-10-2.31C119.38,90,119.72,96.56,120.11,103.17Z" fill="#5a4f98"/><path d="M163.89,171.89c0-3-.06-6.32-.13-9.89-.9.45-1.72.86-2.39,1.14-4.92,2.05-10.68,3-16,3.51a55.9,55.9,0,0,1-16.78-.9,22,22,0,0,1-3.76-1.35c.34,3.6.65,6.82.92,9.57.83.3,1.49.51,1.86.6,5.67,1.49,12,1.41,17.76,1a80.87,80.87,0,0,0,16.76-3.08C162.74,172.28,163.32,172.08,163.89,171.89Z" fill="#f5d64e"/><path d="M142.22,116.32a48.62,48.62,0,0,1-15.27-.56,34.44,34.44,0,0,1-6.18-2.18c.18,2.86.38,5.71.58,8.52.88.29,1.7.54,2.42.75a55.4,55.4,0,0,0,17.42,1.83A64.94,64.94,0,0,0,157.81,122a39.93,39.93,0,0,0,4.55-1.68c-.13-3.22-.27-6.46-.42-9.7a29.18,29.18,0,0,1-5.83,2.8A65.21,65.21,0,0,1,142.22,116.32Z" fill="#f5d64e"/><path d="M142.73,155.42A101.78,101.78,0,0,0,158.64,153c1.41-.34,3.1-.71,4.86-1.16-.18-6.28-.41-13-.68-20l-.57.28a51.79,51.79,0,0,1-13.8,4.33,54.74,54.74,0,0,1-14.88.5,41,41,0,0,1-6.74-1.44c-1.29-.38-3-.72-4.56-1.06.57,7.17,1.14,14,1.68,20.1l.69.17C130.37,156.08,136.9,155.89,142.73,155.42Z" fill="#5a4f98"/><path d="M133.66,104.08c0,.55-1,.55-1,0a108.78,108.78,0,0,1-.62-17c0-.48.87-.48.91,0C133.39,92.81,134.06,98.32,133.66,104.08Zm7.11-17.26c0-.48-.87-.48-.9,0a108.61,108.61,0,0,0,.62,17c0,.56,1,.56,1,0C141.94,98.09,141.26,92.58,140.77,86.82Zm7.42-.7c0-.48-.88-.48-.91,0a107.58,107.58,0,0,0,.63,17c0,.55,1,.56,1,0C149.35,97.39,148.68,91.88,148.19,86.12Zm7.41-1.85c0-.48-.87-.48-.9,0a107.58,107.58,0,0,0,.62,17c.05.55,1,.55,1.05,0C156.77,95.54,156.09,90,155.6,84.27ZM125,85.91a.46.46,0,0,0-.91,0,120.24,120.24,0,0,0,.63,17.91.53.53,0,0,0,1.05,0C126.18,97.76,125.51,92,125,85.91Z" fill="#fff"/>
</svg>