<svg xmlns="http://www.w3.org/2000/svg" viewBox="0 0 213.1 136.54"><title>Ресурс 1</title><g id="Слой_2" data-name="Слой 2"><g id="Слой_1-2" data-name="Слой 1"><path d="M133.67,82.57c1.5-3.7-4.74-7.23-7.21-4.19-5.12,6.31-11.44,14.11-13.23,22.17-.9,4.07,5.54,5.74,8,3.56,2.94-2.62,4.78-6.27,6.72-9.64A97.07,97.07,0,0,0,133.67,82.57Z" fill="#f5d44f"/><path d="M169.31,82.57c-1.5-3.7,4.74-7.23,7.21-4.19,5.11,6.31,11.44,14.11,13.23,22.17.9,4.07-5.54,5.74-8,3.56-2.94-2.62-4.78-6.27-6.72-9.64A94.24,94.24,0,0,1,169.31,82.57Z" fill="#f5d44f"/><path d="M148.28,119.45c-.32-2.55-8.14-2.93-9.09-2.59-.09,0-1,.78-1.12,1.29-.64,4.37,1.28,12.59,2.81,16.63,1,2.56,5.41,2.31,6-.65C147.58,130.63,148.77,123.28,148.28,119.45Z" fill="#f5d44f"/><path d="M155.54,119.45c.32-2.55,8.14-2.93,9.09-2.59.09,0,1,.78,1.12,1.29.63,4.37-1.28,12.59-2.81,16.63-1,2.56-5.41,2.31-6-.65C156.24,130.63,155.05,123.28,155.54,119.45Z" fill="#f5d44f"/><path d="M173.26,76.35c-.51-2-1-2.43-2.65-3.67-2.21-1.66-5.68-1.09-8.29-1.37-9-1-18.17,0-27.08,1.35a3.35,3.35,0,0,0-.89.24,3.07,3.07,0,0,0-3.51.9c-2,3-2.32,7.11-2.67,10.6a104.19,104.19,0,0,0-.54,13.68c.22,7,.62,16.64,7.38,20.07,5.33,2.7,12.77,2,19,1.84,9.57-.33,14.9-.6,19.14-6,2.66-3.37,2.06-9.54,2-14.42C175,89.11,175,83,173.26,76.35Z" fill="#5a4f98"/><path d="M166.2,78.27c.23-1.16-1.5-1-1.66.13-1,7.68-9.26,10.31-12.58,10.13-6.51-.34-12.06-3.49-14.33-10.34-.19-.61-1.37-.33-1.23.42,1.43,7.69,9.21,11.66,15.79,11.56A14.76,14.76,0,0,0,166.2,78.27Z" fill="#fff"/><path d="M146.38,85.51a2.72,2.72,0,0,0-1.62-1.34,3.51,3.51,0,0,0-2.37.09,3.26,3.26,0,0,0-1.63,1.46,2.62,2.62,0,0,0-.33,1.63,2.72,2.72,0,0,0,1.28,1.88,3.23,3.23,0,0,0,3,.21,3.12,3.12,0,0,0,1.2-.84,2.47,2.47,0,0,0,.6-1.22v-.06A2.32,2.32,0,0,0,146.38,85.51Z" fill="#e85d2e"/><path d="M153.82,86.68a2.5,2.5,0,0,0-.78-.48,4.37,4.37,0,0,0-.68-.25,3.18,3.18,0,0,0-2,.22,2.92,2.92,0,0,0-1.74,3.6,3.28,3.28,0,0,0,6.06,0A2.87,2.87,0,0,0,153.82,86.68Z" fill="#e85d2e"/><path d="M161,84.52a3.5,3.5,0,0,0-1.67-.41A2.77,2.77,0,0,0,156.65,86a2.47,2.47,0,0,0,0,1.59A3.1,3.1,0,0,0,161,89.13a2.64,2.64,0,0,0,1.48-2.3A2.72,2.72,0,0,0,161,84.52Z" fill="#e85d2e"/><path d="M139.28,21.78c-45.64.84-51.47,2.5-51.47,31.06,0,22.67,8.71,26.91,31.07,27.08,83.51.63,94.92,2.35,94.19-24.56C212.1,19.26,206.27,20.54,139.28,21.78Z" fill="#99b42c"/><path d="M173,1.74c-1.35-2.08-4.66-1.65-6.09,0a75.48,75.48,0,0,0-9,13.44c-1.25-5.27-2.64-10.52-6.56-14.37a3.8,3.8,0,0,0-5.24.54c-2.59,4-4,8.38-5.5,12.78C138.47,8.73,136,3.64,130.5.56,129-.26,126.52.34,126,2c-2.21,6.73-1.8,13.75-1.5,20.7s6.51,6.54,25.46,7c6,.14,14.15,0,20-1.4,6.06-1.4,6-7.58,6.16-12.31S175.57,5.71,173,1.74Z" fill="#f5d44f"/><path d="M122.74,46.49a5,5,0,0,1-.27,1.3,3.4,3.4,0,0,1-2,1.9,5.43,5.43,0,0,1-2.15.43,5.06,5.06,0,0,1-3-.93,3.12,3.12,0,0,1-1.1-1.4,4.8,4.8,0,0,1-.26-1.36,4.77,4.77,0,0,1,.31-1.37,6.37,6.37,0,0,1,.63-1.25,5.49,5.49,0,0,1,.89-.83,4.39,4.39,0,0,1,5.08,0,4.82,4.82,0,0,1,.92.88,5.39,5.39,0,0,1,.6,1.2A5.1,5.1,0,0,1,122.74,46.49Zm67.39-.93a3,3,0,0,0-.69-1.45,4.73,4.73,0,0,0-6.78,0,4,4,0,0,0-.82,2,3.61,3.61,0,0,0,.75,3.35,4.77,4.77,0,0,0,6.92,0,3.82,3.82,0,0,0,.91-2.48A7.31,7.31,0,0,0,190.13,45.56ZM158.91,50c-.19-2.53-4.64-2.32-4.5.23.19,3.73-.53,6.65-2.8,6.76-2.91.15-3.32-5.76-3.49-7.1-.24-1.75-3.27-1.63-3.41.35-.3,4.22,1.35,9.33,6.34,10C156.92,61.13,159.28,54.77,158.91,50Z" fill="#5a4f98"/><path d="M173,100.89a8.16,8.16,0,0,0-2.6,2.08c-.21.25-.41.51-.62.77a16.61,16.61,0,0,1-1.24-1.13c-1.5-1.42-4.08-3.1-6.26-2.47-1.91.56-2.83,1.84-4.18,3.2-2.66,2.66-4.6.22-6.85-1.49-4.45-3.37-8.64-1.6-11.85,2.32-1,1.2-5.48-3-6.82-3.31-2.06-.46-4.29.34-4.87,2.49-.19.72.68.92,1.18.74,3.74-1.35,4,2.24,6.63,3.78a5.92,5.92,0,0,0,6.46-.26c2.26-1.79,3.32-4.77,6.33-2.52,1.82,1.37,3.33,2.69,5.54,3.39s4.88-.21,6.62-1.49a15.14,15.14,0,0,0,2.3-2.16c1-1.15.91-.63,2.36.55s3.91,2.54,5.91,1.59c1.62-.77,2.93-3.08,3.92-4.49C175.85,101.26,174,100.43,173,100.89Z" fill="#fff"/><path d="M31.55,128.82a27.41,27.41,0,0,0,0-4.25A6.38,6.38,0,0,0,29.4,120c-1.9-1.84-6.47-1.42-7.9.78-1.55,2.36-.28,10.35-.09,11.83a10.73,10.73,0,0,0-1.87.23c-1.66.47-2.17,2.12-.52,3s4.63.7,6.53.75C30.45,136.4,31.22,135.36,31.55,128.82Z" fill="#5a4f98"/><path d="M41.85,128.82a27.41,27.41,0,0,1,0-4.25A6.38,6.38,0,0,1,44,120c1.9-1.84,6.47-1.42,7.91.78,1.54,2.36.27,10.35.08,11.83a10.6,10.6,0,0,1,1.87.23c1.66.47,2.17,2.12.52,3s-4.63.7-6.53.75C43,136.4,42.18,135.36,41.85,128.82Z" fill="#5a4f98"/><path d="M73.3,120C72.94,113.42,56.91,65.35,52.12,51c-.89-2.67-2.37-4.89-5.64-5.05a135,135,0,0,0-20,.28A5.86,5.86,0,0,0,21,50.66C18.66,58.32,2,111.73.51,118.92c-.53,2.44,1.4,4.15,3.49,4.6,9.83,2.14,53.87,1.53,64.57.91C72.7,124.2,73.39,121.82,73.3,120Z" fill="#f5d44f"/><path d="M11.7,112.8c-5-.21-10.49-3.35-11.42-8.66-.44-2.49-.56-5.26,1.11-7.39,1.12-1.43,3.12-3.28,5.11-2.63,2.32.75.59,5.42.86,7.25a7.69,7.69,0,0,0,5.24,6.1C16.17,108.5,15.42,113,11.7,112.8Zm58-18.68c-1.08-.39-3-.32-3.38,1.1-.53,2.14.5,4.19-.75,6.21-1.38,2.25-4,3-5.85,4.73a2.35,2.35,0,0,0,1.36,4.12,11.51,11.51,0,0,0,11.31-5.66C74.37,101.13,74,95.69,69.67,94.12Z" fill="#99b42c"/><path d="M27.6,82.63l0,.5c-.15,2.65-4.85,2.65-5,0,0-.17,0-.33,0-.5-.08-1.29,1.44-2,2.52-2S27.67,81.34,27.6,82.63Zm21.23-1.72c-1.09,0-2.61.72-2.53,2,0,.16,0,.33,0,.49.16,2.66,4.85,2.66,5,0,0-.16,0-.33,0-.49C51.43,81.63,49.91,80.91,48.83,80.91Zm-8.18,4.31c-.38,2.09-1.87,4.19-4.27,3.74a3.44,3.44,0,0,1-2.22-1.49,4,4,0,0,1-.6-3.16,1.33,1.33,0,0,1,2.2-.23c.41.53.59,1.22,1,1.79.07.12.14.22.2.31a3.42,3.42,0,0,0,.43-1.32C37.64,82.91,41,83.18,40.65,85.22Z" fill="#5a4f98"/><path d="M27.17,91c-.53,1.38-2.15,1.9-3.63,2s-4.58-.53-5-2.24c-.39-1.52.93-2.71,2.54-3a10.7,10.7,0,0,1,3.48-.07C26.22,87.94,27.77,89.47,27.17,91Zm28.85-2a4.25,4.25,0,0,0-3.59-1.34l-1.7,0c-1.47,0-3.25.88-3.25,2.5s1.78,2.48,3.25,2.51l1.7,0A4.28,4.28,0,0,0,56,91.45,1.91,1.91,0,0,0,56,89.06Z" fill="#e85d2e"/><path d="M50.93,47.5c-.83-3.62-7.76-15-13.91-15.92-1.42-.2-3.42.34-3.45,2.11a8.52,8.52,0,0,0,.76,3.56c-2.09-1.33-4.17-2.67-6.31-3.92-3.21-1.88-8.63-4.48-11.62-.77-1.55,1.93.09,4.38,2.83,6.74a24,24,0,0,0-6.5,0c-1.68.25-3.33,2.37-2,3.92C19.91,54,35.62,52.89,48.19,50.51,49.8,50.21,51.37,49.42,50.93,47.5Z" fill="#e85d2e"/></g></g></svg>