<svg viewBox="0 0 329.27 312.68">
  <defs>
    <style>
      .cls-1{fill:#fff}
    </style>
  </defs>
  <g id="Слой_2" data-name="Слой 2">
    <g id="Слой_1-2" data-name="Слой 1">
      <path class="cls-1" d="M58.37 108.21l5.48-6.57a1.16 1.16 0 00-1.78-1.49l-5.49 6.56a1.17 1.17 0 001.79 1.5zM75.61 91.21c1.34-1.59 2.66-3.18 4-4.77a1.17 1.17 0 00-1.79-1.5l-4 4.77a1.16 1.16 0 001.78 1.5zM65 114.78l3.49-4.17a1.17 1.17 0 00-1.79-1.5c-1.16 1.4-2.33 2.79-3.49 4.18a1.17 1.17 0 001.79 1.49zM100.69 93.93l3-3.57a1.17 1.17 0 00-1.79-1.5q-1.5 1.78-3 3.58a1.16 1.16 0 001.78 1.49zM75 127.14l3.45-4.14a1.17 1.17 0 00-1.79-1.5l-3.48 4.18a1.17 1.17 0 001.82 1.46zM85.16 99.19l-4 4.77a1.17 1.17 0 001.84 1.49l4-4.77a1.17 1.17 0 00-1.79-1.49zM49.12 134.42a1.17 1.17 0 001.5-1.79 1.17 1.17 0 00-1.5 1.79zM67.88 140.47l-6 7.16a1.16 1.16 0 001.78 1.49l6-7.15a1.17 1.17 0 00-1.79-1.5zM41.39 146.7l-4 4.77a1.17 1.17 0 001.79 1.5l4-4.77a1.17 1.17 0 00-1.79-1.5zM60.63 127.32c-.5.59-1 1.19-1.49 1.79a1.16 1.16 0 001.78 1.49l1.5-1.78a1.17 1.17 0 00-1.79-1.5zM30.17 132.25l-2.5 3a1.17 1.17 0 001.79 1.49c.83-1 1.66-2 2.5-3a1.17 1.17 0 00-1.79-1.5zM48.84 156l-4 4.77a1.16 1.16 0 001.78 1.5l4-4.77a1.17 1.17 0 00-1.79-1.5zM47.8 119.64l-2 2.38a1.17 1.17 0 001.79 1.5l2-2.39a1.17 1.17 0 00-1.79-1.49zM52.65 142.93l-2.5 3a1.17 1.17 0 001.79 1.49l2.5-3a1.17 1.17 0 00-1.79-1.5zM102.27 74.48a1.17 1.17 0 001.49-1.79 1.17 1.17 0 00-1.49 1.79zM62.79 77.45l-6 7.16a1.17 1.17 0 001.79 1.5l6-7.16a1.17 1.17 0 00-1.79-1.5zM99.47 111.15l-4 4.77a1.17 1.17 0 001.79 1.5c1.33-1.59 2.65-3.18 4-4.77a1.17 1.17 0 00-1.8-1.5zM90.11 80.53a1.17 1.17 0 001.5-1.79 1.17 1.17 0 00-1.5 1.79zM89.3 59.08l-5 6a1.17 1.17 0 001.79 1.5l5-6a1.17 1.17 0 00-1.79-1.49zM120 75.65q-2.75 3.27-5.48 6.56a1.16 1.16 0 001.79 1.49q2.75-3.27 5.48-6.56a1.17 1.17 0 00-1.79-1.49z"/>
      <path class="cls-1" d="M90.46 78.29L83 87.24a1.16 1.16 0 001.78 1.49l7.48-8.94a1.17 1.17 0 00-1.79-1.5zM105.61 68.66q-3.73 4.47-7.48 9a1.17 1.17 0 001.79 1.49q3.73-4.47 7.48-8.95a1.17 1.17 0 00-1.79-1.49zM83.12 131.93l-4 4.77a1.17 1.17 0 001.79 1.5l4-4.77a1.17 1.17 0 00-1.79-1.5zM41.05 105.89l-3 3.58a1.17 1.17 0 001.79 1.5l3-3.58a1.17 1.17 0 00-1.79-1.5zM31.11 167.49l-2.49 3A1.16 1.16 0 0030.4 172c.84-1 1.67-2 2.5-3a1.17 1.17 0 00-1.79-1.5zM52.81 95.46c-.5.59-1 1.19-1.49 1.79a1.17 1.17 0 001.79 1.49c.49-.6 1-1.19 1.49-1.79a1.16 1.16 0 00-1.79-1.49zM73.91 66a1.17 1.17 0 001.5-1.79 1.17 1.17 0 00-1.5 1.79zM145.92 68.92l-1.49 1.78a1.17 1.17 0 001.79 1.5c.49-.6 1-1.19 1.49-1.79a1.17 1.17 0 00-1.79-1.49zM110.55 93.05l-5 6a1.17 1.17 0 001.79 1.49l5-6a1.17 1.17 0 00-1.79-1.5zM87.64 108.35l-3.5 4.17a1.17 1.17 0 001.79 1.5l3.49-4.18a1.16 1.16 0 00-1.78-1.49zM56.34 165.79a1.17 1.17 0 001.5-1.79 1.17 1.17 0 00-1.5 1.79zM81.8 148.06l-6 7.15a1.17 1.17 0 001.79 1.5l6-7.16a1.17 1.17 0 00-1.79-1.49zM118.07 121.63l5.49-6.56a1.17 1.17 0 00-1.79-1.5l-5.49 6.56a1.17 1.17 0 001.79 1.5zM135.32 104.63c1.33-1.58 2.66-3.18 4-4.77a1.17 1.17 0 00-1.79-1.49l-4 4.77a1.17 1.17 0 001.79 1.49zM124.73 128.21l3.5-4.18a1.17 1.17 0 00-1.8-1.49l-3.49 4.17a1.17 1.17 0 001.79 1.5zM160.4 107.36l3-3.58a1.17 1.17 0 00-1.79-1.5q-1.48 1.8-3 3.58a1.17 1.17 0 001.79 1.5zM134.67 140.57c1.16-1.4 2.33-2.79 3.49-4.18a1.17 1.17 0 00-1.79-1.49l-3.49 4.17a1.17 1.17 0 001.79 1.5zM144.86 112.61l-4 4.77a1.17 1.17 0 001.79 1.5l4-4.77a1.17 1.17 0 00-1.79-1.5zM108.83 147.85a1.17 1.17 0 001.49-1.79 1.17 1.17 0 00-1.49 1.79zM84.72 162.15a1.17 1.17 0 001.49-1.79 1.17 1.17 0 00-1.49 1.79zM127.58 153.9q-3 3.57-6 7.15a1.17 1.17 0 001.79 1.5l6-7.16a1.16 1.16 0 00-1.79-1.49zM101.1 160.13l-4 4.77a1.16 1.16 0 001.79 1.49c1.33-1.59 2.66-3.17 4-4.77a1.16 1.16 0 00-1.78-1.49zM120.33 140.75l-1.49 1.78a1.17 1.17 0 001.79 1.5c.5-.6 1-1.19 1.49-1.79a1.16 1.16 0 00-1.79-1.49zM89.87 145.68c-.83 1-1.66 2-2.5 3a1.17 1.17 0 001.8 1.5l2.49-3a1.17 1.17 0 00-1.79-1.49zM108.55 169.39l-4 4.78a1.17 1.17 0 001.79 1.49l4-4.77a1.17 1.17 0 00-1.79-1.5zM107.51 133.06l-2 2.39a1.17 1.17 0 001.79 1.5c.66-.8 1.33-1.59 2-2.39a1.17 1.17 0 00-1.79-1.5zM112.35 156.36l-2.49 3a1.17 1.17 0 001.79 1.49l2.49-3a1.17 1.17 0 00-1.79-1.5zM162 87.9a1.17 1.17 0 001.5-1.79 1.17 1.17 0 00-1.5 1.79zM122.5 90.88l-6 7.16a1.16 1.16 0 001.78 1.49q3-3.57 6-7.16a1.17 1.17 0 00-1.79-1.49zM159.18 124.58l-4 4.77a1.17 1.17 0 001.79 1.5l4-4.78a1.17 1.17 0 00-1.79-1.49zM149.82 94a1.17 1.17 0 001.49-1.79 1.17 1.17 0 00-1.49 1.79zM149 72.5l-5 6a1.16 1.16 0 001.81 1.5l5-6a1.17 1.17 0 00-1.81-1.5zM179.74 89.07l-5.49 6.56a1.17 1.17 0 001.79 1.5l5.49-6.56a1.17 1.17 0 00-1.79-1.5z"/>
      <path class="cls-1" d="M150.17 91.72l-7.48 8.94a1.17 1.17 0 001.79 1.5l7.48-9a1.17 1.17 0 00-1.79-1.49zM165.31 82.08q-3.74 4.48-7.48 9a1.17 1.17 0 001.79 1.5l7.48-9a1.17 1.17 0 00-1.79-1.5zM142.82 145.36l-4 4.77a1.17 1.17 0 001.8 1.5l4-4.78a1.17 1.17 0 00-1.79-1.49zM100.76 119.32l-3 3.57a1.17 1.17 0 001.79 1.5c1-1.19 2-2.38 3-3.58a1.16 1.16 0 00-1.78-1.49zM90.81 180.92l-2.49 3a1.17 1.17 0 001.79 1.49l2.49-3a1.17 1.17 0 00-1.79-1.49zM112.52 108.88l-1.5 1.79a1.17 1.17 0 001.79 1.5l1.5-1.79a1.17 1.17 0 00-1.79-1.5zM133.61 79.4a1.17 1.17 0 001.5-1.79 1.17 1.17 0 00-1.5 1.79zM205.62 82.34c-.49.6-1 1.19-1.49 1.79a1.17 1.17 0 001.79 1.5l1.5-1.79a1.17 1.17 0 00-1.8-1.5zM170.25 106.48l-5 6a1.17 1.17 0 001.79 1.5l5-6a1.16 1.16 0 00-1.79-1.49zM147.34 121.78l-3.49 4.22a1.17 1.17 0 001.79 1.5q1.74-2.1 3.49-4.18a1.17 1.17 0 00-1.79-1.49zM116.05 179.21a1.17 1.17 0 001.49-1.79 1.17 1.17 0 00-1.49 1.79zM133.27 112.55a1.17 1.17 0 001.49-1.8 1.17 1.17 0 00-1.49 1.8zM141.51 161.48l-6 7.16a1.17 1.17 0 001.79 1.5l6-7.17a1.17 1.17 0 00-1.79-1.49zM20.59 216.45q2.73-3.28 5.48-6.56a1.17 1.17 0 00-1.79-1.5L18.79 215a1.17 1.17 0 001.8 1.5zM37.83 199.45l4-4.77a1.17 1.17 0 00-1.79-1.5L36 198a1.17 1.17 0 001.79 1.49zM27.24 223l3.5-4.18a1.17 1.17 0 00-1.8-1.49l-3.49 4.17a1.17 1.17 0 001.79 1.5zM62.91 202.18l3-3.58a1.17 1.17 0 00-1.79-1.5l-3 3.58a1.17 1.17 0 001.79 1.5zM37.18 235.38l3.49-4.17a1.17 1.17 0 00-1.79-1.5q-1.74 2.1-3.49 4.18a1.17 1.17 0 001.79 1.49zM47.38 207.43l-4 4.77a1.17 1.17 0 001.79 1.5l4-4.78a1.16 1.16 0 00-1.78-1.49zM11.34 242.66a1.16 1.16 0 001.5-1.78 1.16 1.16 0 00-1.5 1.78zM30.09 248.72q-3 3.57-6 7.15a1.17 1.17 0 001.79 1.5l6-7.16a1.16 1.16 0 00-1.79-1.49zM22.85 235.56l-1.5 1.79a1.17 1.17 0 001.79 1.5l1.5-1.79a1.17 1.17 0 00-1.79-1.5zM10 227.88c-.67.79-1.33 1.59-2 2.39a1.17 1.17 0 001.79 1.49l2-2.38a1.17 1.17 0 00-1.79-1.5zM14.86 251.18l-2.49 3a1.17 1.17 0 001.79 1.5l2.49-3a1.17 1.17 0 00-1.79-1.5zM64.48 182.72a1.17 1.17 0 001.5-1.79 1.17 1.17 0 00-1.5 1.79zM25 185.7l-6 7.16a1.17 1.17 0 001.79 1.49l6-7.16A1.17 1.17 0 0025 185.7zM61.69 219.39l-4 4.78a1.17 1.17 0 001.79 1.49l4-4.77a1.17 1.17 0 00-1.79-1.5zM52.33 188.77a1.17 1.17 0 001.5-1.79 1.17 1.17 0 00-1.5 1.79zM51.52 167.32l-5 6a1.17 1.17 0 001.79 1.49c1.66-2 3.32-4 5-6a1.17 1.17 0 00-1.79-1.5zM82.25 183.89q-2.75 3.29-5.48 6.56a1.16 1.16 0 001.78 1.5l5.45-6.56a1.17 1.17 0 00-1.79-1.5z"/>
      <path class="cls-1" d="M52.68 186.53q-3.74 4.49-7.48 8.95A1.17 1.17 0 0047 197l7.47-9a1.17 1.17 0 00-1.79-1.5zM67.83 176.9l-7.49 8.95a1.17 1.17 0 001.8 1.5l7.47-8.95a1.16 1.16 0 00-1.78-1.5zM45.33 240.17q-2 2.4-4 4.78a1.17 1.17 0 001.79 1.49l4-4.77a1.17 1.17 0 00-1.8-1.5zM3.27 214.13l-3 3.58a1.17 1.17 0 001.79 1.5l3-3.58a1.17 1.17 0 00-1.79-1.5zM15 203.7l-1.5 1.79a1.17 1.17 0 001.79 1.5l1.5-1.79a1.17 1.17 0 00-1.79-1.5zM36.12 174.22a1.17 1.17 0 001.5-1.79 1.17 1.17 0 00-1.5 1.79zM108.14 177.16l-1.5 1.79a1.17 1.17 0 001.79 1.49l1.5-1.79a1.17 1.17 0 00-1.79-1.49zM72.77 201.3q-2.51 3-5 6a1.17 1.17 0 001.79 1.5l5-6a1.17 1.17 0 00-1.79-1.49zM49.85 216.59l-3.49 4.18a1.17 1.17 0 001.79 1.49l3.49-4.17a1.17 1.17 0 00-1.79-1.5zM44 256.3q-3 3.57-6 7.16a1.17 1.17 0 001.8 1.49q3-3.57 6-7.15a1.17 1.17 0 00-1.8-1.5zM90.85 224.51q2.75-3.27 5.48-6.56a1.16 1.16 0 00-1.79-1.49L89.06 223a1.17 1.17 0 001.79 1.49zM108.09 207.52l4-4.77a1.17 1.17 0 00-1.79-1.5l-4 4.77a1.17 1.17 0 001.79 1.5zM97.51 231.09l3.49-4.17a1.17 1.17 0 00-1.79-1.5c-1.17 1.39-2.33 2.79-3.49 4.18a1.17 1.17 0 001.79 1.49zM133.17 210.24q1.5-1.78 3-3.58a1.17 1.17 0 00-1.79-1.49l-3 3.58a1.17 1.17 0 001.79 1.49zM107.44 243.45l3.49-4.17a1.17 1.17 0 00-1.79-1.5l-3.49 4.22a1.17 1.17 0 001.79 1.49zM117.64 215.5l-4 4.77a1.17 1.17 0 001.79 1.49l4-4.77a1.17 1.17 0 00-1.79-1.49zM81.6 250.73a1.17 1.17 0 001.5-1.79 1.17 1.17 0 00-1.5 1.79zM100.36 256.78l-6 7.16a1.16 1.16 0 001.78 1.49l6-7.15a1.17 1.17 0 00-1.79-1.5zM73.87 263l-4 4.77a1.17 1.17 0 001.79 1.5l4-4.77a1.17 1.17 0 00-1.79-1.5zM93.11 243.63c-.5.6-1 1.19-1.49 1.79a1.16 1.16 0 001.78 1.49l1.5-1.78a1.17 1.17 0 00-1.79-1.5zM62.64 248.56l-2.49 3a1.17 1.17 0 001.79 1.44l2.49-3a1.17 1.17 0 00-1.79-1.5zM81.32 272.28l-4 4.77a1.16 1.16 0 001.78 1.5l4-4.77a1.17 1.17 0 00-1.79-1.5zM80.28 236c-.67.79-1.33 1.59-2 2.38a1.17 1.17 0 001.79 1.5l2-2.39a1.17 1.17 0 00-1.79-1.49zM85.12 259.25l-2.49 3a1.17 1.17 0 001.79 1.49l2.49-3a1.16 1.16 0 00-1.79-1.49zM134.74 190.79a1.17 1.17 0 001.5-1.79 1.17 1.17 0 00-1.5 1.79zM95.27 193.76l-6 7.16a1.17 1.17 0 001.79 1.5l6-7.16a1.17 1.17 0 00-1.79-1.5zM132 227.46l-4 4.77a1.17 1.17 0 001.79 1.5l4-4.77a1.17 1.17 0 00-1.79-1.5zM122.59 196.84a1.17 1.17 0 001.5-1.79 1.17 1.17 0 00-1.5 1.79zM121.78 175.39l-5 6a1.17 1.17 0 001.79 1.5l5-6a1.17 1.17 0 00-1.79-1.49zM152.51 192q-2.74 3.27-5.48 6.56a1.16 1.16 0 001.79 1.49l5.48-6.56a1.17 1.17 0 00-1.79-1.49z"/>
      <path class="cls-1" d="M122.94 194.6l-7.47 9a1.16 1.16 0 001.78 1.49q3.75-4.47 7.48-8.95a1.17 1.17 0 00-1.79-1.49zM138.09 185q-3.75 4.47-7.48 8.95a1.17 1.17 0 001.79 1.49q3.73-4.47 7.48-8.95a1.17 1.17 0 00-1.79-1.49zM115.6 248.24l-4 4.77a1.17 1.17 0 001.79 1.5l4-4.77a1.17 1.17 0 00-1.79-1.5zM73.53 222.2l-3 3.58a1.17 1.17 0 001.79 1.5l3-3.59a1.17 1.17 0 00-1.79-1.49zM63.59 283.8c-.83 1-1.66 2-2.5 3a1.17 1.17 0 001.79 1.5l2.49-3a1.16 1.16 0 00-1.78-1.5zM85.29 211.77l-1.49 1.78a1.17 1.17 0 001.79 1.5c.49-.6 1-1.19 1.49-1.79a1.16 1.16 0 00-1.79-1.49zM107.17 191a1.17 1.17 0 001.5-1.79 1.17 1.17 0 00-1.5 1.79zM178.4 185.22l-1.49 1.8a1.17 1.17 0 001.79 1.49c.49-.6 1-1.19 1.49-1.79a1.17 1.17 0 00-1.79-1.5zM143 209.36l-5 6a1.17 1.17 0 001.79 1.49l5-6a1.17 1.17 0 00-1.79-1.5zM120.11 224.66l-3.49 4.17a1.17 1.17 0 001.79 1.5c1.17-1.39 2.33-2.79 3.49-4.18a1.17 1.17 0 00-1.79-1.49zM88.82 282.09a1.16 1.16 0 001.5-1.78 1.16 1.16 0 00-1.5 1.78zM114.28 264.37l-6 7.15a1.17 1.17 0 001.79 1.5l6-7.16a1.17 1.17 0 00-1.79-1.49zM184.17 120.13q2.75-3.27 5.48-6.56a1.16 1.16 0 00-1.78-1.49l-5.49 6.56a1.17 1.17 0 001.79 1.49zM201.42 103.14l4-4.77a1.16 1.16 0 00-1.78-1.5c-1.33 1.59-2.67 3.18-4 4.77a1.17 1.17 0 001.79 1.5zM190.83 126.71l3.49-4.17a1.17 1.17 0 00-1.79-1.5c-1.16 1.4-2.33 2.79-3.49 4.18a1.17 1.17 0 001.79 1.49zM226.49 105.86l3-3.58a1.17 1.17 0 00-1.79-1.49l-3 3.58a1.17 1.17 0 001.79 1.49zM200.77 139.07l3.48-4.17a1.16 1.16 0 00-1.78-1.5q-1.75 2.08-3.49 4.18a1.17 1.17 0 001.79 1.49zM211 111.12l-4 4.77a1.17 1.17 0 001.79 1.49c1.33-1.58 2.66-3.18 4-4.77a1.17 1.17 0 00-1.79-1.49zM174.93 146.35a1.17 1.17 0 001.49-1.79 1.17 1.17 0 00-1.49 1.79zM142.43 178a1.17 1.17 0 001.49-1.79 1.17 1.17 0 00-1.49 1.79zM193.68 152.4l-6 7.16a1.16 1.16 0 001.79 1.49q3-3.57 6-7.15a1.17 1.17 0 00-1.79-1.5zM167.19 158.63l-4 4.77a1.17 1.17 0 001.79 1.5l4-4.77a1.17 1.17 0 00-1.79-1.5zM186.43 139.25c-.5.6-1 1.19-1.49 1.79a1.16 1.16 0 001.79 1.49l1.49-1.78a1.17 1.17 0 00-1.79-1.5zM156 144.18l-2.5 3a1.17 1.17 0 001.79 1.5c.83-1 1.66-2 2.5-3a1.17 1.17 0 00-1.79-1.5zM174.64 167.9l-4 4.77a1.17 1.17 0 001.79 1.5l4-4.78a1.17 1.17 0 00-1.79-1.49zM173.6 131.57l-2 2.38a1.17 1.17 0 001.79 1.5l2-2.39a1.17 1.17 0 00-1.79-1.49zM178.44 154.87l-2.49 3a1.17 1.17 0 001.79 1.5c.83-1 1.66-2 2.5-3a1.17 1.17 0 00-1.8-1.49zM228.07 86.41a1.17 1.17 0 001.49-1.79 1.17 1.17 0 00-1.49 1.79zM188.6 89.38l-6 7.16a1.17 1.17 0 001.8 1.46l6-7.16a1.17 1.17 0 00-1.79-1.5zM225.27 123.08l-4 4.77a1.17 1.17 0 001.79 1.5l4-4.77a1.17 1.17 0 00-1.79-1.5zM215.91 92.46a1.17 1.17 0 001.5-1.79 1.17 1.17 0 00-1.5 1.79zM215.1 71q-2.49 3-5 6a1.17 1.17 0 001.79 1.5l5-6a1.17 1.17 0 00-1.79-1.5zM245.83 87.58q-2.75 3.27-5.48 6.56a1.16 1.16 0 001.79 1.49c1.82-2.18 3.66-4.37 5.48-6.56a1.17 1.17 0 00-1.79-1.49z"/>
      <path class="cls-1" d="M216.27 90.22q-3.75 4.47-7.48 9a1.17 1.17 0 001.79 1.49l7.47-8.94a1.16 1.16 0 00-1.78-1.5zM231.41 80.59l-7.48 8.94a1.17 1.17 0 001.79 1.5l7.48-9a1.17 1.17 0 00-1.79-1.49zM208.92 143.86l-4 4.77a1.17 1.17 0 001.79 1.5l4-4.77a1.17 1.17 0 00-1.79-1.5zM166.85 117.82l-3 3.58a1.17 1.17 0 001.79 1.49l3-3.57a1.17 1.17 0 00-1.79-1.5zM156.91 179.42l-2.49 3a1.16 1.16 0 001.78 1.5c.84-1 1.67-2 2.5-3a1.17 1.17 0 00-1.79-1.5zM178.61 107.38c-.49.6-1 1.2-1.49 1.79a1.17 1.17 0 001.79 1.5c.5-.6 1-1.19 1.49-1.79a1.17 1.17 0 00-1.79-1.5zM199.71 77.9a1.17 1.17 0 001.5-1.79 1.17 1.17 0 00-1.5 1.79zM271.72 80.84c-.49.6-1 1.2-1.49 1.79a1.17 1.17 0 001.79 1.5l1.49-1.79a1.17 1.17 0 00-1.79-1.5zM236.35 105l-5 6a1.17 1.17 0 001.79 1.49l5-6a1.17 1.17 0 00-1.79-1.5zM213.44 120.28l-3.5 4.17a1.17 1.17 0 001.8 1.5c1.16-1.4 2.32-2.78 3.48-4.17a1.16 1.16 0 00-1.78-1.5zM182.15 177.72a1.17 1.17 0 001.49-1.79 1.17 1.17 0 00-1.49 1.79zM207.6 160q-3 3.57-6 7.15a1.17 1.17 0 001.79 1.5l6-7.16a1.16 1.16 0 00-1.79-1.49zM155.91 248.5l5.49-6.56a1.17 1.17 0 00-1.79-1.5l-5.49 6.56a1.17 1.17 0 001.79 1.49zM173.16 231.51l4-4.78a1.17 1.17 0 00-1.79-1.49l-4 4.77a1.17 1.17 0 001.79 1.5zM162.57 255.08l3.49-4.17a1.17 1.17 0 00-1.79-1.5l-3.49 4.17a1.17 1.17 0 001.79 1.5zM198.24 234.23q1.48-1.8 3-3.58a1.17 1.17 0 00-1.79-1.5l-3 3.58a1.17 1.17 0 001.79 1.5zM172.51 267.44c1.16-1.39 2.32-2.79 3.49-4.18a1.17 1.17 0 00-1.79-1.5l-3.49 4.18a1.17 1.17 0 001.79 1.5zM182.7 239.48l-4 4.77a1.17 1.17 0 001.79 1.5l4-4.77a1.17 1.17 0 00-1.79-1.5zM146.67 274.71a1.16 1.16 0 001.49-1.78 1.16 1.16 0 00-1.49 1.78zM165.42 280.76l-6 7.16a1.17 1.17 0 001.79 1.5l6-7.16a1.17 1.17 0 00-1.79-1.5zM138.93 287l-4 4.77a1.17 1.17 0 001.8 1.49l4-4.77a1.17 1.17 0 00-1.79-1.49zM158.17 267.62l-1.49 1.78a1.17 1.17 0 001.79 1.5l1.49-1.79a1.17 1.17 0 00-1.79-1.49zM127.71 272.55l-2.5 3A1.17 1.17 0 00127 277c.83-1 1.67-2 2.5-3a1.17 1.17 0 00-1.79-1.49zM146.39 296.26l-4 4.78a1.17 1.17 0 001.79 1.49l4-4.77a1.17 1.17 0 00-1.79-1.5zM145.34 259.93l-2 2.39a1.17 1.17 0 001.79 1.49l2-2.38a1.17 1.17 0 00-1.79-1.5zM150.19 283.23c-.83 1-1.66 2-2.5 3a1.17 1.17 0 001.79 1.5c.84-1 1.67-2 2.5-3a1.17 1.17 0 00-1.79-1.5zM199.81 214.77a1.17 1.17 0 001.49-1.77 1.17 1.17 0 00-1.49 1.79zM160.34 217.75q-3 3.57-6 7.16a1.17 1.17 0 001.79 1.49q3-3.57 6-7.16a1.17 1.17 0 00-1.79-1.49zM197 251.45l-4 4.77a1.17 1.17 0 001.79 1.49l4-4.77a1.17 1.17 0 00-1.79-1.49zM187.65 220.82a1.16 1.16 0 001.5-1.78 1.16 1.16 0 00-1.5 1.78zM186.84 199.37l-5 6a1.16 1.16 0 001.79 1.49l5-6a1.17 1.17 0 00-1.79-1.5zM217.58 215.94l-5.49 6.56a1.17 1.17 0 001.79 1.5l5.49-6.56a1.17 1.17 0 00-1.79-1.5z"/>
      <path class="cls-1" d="M188 218.59l-7.48 8.94a1.17 1.17 0 001.79 1.5l7.48-8.95a1.17 1.17 0 00-1.79-1.49zM203.15 209q-3.74 4.49-7.48 9a1.17 1.17 0 001.79 1.49l7.48-8.94a1.17 1.17 0 00-1.79-1.5zM180.66 272.22c-1.33 1.6-2.65 3.19-4 4.78a1.17 1.17 0 001.79 1.5l4-4.78a1.17 1.17 0 00-1.79-1.5zM138.6 246.18l-3 3.59a1.17 1.17 0 001.79 1.49l3-3.58a1.17 1.17 0 00-1.79-1.5zM128.65 307.78l-2.49 3a1.17 1.17 0 001.79 1.49l2.49-3a1.17 1.17 0 00-1.79-1.5zM150.36 235.75l-1.5 1.79a1.17 1.17 0 001.79 1.5l1.5-1.79a1.17 1.17 0 00-1.79-1.5zM171.45 206.27a1.17 1.17 0 001.5-1.79 1.17 1.17 0 00-1.5 1.79zM243.47 209.21L242 211a1.17 1.17 0 001.79 1.49l1.49-1.78a1.16 1.16 0 00-1.78-1.5zM208.09 233.35l-5 6a1.17 1.17 0 001.79 1.5l5-6a1.16 1.16 0 00-1.79-1.49zM185.18 248.64c-1.17 1.39-2.33 2.79-3.49 4.18a1.16 1.16 0 001.79 1.49l3.49-4.17a1.17 1.17 0 00-1.79-1.5zM153.89 306.08a1.17 1.17 0 001.49-1.79 1.17 1.17 0 00-1.49 1.79zM179.35 288.35l-6 7.16a1.17 1.17 0 001.79 1.49l6-7.15a1.17 1.17 0 00-1.79-1.5zM239.66 160.43q2.73-3.28 5.48-6.56a1.17 1.17 0 00-1.79-1.5l-5.49 6.57a1.17 1.17 0 001.8 1.49zM256.9 143.43l4-4.77a1.17 1.17 0 00-1.79-1.49l-4 4.77a1.17 1.17 0 001.79 1.49zM246.31 167c1.17-1.39 2.33-2.79 3.49-4.18a1.16 1.16 0 00-1.79-1.49l-3.48 4.17a1.16 1.16 0 001.78 1.5zM282 146.16l3-3.58a1.17 1.17 0 00-1.79-1.5q-1.49 1.8-3 3.58a1.17 1.17 0 001.79 1.5zM256.25 179.36l3.49-4.17a1.17 1.17 0 00-1.79-1.5c-1.16 1.4-2.33 2.79-3.49 4.18a1.17 1.17 0 001.79 1.49zM266.44 151.41c-1.33 1.59-2.65 3.18-4 4.77a1.17 1.17 0 001.8 1.5q2-2.38 4-4.78a1.17 1.17 0 00-1.79-1.49zM230.41 186.65a1.17 1.17 0 001.49-1.79 1.17 1.17 0 00-1.49 1.79zM249.16 192.69l-6 7.16a1.17 1.17 0 001.79 1.5l6-7.16a1.17 1.17 0 00-1.79-1.5zM222.68 198.92l-4 4.78a1.17 1.17 0 001.79 1.5l4-4.78a1.17 1.17 0 00-1.79-1.5zM241.92 179.54l-1.5 1.79a1.17 1.17 0 001.79 1.5l1.5-1.79a1.17 1.17 0 00-1.79-1.5zM211.45 184.48l-2.49 3a1.17 1.17 0 001.79 1.5l2.49-3a1.17 1.17 0 00-1.79-1.49zM230.13 208.2l-4 4.77a1.17 1.17 0 001.79 1.49l4-4.77a1.17 1.17 0 00-1.79-1.49zM229.09 171.86l-2 2.39a1.17 1.17 0 001.79 1.49l2-2.38a1.17 1.17 0 00-1.79-1.5zM233.93 195.16c-.83 1-1.66 2-2.5 3a1.17 1.17 0 001.8 1.5l2.49-3a1.17 1.17 0 00-1.79-1.5zM283.55 126.7a1.17 1.17 0 001.5-1.79 1.17 1.17 0 00-1.5 1.79zM244.08 129.68l-6 7.16a1.16 1.16 0 001.78 1.49q3-3.57 6-7.16a1.17 1.17 0 00-1.79-1.49zM280.76 163.38l-4 4.77a1.17 1.17 0 001.79 1.5l4-4.78a1.17 1.17 0 00-1.79-1.49zM271.4 132.75a1.16 1.16 0 001.49-1.78 1.16 1.16 0 00-1.49 1.78zM270.58 111.3l-5 6a1.16 1.16 0 001.79 1.49l5-6a1.17 1.17 0 00-1.79-1.5zM301.32 127.87l-5.49 6.56a1.17 1.17 0 001.79 1.5l5.49-6.56a1.17 1.17 0 00-1.79-1.5z"/>
      <path class="cls-1" d="M271.75 130.52l-7.48 8.94a1.17 1.17 0 001.79 1.5q3.74-4.47 7.48-9a1.17 1.17 0 00-1.79-1.49zM286.89 120.88q-3.74 4.47-7.48 9a1.17 1.17 0 001.79 1.5l7.48-9a1.17 1.17 0 00-1.79-1.5zM264.41 184.16l-4 4.77a1.16 1.16 0 001.79 1.49l4-4.77a1.16 1.16 0 00-1.78-1.49zM222.34 158.11l-3 3.58a1.17 1.17 0 001.79 1.5l3-3.58a1.17 1.17 0 00-1.79-1.5zM212.39 219.72l-2.49 3a1.17 1.17 0 001.79 1.49l2.49-3a1.16 1.16 0 00-1.79-1.49zM234.1 147.68l-1.5 1.79a1.17 1.17 0 001.79 1.5l1.5-1.79a1.17 1.17 0 00-1.79-1.5zM255.2 118.2a1.17 1.17 0 001.49-1.79 1.17 1.17 0 00-1.49 1.79zM327.21 121.14l-1.5 1.79a1.17 1.17 0 001.79 1.5l1.5-1.8a1.17 1.17 0 00-1.79-1.49zM291.84 145.28l-5 6a1.17 1.17 0 001.79 1.5l5-6a1.16 1.16 0 00-1.78-1.49zM268.92 160.57c-1.16 1.4-2.33 2.79-3.49 4.18a1.17 1.17 0 001.79 1.49l3.49-4.17a1.17 1.17 0 00-1.79-1.5zM237.63 218a1.17 1.17 0 001.5-1.79 1.17 1.17 0 00-1.5 1.79zM263.09 200.28q-3 3.57-6 7.16a1.17 1.17 0 001.79 1.49q3-3.57 6-7.15a1.16 1.16 0 00-1.78-1.5zM198.47 8.47L204 1.91a1.16 1.16 0 00-1.84-1.49L196.68 7a1.17 1.17 0 001.79 1.49zM205.13 15.05l3.49-4.17a1.17 1.17 0 00-1.79-1.5q-1.76 2.08-3.49 4.18a1.17 1.17 0 001.79 1.49zM215.06 27.41q1.75-2.09 3.49-4.18a1.17 1.17 0 00-1.79-1.49l-3.49 4.17a1.17 1.17 0 001.79 1.5zM189.22 34.69a1.17 1.17 0 001.5-1.79 1.17 1.17 0 00-1.5 1.79zM208 40.74q-3 3.57-6 7.15a1.17 1.17 0 001.79 1.5l6-7.16a1.17 1.17 0 00-1.8-1.49zM181.49 47l-4 4.77a1.17 1.17 0 001.79 1.5l4-4.78a1.17 1.17 0 00-1.79-1.49zM200.73 27.59l-1.5 1.79a1.17 1.17 0 001.77 1.49l1.5-1.79a1.17 1.17 0 00-1.79-1.49zM170.26 32.52l-2.49 3a1.17 1.17 0 001.79 1.5l2.49-3a1.17 1.17 0 00-1.79-1.5zM188.94 56.24L185 61a1.17 1.17 0 001.79 1.49l4-4.77a1.16 1.16 0 00-1.79-1.49zM187.9 19.9l-2 2.39a1.17 1.17 0 001.79 1.5c.66-.8 1.32-1.6 2-2.39a1.17 1.17 0 00-1.79-1.5zM192.74 43.2l-2.49 3a1.17 1.17 0 001.75 1.48c.83-1 1.66-2 2.5-3a1.17 1.17 0 00-1.8-1.5zM223.22 32.2l-4 4.77a1.17 1.17 0 001.79 1.5l4-4.78a1.17 1.17 0 00-1.79-1.49zM181.15 6.16l-3 3.58a1.17 1.17 0 001.85 1.49l3-3.58a1.16 1.16 0 00-1.79-1.49zM171.21 67.76l-2.5 3a1.17 1.17 0 001.79 1.5l2.5-3a1.17 1.17 0 00-1.79-1.49zM196.44 66.05a1.17 1.17 0 001.5-1.79 1.17 1.17 0 00-1.5 1.79zM221.9 48.32l-6 7.16a1.17 1.17 0 001.79 1.5l6-7.16a1.17 1.17 0 00-1.79-1.5z"/>
    </g>
  </g>
</svg>
