<svg xmlns="http://www.w3.org/2000/svg" viewBox="0 0 240.46 302.75"><title>Ресурс 2</title><g id="Слой_2" data-name="Слой 2"><g id="Слой_1-2" data-name="Слой 1"><path d="M235.57,1.3c-8.65,15.36-17.16,30.83-25.84,46.2-.66.14-1.32.31-2,.44L203.21,18c-.48-3.24-5.62-3.11-5.13.15q2.65,17.55,5.32,35.09a2.66,2.66,0,0,0,1.82,2.18q-5.49,9.61-11.13,19.13-6.74-18.06-13.46-36.14c-1.14-3.09-6.06-1.59-4.9,1.51l14.64,39.33a2.32,2.32,0,0,0-.91,3c-.71,1.16-1.4,2.33-2.11,3.48a366.72,366.72,0,0,1-22.22,32.09q-5.34-30-8.75-60.33c-.36-3.27-5.5-3.12-5.13.16q3.67,33,9.66,65.61c-6.91,8.68-14.19,17.09-21.77,25.35l-14.37-63c-.74-3.23-5.64-1.69-4.91,1.51l15.06,66c-1.5,1.6-3,3.21-4.5,4.79q-10.83,11.31-21.18,23a260.79,260.79,0,0,1-10.13-52c-.3-3.28,1.33-32.8-8.82-24.35-2.51,2.09.23,6.45,2.77,4.34-1.92,1.59.66,17.29.91,20.17q.87,9.75,2.45,19.41a272.47,272.47,0,0,0,8.83,37q-11.58,13.22-22.53,26.89C70.4,184.4,71.91,152.46,63,123.38a2.7,2.7,0,0,0-.14-.71c-.35-1-.69-2-1-2.93-1.1-3.1-6-1.62-4.91,1.52,10.65,31.12,8.25,65.57,22.25,95.53q-8.56,10.91-16.71,22.15c-13.75-29-19.49-61.29-26.64-92.38-.75-3.22-5.65-1.69-4.92,1.52,7.44,32.29,13.47,65.63,28.16,95.57q-9.16,12.87-17.72,26.19a97.39,97.39,0,0,1-9.21-23.45C29.78,237,29,227.27,27,217.8a110.91,110.91,0,0,0-8.38-24.47C14,183.61,4.42,173.78,5.18,162.56c.23-3.29-4.9-3.11-5.13.16-.62,9.21,4.44,16.07,9,23.65a108.53,108.53,0,0,1,13,32.95c2.17,10,2.88,20.24,5.49,30.14a103.93,103.93,0,0,0,10.61,25.31c-5,8-9.89,16.05-14.57,24.28-1.64,2.89,2.91,5.27,4.54,2.4,3.24-5.69,6.58-11.29,10-16.84h.25q53-9.72,105.73-20.81c3.23-.68,1.69-5.58-1.52-4.9q-48.36,10.17-97,19.17a2.42,2.42,0,0,0-.4-1.59c-.34-.53-.65-1.06-1-1.61q6.44-10,13.21-19.83,32.9-5.31,65.75-10.85,16.78-2.84,33.56-5.74l16.77-2.92c3-.53,6-.38,8-2.78a2.65,2.65,0,0,0,.27-3.11,3.15,3.15,0,0,0-2.53-1.86,2.65,2.65,0,0,0-2.85,1.3l-.28.42a2.41,2.41,0,0,0-.38.93c-3.05,1-8.17,1-10.46,1.36L150.2,234.4Q135.1,237,120,239.56q-26.92,4.55-53.89,8.9a2.51,2.51,0,0,0-.08-2.33c-.33-.63-.63-1.26-1-1.89q7.46-10.32,15.29-20.34a2.63,2.63,0,0,0,1.34,0l1.39-.33a2.56,2.56,0,0,0,2.94-.7,782.46,782.46,0,0,1,99-17.26c3.27-.35,3.12-5.48-.16-5.13a794.29,794.29,0,0,0-99.52,17.28.45.45,0,0,1-.06-.12q10-12.57,20.56-24.76a2.56,2.56,0,0,0,2.21.52q45.4-9.49,90.43-20.7c3.21-.8,1.68-5.71-1.52-4.91q-42.66,10.62-85.67,19.68c-.06-.21-.12-.41-.19-.62Q124,172.24,137.47,158a3,3,0,0,0,1.9-.45,2.35,2.35,0,0,0,1.92.18L217.87,135c3.16-.95,1.65-5.85-1.51-4.91l-73.1,21.7q10.8-11.67,20.64-23.95a2.79,2.79,0,0,0,.39-.1q32-11.67,64.66-21.52c2.62-.8,2.09-4.17-.18-5L225.13,100c-2.06-.72-3.25,1.22-2.94,2.93q-26.41,8.12-52.44,17.41a385.12,385.12,0,0,0,22.14-32.21c1-1.61,2-3.22,2.92-4.84a208.75,208.75,0,0,0,37.05-13.66c3-1.42.19-5.74-2.76-4.33a200.55,200.55,0,0,1-30.44,11.61c4.9-8.25,9.68-16.58,14.42-24.93a85.48,85.48,0,0,0,17.26-6.31c3-1.45.18-5.76-2.76-4.32a77.23,77.23,0,0,1-10.93,4.3c7.86-14,15.6-28,23.46-42C241.74.81,237.19-1.58,235.57,1.3Zm-174,247.9.18-.26.14.21Z" fill="#b3c537"/></g></g></svg>