<svg xmlns="http://www.w3.org/2000/svg" viewBox="0 0 224.77 136.54"><title>Ресурс 1</title><g id="Слой_2" data-name="Слой 2"><g id="Слой_1-2" data-name="Слой 1"><path d="M45.86,82.57c1.5-3.7-4.74-7.23-7.21-4.19-5.12,6.31-11.44,14.11-13.23,22.17-.91,4.07,5.54,5.74,8,3.56,2.94-2.62,4.77-6.27,6.72-9.64A97.07,97.07,0,0,0,45.86,82.57Z" fill="#f5d44f"/><path d="M81.49,82.57c-1.5-3.7,4.75-7.23,7.22-4.19,5.11,6.31,11.44,14.11,13.23,22.17.9,4.07-5.54,5.74-8,3.56-3-2.62-4.78-6.27-6.72-9.64A95.7,95.7,0,0,1,81.49,82.57Z" fill="#f5d44f"/><path d="M60.47,119.45c-.32-2.55-8.14-2.93-9.1-2.59-.08,0-1,.78-1.11,1.29-.64,4.37,1.28,12.59,2.81,16.63,1,2.56,5.41,2.31,6-.65C59.77,130.63,61,123.28,60.47,119.45Z" fill="#f5d44f"/><path d="M67.72,119.45c.33-2.55,8.15-2.93,9.1-2.59.08,0,1,.78,1.12,1.29.63,4.37-1.28,12.59-2.81,16.63-1,2.56-5.41,2.31-6-.65C68.42,130.63,67.24,123.28,67.72,119.45Z" fill="#f5d44f"/><path d="M85.45,76.35c-.51-2-1-2.43-2.66-3.67-2.2-1.66-5.67-1.09-8.28-1.37-9-1-18.17,0-27.09,1.35a3.56,3.56,0,0,0-.89.24,3.06,3.06,0,0,0-3.5.9c-2,3-2.32,7.11-2.67,10.6a102.48,102.48,0,0,0-.54,13.68c.22,7,.62,16.64,7.37,20.07,5.34,2.7,12.77,2,19,1.84,9.57-.33,14.9-.6,19.14-6,2.66-3.37,2.06-9.54,2-14.42C87.14,89.11,87.16,83,85.45,76.35Z" fill="#5a4f98"/><path d="M78.38,78.27c.24-1.16-1.49-1-1.65.13-1,7.68-9.26,10.31-12.58,10.13C57.64,88.19,52.09,85,49.82,78.19c-.2-.61-1.37-.33-1.23.42C50,86.3,57.8,90.27,64.38,90.17A14.74,14.74,0,0,0,78.38,78.27Z" fill="#fff"/><path d="M58.57,85.51A2.72,2.72,0,0,0,57,84.17a3.51,3.51,0,0,0-2.37.09,3.28,3.28,0,0,0-1.64,1.46,2.62,2.62,0,0,0-.32,1.63,2.72,2.72,0,0,0,1.28,1.88,3.23,3.23,0,0,0,3,.21,3.12,3.12,0,0,0,1.2-.84,2.47,2.47,0,0,0,.6-1.22v-.06A2.36,2.36,0,0,0,58.57,85.51Z" fill="#e85d2e"/><path d="M66,86.68a2.5,2.5,0,0,0-.78-.48,4.37,4.37,0,0,0-.68-.25,3.18,3.18,0,0,0-2,.22,2.94,2.94,0,0,0-1.75,3.6,3.29,3.29,0,0,0,6.07,0A2.87,2.87,0,0,0,66,86.68Z" fill="#e85d2e"/><path d="M73.22,84.52a3.5,3.5,0,0,0-1.67-.41A2.77,2.77,0,0,0,68.84,86a2.47,2.47,0,0,0,0,1.59,3.11,3.11,0,0,0,4.39,1.59,2.64,2.64,0,0,0,1.48-2.3A2.72,2.72,0,0,0,73.22,84.52Z" fill="#e85d2e"/><path d="M51.46,21.78C5.83,22.62,0,24.28,0,52.84,0,75.51,8.71,79.75,31.07,79.92c83.51.63,94.92,2.35,94.19-24.56C124.29,19.26,118.46,20.54,51.46,21.78Z" fill="#99b42c"/><path d="M85.19,1.74c-1.36-2.08-4.66-1.65-6.09,0a75.48,75.48,0,0,0-9,13.44C68.83,9.91,67.45,4.66,63.53.81a3.8,3.8,0,0,0-5.24.54c-2.59,4-4,8.38-5.5,12.78C50.66,8.73,48.17,3.64,42.69.56c-1.46-.82-4-.22-4.55,1.48-2.21,6.73-1.8,13.75-1.5,20.7s6.51,6.54,25.46,7c6,.14,14.15,0,20-1.4,6.06-1.4,6-7.58,6.15-12.31S87.76,5.71,85.19,1.74Z" fill="#f5d44f"/><path d="M34.92,46.49a4.91,4.91,0,0,1-.26,1.3,3.4,3.4,0,0,1-2,1.9,5.43,5.43,0,0,1-2.15.43,5.06,5.06,0,0,1-3-.93,3.12,3.12,0,0,1-1.1-1.4,4.8,4.8,0,0,1-.26-1.36,4.77,4.77,0,0,1,.31-1.37,6.37,6.37,0,0,1,.63-1.25A5.49,5.49,0,0,1,28,43a4.39,4.39,0,0,1,5.08,0,4.82,4.82,0,0,1,.92.88,5.85,5.85,0,0,1,.6,1.2A4.76,4.76,0,0,1,34.92,46.49Zm67.4-.93a3,3,0,0,0-.69-1.45,4.73,4.73,0,0,0-6.78,0,4,4,0,0,0-.82,2,3.61,3.61,0,0,0,.75,3.35,4.77,4.77,0,0,0,6.92,0,3.87,3.87,0,0,0,.91-2.48A7.31,7.31,0,0,0,102.32,45.56ZM71.1,50c-.2-2.53-4.64-2.32-4.5.23.19,3.73-.53,6.65-2.8,6.76-2.91.15-3.32-5.76-3.49-7.1-.24-1.75-3.27-1.63-3.41.35-.3,4.22,1.35,9.33,6.34,10C69.11,61.13,71.47,54.77,71.1,50Z" fill="#5a4f98"/><path d="M85.22,100.89a8.16,8.16,0,0,0-2.6,2.08c-.21.25-.41.51-.62.77a16.61,16.61,0,0,1-1.24-1.13c-1.5-1.42-4.09-3.1-6.27-2.47-1.9.56-2.82,1.84-4.18,3.2-2.65,2.66-4.59.22-6.84-1.49-4.45-3.37-8.64-1.6-11.85,2.32-1,1.2-5.48-3-6.82-3.31-2.06-.46-4.29.34-4.87,2.49-.19.72.68.92,1.17.74,3.75-1.35,4,2.24,6.64,3.78a5.9,5.9,0,0,0,6.45-.26c2.27-1.79,3.32-4.77,6.34-2.52,1.82,1.37,3.33,2.69,5.53,3.39s4.89-.21,6.63-1.49a15.14,15.14,0,0,0,2.3-2.16c1-1.15.91-.63,2.36.55s3.91,2.54,5.91,1.59c1.62-.77,2.93-3.08,3.92-4.49C88,101.26,86.17,100.43,85.22,100.89Z" fill="#fff"/><path d="M156,76.32c-9.8-1.23-14.66,8.26-15.7,12.46-1.26,5.15-.76,11.1-.27,16.29.25,2.66,1.23,7-.63,9.05-3.1,3.52-.4,6.09,2.8,5.4,10.41-2.25,5.73-14.71,5.52-20.63-.26-7.34.93-13.89,8.69-16.66C159.68,81.05,158.59,76.65,156,76.32Z" fill="#e64e21"/><path d="M184.47,133c.93-.27,2.76-.21,3.93-.63-.31-3.07-.76-17.16,1.4-20.12,1-1.36,4.53-1.55,5.49-.08,1.84,2.83,1.25,15.39,1.33,21.25-.08,2.82-2.92,3.26-11.55,3C182.64,136.43,182,133.74,184.47,133Z" fill="#99b42c"/><path d="M164.8,133c.93-.27,2.76-.21,3.93-.63-.31-3.07-.76-17.16,1.41-20.12,1-1.36,4.52-1.55,5.48-.08,1.84,2.83,1.25,15.39,1.33,21.25-.08,2.82-2.91,3.26-11.54,3C163,136.43,162.33,133.74,164.8,133Z" fill="#99b42c"/><path d="M153.22,38.31c2.05-8.59,9.61-13.15,27.07-13.37,13.66-.06,18.73,1.16,24.1,6.21,6.23,5.85,7.14,13.45,7.64,21.7,1.1,18.44,1.18,41.74-1.74,49.13-5.84,14.77-23,15.47-38.64,13.45-7.8-1-20.73-.51-21.12-29.34C150.44,78.87,149.43,54.24,153.22,38.31Z" fill="#f5d44f"/><path d="M164.23,62.08c2.06-5.09,23.65-5.57,27.73-.44a5,5,0,0,1-1.22,7.47c-3.48,2.11-14.92,2.42-20.36,1.26S162.46,66.42,164.23,62.08Z" fill="#e85d2e"/><path d="M186.32,64.88c-4.69,1.57-11.23,1-16-.13-.86-.2-.91-1,0-1.36,3.34-1.27,13.18-.61,15.7-.15C186.93,63.41,187.33,64.54,186.32,64.88Z" fill="#fff"/><path d="M162.1,51.49c1.27,0,3,.91,2.94,2.53a3.23,3.23,0,0,1-.51,2,3.07,3.07,0,0,1-4.87,0,3.16,3.16,0,0,1-.5-2C159.08,52.4,160.83,51.49,162.1,51.49ZM193.88,54a3.16,3.16,0,0,0,.51,2,3.06,3.06,0,0,0,4.86,0,3.16,3.16,0,0,0,.51-2c.08-1.62-1.67-2.53-2.94-2.53S193.8,52.4,193.88,54Z" fill="#e85d2e"/><path d="M208,77.2c9.83-1,14.4,8.63,15.31,12.86,1.11,5.18.43,11.11-.22,16.28-.33,2.66-1.44,6.92.36,9.07,3,3.59.22,6.09-3,5.32-10.34-2.52-5.28-14.85-4.9-20.77.49-7.33-.51-13.91-8.18-16.88C204.18,81.82,205.41,77.46,208,77.2Z" fill="#e64e21"/><path d="M170.86,15.24c4.25-4.7,8.56-3.6,14.41-3.89,0-.09,0-.19,0-.28.13-2.52,4.84-2.89,4.75.79,10.83,2.79,11.93,7.4,11.82,15.86a2.38,2.38,0,0,1-2.63,2.66c-.53,0-31.43-2.68-31.41-5C167.83,24.83,167.91,18.49,170.86,15.24Z" fill="#5a4f98"/><path d="M185.27,11.35a9.11,9.11,0,0,1,5.22,6c.85,2.88.33,7.48-.57,12.12-9.26-1-22.11-2.62-22.1-4.09,0-.59.09-6.93,3-10.18C175,10.71,179.61,11,185.27,11.35Z" fill="#e64e21"/><path d="M150.15,21.78c3.15-.89,16.14,2.47,19.68,3.09s17.35,2.94,20.19,4c.29.12.26.63,0,.82-1.65,1.25-5.72,1.26-8.37,1.33a96.64,96.64,0,0,1-11.78-.51c-3.87-.38-18.14-3-20.72-5.46A1.93,1.93,0,0,1,150.15,21.78Z" fill="#5a4f98"/><path d="M151.63,70.3a81.47,81.47,0,0,0,29.74,6.1,73.78,73.78,0,0,0,15.83-1.54c5.05-1.18,10.76-3.51,14.13-6.08.58-.44,2.45.29,1.59,1.28-3.12,3.61-8.51,5.23-12.95,6.52a62.66,62.66,0,0,1-16.63,2.18c-1.23,0-2.45,0-3.69-.05a1.18,1.18,0,0,1,.5,1,6.33,6.33,0,0,1-.72,2.32c-.13.36-.25.72-.37,1.08.6-.17,1.19-.32,1.81-.45,1.73-.37,3.49,1.82,1.45,2.74-.56.24-1.11.48-1.67.7a12,12,0,0,1,.72,1.74c.73,2.28-3.07,2.66-4,.87l-.24-.51-.5.35c-.54,1.48-3.37,1.13-3.46-.49a2.79,2.79,0,0,1,1.45-2.16l.53-.51a6.57,6.57,0,0,1-3.57-2.29c-.86-1.4.82-2.49,2.11-2.2a5.52,5.52,0,0,1,2.41,1.29c0-.17.06-.34.08-.51A4.81,4.81,0,0,1,177.1,79a1.78,1.78,0,0,1,.64-.42A80.58,80.58,0,0,1,150.38,72C148.9,71.32,150.42,69.82,151.63,70.3Z" fill="#fff"/></g></g></svg>