<svg xmlns="http://www.w3.org/2000/svg" viewBox="0 0 72 72"><title>Ресурс 2</title><g id="Слой_2" data-name="Слой 2"><g id="Capa_1" data-name="Capa 1"><path d="M61.45,0H10.55A10.56,10.56,0,0,0,0,10.55v50.9A10.56,10.56,0,0,0,10.55,72h50.9A10.56,10.56,0,0,0,72,61.45V10.55A10.56,10.56,0,0,0,61.45,0ZM36.14,54.84a19,19,0,1,1,19-19A19,19,0,0,1,36.14,54.84ZM57.23,21.09a6.33,6.33,0,1,1,6.33-6.32A6.33,6.33,0,0,1,57.23,21.09Z" fill="#fff"/><path d="M57.23,12.66a2.11,2.11,0,1,0,2.11,2.11A2.1,2.1,0,0,0,57.23,12.66Z" fill="#fff"/><path d="M36.14,21.09A14.77,14.77,0,1,0,50.91,35.86,14.78,14.78,0,0,0,36.14,21.09Z" fill="#fff"/></g></g></svg>