<svg xmlns="http://www.w3.org/2000/svg" viewBox="0 0 227.52 68.78"><title>Ресурс 1</title><g id="Слой_2" data-name="Слой 2"><g id="Слой_1-2" data-name="Слой 1"><path d="M101,66.25c-2,0-3.54-.08-4.65-.08s-2.86,0-5,.08l.32-6.83a32.83,32.83,0,0,1-2.72,3.45,13.9,13.9,0,0,1-6.42,3.81,15.84,15.84,0,0,1-4,.51A15.53,15.53,0,0,1,72,65.82,14.71,14.71,0,0,1,66.85,62,15.93,15.93,0,0,1,63.72,56a25.34,25.34,0,0,1-1-7.16,28.79,28.79,0,0,1,1.8-10A20.7,20.7,0,0,1,69.44,31a18,18,0,0,1,7.08-4.28A28.16,28.16,0,0,1,85,25.42a46.5,46.5,0,0,1,7.41.67q.27-5.1.27-10.71V12.71c2.26,0,4,.08,5.19.08,1.56,0,3.31,0,5.26-.08q-.8,10-1.49,27.12T101,66.25Zm-8.9-32.71a18.33,18.33,0,0,0-5.18-.79,17,17,0,0,0-5.44.87,11.1,11.1,0,0,0-4.59,2.94,13.82,13.82,0,0,0-3.08,5.33,19.89,19.89,0,0,0-1.08,6.28,15,15,0,0,0,1,5.53,8.53,8.53,0,0,0,3.08,4,8,8,0,0,0,4.72,1.45,8.33,8.33,0,0,0,3.6-.77A8.73,8.73,0,0,0,88,56a13.67,13.67,0,0,0,2.25-4.1,27.39,27.39,0,0,0,1.31-6.67Q91.84,42.18,92.05,33.54Z" fill="#5c5098"/><path d="M142.53,57.34c-.32,1.55-.76,4.32-1.34,8.32a62,62,0,0,1-6.55,1.21,45.63,45.63,0,0,1-5.36.32,32.08,32.08,0,0,1-8.45-1,14.94,14.94,0,0,1-6.53-3.74,16.57,16.57,0,0,1-4.14-6.68,25.83,25.83,0,0,1-1.33-8.31,28.68,28.68,0,0,1,1.55-9.34,19.64,19.64,0,0,1,4.33-7.41,15.78,15.78,0,0,1,6.36-4.08,23.44,23.44,0,0,1,7.45-1.19,23.85,23.85,0,0,1,7,1,12.83,12.83,0,0,1,5.57,3.27,15.23,15.23,0,0,1,3.45,5.46,19.77,19.77,0,0,1,1.21,7.1,21,21,0,0,1-.36,3.8l-26.39,0c0,1-.07,1.74-.07,2.31a13.46,13.46,0,0,0,.83,4.83A9.94,9.94,0,0,0,122.15,57a9.77,9.77,0,0,0,3.78,2.26,13.78,13.78,0,0,0,4.32.72,26.61,26.61,0,0,0,5.38-.59A53,53,0,0,0,142.53,57.34ZM119.27,41.5l16.85,0a26,26,0,0,0-.11-2.77,10.24,10.24,0,0,0-.49-2.06,7.29,7.29,0,0,0-1-2A6.52,6.52,0,0,0,133,33.22a6.89,6.89,0,0,0-2-.9,9.09,9.09,0,0,0-2.43-.31,8.66,8.66,0,0,0-2.94.51A8.47,8.47,0,0,0,123,34a8.6,8.6,0,0,0-1.92,2.19,11,11,0,0,0-1.1,2.32A26,26,0,0,0,119.27,41.5Z" fill="#5c5098"/><path d="M151.17,66.25l.71-10.2.83-19.57.39-16.75q.08-4.55.07-7c2.52,0,4.3.08,5.35.08,1.25,0,2.89,0,4.92-.08l-.75,12.75-.86,20.31L161.47,61l0,5.3c-2.14,0-3.81-.08-5-.08C155,66.17,153.27,66.2,151.17,66.25Zm11.44-22.34L170,34.2c.63-.84,1.37-1.87,2.24-3.1s2-2.81,3.29-4.74c2.49.05,4.32.08,5.47.08q2.37,0,6-.08L175.09,41.17,173,44q2.63,4.56,14.6,22.26c-2.16,0-4-.08-5.55-.08s-3.45,0-5.73.08c-1.4-2.49-2.53-4.48-3.41-6s-1.69-2.82-2.43-3.94l-6.13-9.54C164.14,46.52,163.57,45.56,162.61,43.91Z" fill="#5c5098"/><path d="M224.32,57.34c-.31,1.55-.76,4.32-1.33,8.32a63,63,0,0,1-6.55,1.21,45.8,45.8,0,0,1-5.37.32,32,32,0,0,1-8.44-1,14.89,14.89,0,0,1-6.53-3.74A16.49,16.49,0,0,1,192,55.75a26.11,26.11,0,0,1-1.33-8.31,28.68,28.68,0,0,1,1.55-9.34,19.52,19.52,0,0,1,4.34-7.41,15.82,15.82,0,0,1,6.35-4.08,23.48,23.48,0,0,1,7.45-1.19,24,24,0,0,1,7,1,12.8,12.8,0,0,1,5.56,3.27,15.39,15.39,0,0,1,3.46,5.46,20,20,0,0,1,1.2,7.1,21,21,0,0,1-.36,3.8l-26.39,0c0,1-.07,1.74-.07,2.31a13.68,13.68,0,0,0,.83,4.83A10.06,10.06,0,0,0,203.94,57a9.92,9.92,0,0,0,3.78,2.26,13.87,13.87,0,0,0,4.32.72,26.54,26.54,0,0,0,5.38-.59A52.57,52.57,0,0,0,224.32,57.34ZM201.06,41.5l16.85,0a26,26,0,0,0-.11-2.77,10.87,10.87,0,0,0-.48-2.06,7.6,7.6,0,0,0-1-2,6.15,6.15,0,0,0-1.51-1.46,6.77,6.77,0,0,0-2-.9,9.09,9.09,0,0,0-2.43-.31,8.56,8.56,0,0,0-2.93.51,8.94,8.94,0,0,0-4.54,3.67,11,11,0,0,0-1.1,2.32A26,26,0,0,0,201.06,41.5Z" fill="#5c5098"/><polygon points="196.9 25.91 221.9 21.41 223.24 13.09 198.17 20.37 196.9 25.91" fill="#5c5098"/><path d="M39,3.78A19.2,19.2,0,0,0,21.7.89c-6.19,2-9.52,6.9-10.35,13.18a19.43,19.43,0,0,0,1,9.41,11.39,11.39,0,0,0,1.12,2.36C14.69,30,22.51,30.69,26,30.89c5.4.3,11.65-.35,16.16-3.58a2.49,2.49,0,0,0,1.07-2.09A3,3,0,0,0,45,22.54C45,15.45,45,8.57,39,3.78Z" fill="#f5d44f"/><path d="M33.22,59.72c-.06-1.91-1.24-3.6-1.2-5.47,0-1.08,1.54-1.68,2.64-1.32,2.82.92,3.8,3.11,4.26,5.54a21,21,0,0,1-.05,7.81c.59.06,1,.08,1.49.14,1.42.19,1.57,1.76-.16,2a26.52,26.52,0,0,1-4.63,0c-2.14-.1-2.42-2.16-2.5-3.56C33,63.13,33.28,61.42,33.22,59.72Z" fill="#f5d44f"/><path d="M23.31,59.84c.13-1.91,1.36-3.64,1.38-5.51,0-1.08-1.48-1.63-2.59-1.24-2.86,1-3.91,3.21-4.45,5.66a20.77,20.77,0,0,0-.2,7.8c-.59.08-1,.11-1.5.19-1.42.22-1.63,1.8.1,2a27.6,27.6,0,0,0,4.63-.14c2.15-.16,2.49-2.22,2.61-3.64C23.45,63.25,23.2,61.54,23.31,59.84Z" fill="#f5d44f"/><path d="M47,17.53c-.54-2.87-1.24-4-4-2.43A11.19,11.19,0,0,0,38,21.58c-.56-2.69-1.81-4.69-3.91-4.89-2.37-.23-4.59,2.64-4.75,5.5a10.63,10.63,0,0,0-6.36-5.4c-3.53-1-5.68,1-6.7,3.69-1.37-2.61-6.08-6.61-7.22-4.41C7.3,19.39,7.94,36.44,8.79,40.81c1.75,9,4.53,16.44,20.66,16.7,15,.25,19.05-8.2,18.79-18.78C48.07,32.3,48.24,24.17,47,17.53Z" fill="#e85d2e"/><path d="M18.31,36.73c-2-.33-3.86.94-5.6,1.86A31.51,31.51,0,0,1,7,41.16c-1.52.45-2.17-.5-2.31-1.61a6.8,6.8,0,0,1,1.34-4.63c1-1.68,2.74-2.56,4-4s-.61-2.56-1.87-2.2A11.41,11.41,0,0,0,0,38.47c-.27,3.2.73,6,3.94,6.86,2.81.8,6.09-.68,8.57-1.84,1.29-.61,2.54-1.29,3.8-2,1.07-.57,2.67-1,3.37-2A1.83,1.83,0,0,0,18.31,36.73Z" fill="#f5d44f"/><path d="M47.67,27.46c-.94.05-1.73,1.65-.87,2.25,2.09,1.48,10.33,6.08,4.93,8.36-1.72.73-4.6.18-6.19-.43C43.69,36.93,42,35.35,40,35c-1.07-.18-2.9.48-2.38,1.9.94,2.6,5.47,3.9,7.82,4.67,3.27,1.07,7.2,1.16,10-1.09C61.61,35.53,53.18,27.15,47.67,27.46Z" fill="#f5d44f"/><path d="M20.67,8.62c0,.11,0,.22,0,.33-.1,1.82-3.33,1.82-3.43,0,0-.11,0-.22,0-.33-.05-.89,1-1.39,1.74-1.39S20.72,7.73,20.67,8.62ZM37.68,7c-.74,0-1.78.5-1.73,1.39,0,.11,0,.22,0,.34.1,1.81,3.32,1.81,3.43,0,0-.12,0-.23,0-.34C39.47,7.47,38.43,7,37.68,7ZM31.15,9.46c-.26,1.44-1.28,2.88-2.92,2.57a2.39,2.39,0,0,1-1.53-1,2.71,2.71,0,0,1-.4-2.17.91.91,0,0,1,1.5-.16c.28.36.41.84.66,1.23,0,.08.09.15.13.22a2.64,2.64,0,0,0,.3-.91C29.09,7.88,31.41,8.07,31.15,9.46Z" fill="#50418f"/><path d="M33.58,27.74c-2.08-1-3.46,1.85-4.25,4.23-.62-1.93-2.12-4.91-3.88-3.69-1.1.77-.65,2.64-.17,3.61a16.23,16.23,0,0,0,3.56,4.67,1.09,1.09,0,0,0,1.64-.23C31.29,34.91,36.49,29.13,33.58,27.74Z" fill="#5c5098"/></g></g></svg>