<svg xmlns="http://www.w3.org/2000/svg" width="303.36" height="130.16" viewBox="0 0 227.52 97.62"><defs><clipPath id="a"><path d="M190 25h37.52v43H190zm0 0"/></clipPath><clipPath id="b"><path d="M133 78h13v19.621h-13zm0 0"/></clipPath></defs><path d="M92.05 33.54c-1.796-.52-3.527-.782-5.183-.782-1.894 0-3.707.289-5.433.863-1.73.574-3.262 1.555-4.59 2.941-1.332 1.387-2.36 3.165-3.078 5.333-.723 2.171-1.082 4.265-1.082 6.277 0 2.016.332 3.855.988 5.531.66 1.672 1.687 2.992 3.078 3.961 1.395.969 2.965 1.45 4.719 1.45 1.316 0 2.52-.255 3.597-.766 1.082-.508 2.063-1.293 2.954-2.352.886-1.059 1.636-2.426 2.25-4.098.609-1.671 1.046-3.894 1.312-6.668.168-2.039.328-5.933.469-11.69m8.898 32.714a177.675 177.675 0 00-4.648-.078c-1.2 0-2.856.023-4.969.078l.32-6.824c-1.058 1.488-1.96 2.636-2.718 3.449-.758.812-1.692 1.562-2.809 2.254a13.013 13.013 0 01-3.617 1.55c-1.293.34-2.64.508-4.031.508-2.305 0-4.461-.457-6.48-1.37a14.654 14.654 0 01-5.145-3.864c-1.418-1.66-2.461-3.633-3.133-5.922-.672-2.285-1.004-4.672-1.004-7.156 0-3.426.594-6.766 1.797-10.024 1.195-3.253 2.84-5.886 4.925-7.902 2.086-2.012 4.45-3.437 7.086-4.273 2.637-.836 5.47-1.258 8.489-1.258 2.183 0 4.652.223 7.41.668.18-3.399.27-6.969.27-10.707v-2.668c2.257.055 3.988.078 5.19.078 1.56 0 3.313-.023 5.259-.078-.528 6.644-1.024 15.683-1.493 27.125-.464 11.437-.699 20.242-.699 26.414M119.27 41.504l16.847.039c0-1.25-.035-2.172-.11-2.773-.07-.598-.234-1.282-.484-2.051a7.194 7.194 0 00-1.027-2.032 6.177 6.177 0 00-1.512-1.464c-.574-.391-1.242-.688-1.996-.899a9.178 9.178 0 00-2.43-.312 8.657 8.657 0 00-5.543 1.992 8.671 8.671 0 00-1.93 2.187c-.491.809-.855 1.582-1.097 2.325-.242.742-.48 1.738-.718 2.988m23.253 15.844c-.308 1.543-.753 4.316-1.328 8.316-2.593.602-4.78 1.008-6.554 1.215-1.774.21-3.563.316-5.364.316-3.144 0-5.957-.343-8.441-1.02-2.484-.679-4.664-1.929-6.535-3.741-1.871-1.817-3.254-4.043-4.14-6.684-.891-2.637-1.333-5.406-1.333-8.305 0-3.215.516-6.328 1.55-9.343 1.032-3.02 2.477-5.489 4.337-7.41 1.86-1.919 3.976-3.278 6.351-4.075a23.308 23.308 0 017.454-1.195c2.449 0 4.777.332 6.984 1 2.21.664 4.062 1.754 5.562 3.27 1.5 1.511 2.653 3.335 3.457 5.46.805 2.125 1.207 4.496 1.207 7.106 0 1.226-.12 2.492-.359 3.797l-26.39.039c-.047.968-.07 1.738-.07 2.312 0 1.754.273 3.36.823 4.824.555 1.465 1.36 2.708 2.414 3.727 1.055 1.02 2.317 1.773 3.782 2.254 1.465.484 2.902.727 4.32.727 1.656 0 3.45-.196 5.379-.59 1.934-.391 4.23-1.059 6.894-2M162.613 43.918l7.336-9.719c.63-.836 1.375-1.867 2.242-3.094a400.314 400.314 0 003.29-4.742c2.492.055 4.316.078 5.464.078 1.582 0 3.582-.023 6.004-.078l-11.863 14.809-2.125 2.824c1.754 3.035 6.621 10.453 14.601 22.258a222.278 222.278 0 00-5.55-.078c-1.54 0-3.45.023-5.735.078a372.026 372.026 0 00-3.406-5.988 83.079 83.079 0 00-2.434-3.946l-6.128-9.539c-.168-.261-.735-1.215-1.696-2.863m-11.449 22.336l.719-10.2.824-19.57.395-16.746c.046-3.035.07-5.375.07-7.023 2.512.055 4.297.078 5.351.078 1.243 0 2.883-.023 4.918-.078l-.754 12.746-.859 20.316-.36 15.18-.034 5.297a203.77 203.77 0 00-5.028-.078c-1.386 0-3.136.023-5.242.078" fill="#fff"/><g clip-path="url(#a)"><path d="M201.063 41.504l16.847.039c0-1.25-.035-2.172-.11-2.773-.07-.598-.234-1.282-.484-2.051a7.194 7.194 0 00-1.027-2.032 6.162 6.162 0 00-1.508-1.464 6.784 6.784 0 00-2-.899 9.178 9.178 0 00-2.43-.312 8.657 8.657 0 00-5.543 1.992 8.748 8.748 0 00-1.93 2.187c-.487.809-.855 1.582-1.093 2.325-.242.742-.484 1.738-.722 2.988m23.257 15.844c-.312 1.543-.757 4.316-1.332 8.316-2.593.602-4.777 1.008-6.55 1.215-1.778.21-3.567.316-5.364.316-3.148 0-5.96-.343-8.445-1.02-2.484-.679-4.664-1.929-6.535-3.741-1.871-1.817-3.254-4.043-4.14-6.684-.888-2.637-1.333-5.406-1.333-8.305 0-3.215.52-6.328 1.55-9.343 1.032-3.02 2.477-5.489 4.337-7.41 1.86-1.919 3.976-3.278 6.355-4.075a23.266 23.266 0 017.45-1.195c2.449 0 4.777.332 6.984 1 2.207.664 4.062 1.754 5.562 3.27 1.5 1.511 2.653 3.335 3.457 5.46.805 2.125 1.207 4.496 1.207 7.106 0 1.226-.12 2.492-.359 3.797l-26.39.039c-.047.968-.07 1.738-.07 2.312 0 1.754.276 3.36.827 4.824.551 1.465 1.356 2.708 2.41 3.727 1.055 1.02 2.317 1.773 3.782 2.254 1.464.484 2.902.727 4.32.727 1.656 0 3.453-.196 5.379-.59 1.933-.391 4.234-1.059 6.898-2" fill="#fff"/></g><path d="M196.902 25.914l25-4.5 1.332-8.316-25.058 7.277zm0 0" fill="#fff"/><path d="M38.953 3.79C34.258.07 27.34-.935 21.703.89c-6.195 2.005-9.523 6.903-10.355 13.188-.418 3.16-.149 6.414.98 9.402.184.48.57 1.56 1.121 2.364 1.242 4.125 9.059 4.851 12.582 5.047 5.403.3 11.645-.344 16.157-3.575a2.504 2.504 0 001.07-2.097c1-.52 1.71-1.41 1.71-2.68.009-7.082.012-13.969-6.015-18.75M33.223 59.723c-.063-1.907-1.243-3.602-1.203-5.47.02-1.081 1.539-1.675 2.636-1.316 2.824.922 3.801 3.11 4.262 5.54.383 2 .555 5.543-.05 7.804.589.059.976.082 1.495.149 1.414.18 1.57 1.754-.164 1.976-1.562.2-3.058.063-4.625-.011-2.144-.102-2.422-2.157-2.5-3.563-.097-1.691.203-3.41.149-5.11M23.313 59.844c.12-1.91 1.359-3.64 1.382-5.508.012-1.086-1.488-1.633-2.597-1.242-2.852.996-3.903 3.215-4.446 5.656-.445 2.012-.73 5.563-.199 7.809-.594.074-.984.109-1.5.187-1.422.223-1.629 1.8.098 1.977 1.558.156 3.058-.024 4.625-.145 2.152-.156 2.492-2.219 2.617-3.629.156-1.699-.09-3.406.02-5.105" fill="#f5d34f"/><path d="M47.008 17.54c-.535-2.876-1.242-4.02-3.977-2.435-2.367 1.375-4.312 3.747-5.078 6.48-.562-2.687-1.812-4.69-3.914-4.89-2.375-.23-4.586 2.645-4.746 5.5-1.34-2.527-3.512-4.566-6.363-5.394-3.528-1.028-5.676.965-6.703 3.687-1.368-2.613-6.082-6.617-7.215-4.414C7.3 19.398 7.945 36.441 8.793 40.82c1.746 9.016 4.527 16.434 20.66 16.7 15.031.246 19.047-8.2 18.781-18.782-.16-6.433.008-14.566-1.226-21.199" fill="#e85d2d"/><path d="M18.316 36.738c-2.05-.332-3.867.942-5.609 1.86-1.824.957-3.687 1.984-5.676 2.566-1.523.445-2.168-.5-2.308-1.61-.223-1.796.41-3.09 1.34-4.632 1.011-1.68 2.742-2.559 3.96-4.02 1.196-1.43-.609-2.554-1.867-2.199C3.746 29.938.414 34.051.043 38.48c-.27 3.192.73 5.95 3.934 6.86 2.812.797 6.093-.68 8.574-1.848 1.289-.605 2.539-1.289 3.8-1.949 1.07-.563 2.669-1.016 3.364-2.047.785-1.16-.106-2.547-1.399-2.758M47.672 27.465c-.942.055-1.73 1.644-.875 2.254 2.09 1.476 10.328 6.074 4.933 8.355-1.722.727-4.597.184-6.187-.43-1.852-.714-3.586-2.285-5.535-2.62-1.07-.184-2.899.48-2.38 1.902.942 2.601 5.47 3.898 7.821 4.672 3.27 1.066 7.203 1.152 9.992-1.094 6.168-4.973-2.257-13.352-7.77-13.04" fill="#f5d34f"/><path d="M31.156 9.469c-.261 1.433-1.281 2.879-2.93 2.566a2.389 2.389 0 01-1.523-1.02c-.371-.574-.656-1.507-.406-2.171.226-.598 1.14-.63 1.504-.156.281.363.406.835.656 1.23.047.078.094.148.137.215.16-.274.246-.602.293-.91.203-1.34 2.52-1.153 2.27.246m6.523-2.492c-.742 0-1.782.496-1.73 1.386.007.11.01.223.015.336.105 1.82 3.332 1.82 3.433 0 .004-.113.012-.226.02-.336.05-.89-.992-1.386-1.738-1.386m-17.008 1.64c-.012.113-.016.227-.02.34-.105 1.82-3.328 1.82-3.43 0-.007-.113-.011-.227-.019-.34-.05-.887.992-1.383 1.73-1.383.747 0 1.786.496 1.739 1.383" fill="#50418f"/><path d="M33.586 27.742c-2.09-1.004-3.465 1.856-4.25 4.23-.625-1.929-2.129-4.906-3.883-3.687-1.101.766-.656 2.64-.176 3.613.86 1.735 2.137 3.356 3.567 4.665.488.449 1.304.335 1.633-.231.812-1.414 6.011-7.191 3.109-8.59" fill="#5c5097"/><path d="M71.523 90.625c-.085.34-.144.648-.175.938a15.143 15.143 0 01-2.93.308 7.853 7.853 0 01-2.402-.355 4.728 4.728 0 01-1.922-1.157c-.535-.53-.934-1.195-1.192-2-.261-.8-.39-1.64-.39-2.523 0-1.203.203-2.348.613-3.434.406-1.086 1.055-1.941 1.953-2.574.89-.629 2.102-.941 3.625-.941 1.113 0 2.172.148 3.176.457.008.27.039.558.086.863-.856-.266-1.528-.437-2.012-.516a8.516 8.516 0 00-1.336-.117c-.867 0-1.633.168-2.297.5a4.58 4.58 0 00-1.664 1.414 5.848 5.848 0 00-.941 2.043 9.571 9.571 0 00-.278 2.27c0 .812.106 1.574.31 2.281.206.707.538 1.285.987 1.73a4.515 4.515 0 001.672 1.016 6.123 6.123 0 002.074.356c.403 0 .832-.04 1.286-.121.453-.079 1.039-.223 1.757-.438M74.512 91.625c.379-6.871.601-12.492.668-16.867.215.008.382.012.504.012.125 0 .293-.004.507-.012l-.308 6.015-.356 10.852a14.727 14.727 0 00-.507-.012c-.125 0-.293.004-.508.012M84.93 79.578a5.4 5.4 0 00-2.73.715c-.84.477-1.458 1.207-1.856 2.184-.395.98-.594 2.054-.594 3.222 0 .824.117 1.598.344 2.32.226.727.59 1.336 1.09 1.833.504.5 1.046.843 1.625 1.039.582.195 1.195.289 1.84.289a5.9 5.9 0 002.062-.356c.64-.238 1.207-.64 1.7-1.199.487-.559.85-1.246 1.081-2.063a9.45 9.45 0 00.344-2.59c0-.847-.113-1.644-.34-2.39-.226-.742-.578-1.34-1.055-1.789a4.04 4.04 0 00-1.632-.945 6.602 6.602 0 00-1.88-.27m.024-.691c.77 0 1.512.105 2.227.32a4.71 4.71 0 011.898 1.094c.547.511.965 1.187 1.254 2.02.285.831.434 1.714.434 2.644a9.05 9.05 0 01-.461 2.89c-.305.922-.735 1.696-1.297 2.32a4.598 4.598 0 01-1.973 1.313 7.34 7.34 0 01-2.402.387c-.594 0-1.176-.07-1.746-.203a5.193 5.193 0 01-1.61-.688 4.956 4.956 0 01-1.308-1.25 5.46 5.46 0 01-.852-1.816 8.1 8.1 0 01-.293-2.188c0-1.328.25-2.539.742-3.636.493-1.102 1.235-1.914 2.22-2.43a6.692 6.692 0 013.167-.777M98.5 90.848a5.954 5.954 0 00-.148.777 7.76 7.76 0 01-1.84.246c-.473 0-.89-.047-1.254-.152a1.776 1.776 0 01-.899-.559 2.032 2.032 0 01-.457-.887 4.669 4.669 0 01-.109-1.043c0-.07 0-.171.004-.312.004-.137.02-.45.047-.926l.41-8.18H92.73c.032-.222.051-.445.06-.667h1.51c.044-.52.075-1.293.102-2.325.313-.039.582-.093.813-.16a72.124 72.124 0 00-.09 2.485h3.71a6.444 6.444 0 00-.065.668h-3.688l-.402 8.468-.016.504c0 .692.082 1.195.242 1.508.16.312.387.539.684.676.293.144.594.21.906.21.223 0 .461-.015.711-.054.254-.035.684-.129 1.293-.277M100.54 91.625l.37-8.059c.024-.78.074-2.796.149-6.054l.074-2.754c.187.008.344.012.469.012.14 0 .3-.004.484-.012l-.336 7.219c.188-.391.352-.696.488-.918.133-.223.32-.45.547-.688a4.611 4.611 0 011.613-1.05 6.67 6.67 0 011.153-.313 7.553 7.553 0 011.39-.121 8.84 8.84 0 012.04.226c.64.153 1.19.407 1.64.766.453.36.77.789.942 1.293.171.504.257 1.004.257 1.508 0 .164-.004.394-.011.691-.016.453-.051 1.067-.102 1.84l-.203 5.031c-.016.32-.035.781-.05 1.383a14.22 14.22 0 00-.49-.012c-.12 0-.288.004-.5.012a66.58 66.58 0 00.22-3.215l.171-3.012c.06-.93.086-1.734.086-2.41 0-.785-.144-1.422-.437-1.918-.29-.492-.781-.867-1.469-1.117a6.353 6.353 0 00-2.183-.379c-.508 0-1.012.063-1.508.176-.461.105-.864.25-1.211.434a3.43 3.43 0 00-.79.554 4.35 4.35 0 00-.695.84 6.259 6.259 0 00-.554 1.234c-.14.422-.246.989-.32 1.696-.06.55-.118 1.633-.172 3.238l-.098 3.879a14.484 14.484 0 00-.484-.012c-.106 0-.266.004-.48.012M115.578 75.98l.035-1.226c.207.012.418.016.633.016.215 0 .426-.004.629-.016l-.035 1.226a6.718 6.718 0 00-.63-.023c-.218 0-.425.004-.632.023m-.457 15.645c.094-1.234.2-3.387.324-6.46.121-3.075.184-5.083.184-6.02.21.007.375.011.488.011.121 0 .29-.004.5-.011-.113 1.566-.226 3.699-.34 6.398-.109 2.707-.168 4.734-.168 6.082-.21-.008-.379-.012-.492-.012-.117 0-.281.004-.496.012M119.672 91.625l.418-7.55.11-3.548c.019-.632.027-1.093.027-1.382.214.007.375.011.48.011.102 0 .258-.004.473-.011l-.168 2.816c.18-.387.332-.684.453-.883a3.96 3.96 0 01.488-.648c.203-.23.45-.45.734-.649a3.939 3.939 0 011.028-.508 6.893 6.893 0 011.23-.296 8.844 8.844 0 013.266.14c.648.156 1.187.43 1.617.813.43.382.723.824.887 1.32.156.5.238 1.031.238 1.602 0 .253-.012.632-.035 1.136l-.262 5.621-.047 2.016a10.231 10.231 0 00-.953 0c.082-1.027.149-2.016.196-2.953l.171-3.164c.067-1.168.098-2.016.098-2.531 0-.543-.078-1.032-.234-1.461a2.29 2.29 0 00-.813-1.07 3.795 3.795 0 00-1.363-.618 7.038 7.038 0 00-1.629-.187c-.781 0-1.477.105-2.074.32a4.355 4.355 0 00-1.496.906c-.43.403-.778.906-1.051 1.516-.207.441-.363 1.066-.469 1.863-.097.692-.18 1.824-.238 3.395a102.78 102.78 0 00-.094 3.984 14.59 14.59 0 00-.496-.012c-.113 0-.277.004-.492.012" fill="#fff"/><g clip-path="url(#b)"><path d="M144.777 79.898a17.579 17.579 0 00-1.875-.273 19.146 19.146 0 00-1.25-.047c-.945 0-1.824.106-2.629.32a5.423 5.423 0 00-2.218 1.211c-.672.594-1.192 1.356-1.563 2.286a7.755 7.755 0 00-.558 2.894c0 .953.171 1.816.515 2.594.34.773.871 1.36 1.594 1.746.719.394 1.516.59 2.39.59a6.57 6.57 0 001.657-.2 3.88 3.88 0 001.12-.476 4.545 4.545 0 001.005-.871 5.72 5.72 0 00.847-1.277c.243-.489.418-.989.528-1.504.137-.715.234-1.633.293-2.754zm-9.957 16.239c1.09.312 1.985.523 2.696.629.707.109 1.359.16 1.953.16.699 0 1.351-.09 1.953-.27a4.42 4.42 0 001.406-.656c.348-.254.613-.54.805-.852.222-.37.39-.832.5-1.386.113-.551.18-1.14.207-1.778.058-1.023.097-2.175.125-3.46-.164.394-.309.706-.426.933a3.998 3.998 0 01-.5.715c-.215.254-.465.48-.75.68-.281.203-.61.386-.976.546-.368.16-.774.286-1.22.375a6.696 6.696 0 01-1.382.137 7.311 7.311 0 01-2.133-.297 4.523 4.523 0 01-1.758-1c-.511-.472-.902-1.074-1.168-1.812a6.906 6.906 0 01-.394-2.328c0-1.114.199-2.18.594-3.203.394-1.02.957-1.86 1.687-2.524a6.472 6.472 0 012.527-1.43c.954-.289 1.989-.433 3.102-.433 1.129 0 2.496.144 4.102.433l-.125 1.422c-.024.27-.051.625-.075 1.063l-.273 5.66-.145 5.176a7.638 7.638 0 01-.246 1.648 4.42 4.42 0 01-.64 1.371c-.29.403-.653.746-1.09 1.024-.438.28-.988.504-1.656.668-.723.183-1.54.273-2.446.273-.668 0-1.32-.035-1.953-.105a19.396 19.396 0 01-2.215-.403 10.94 10.94 0 00-.086-.976" fill="#fff"/></g></svg>