<svg xmlns="http://www.w3.org/2000/svg" viewBox="0 0 282.02 243.66"><defs><style>.cls-1{fill:#f5d44f;}</style></defs><title>Ресурс 1</title><g id="Слой_2" data-name="Слой 2"><g id="Слой_1-2" data-name="Слой 1"><path class="cls-1" d="M82.38,53.7a2.68,2.68,0,0,0-.88-3,3.36,3.36,0,0,1-.29-.24,3.34,3.34,0,0,0-.94-2.28C76.46,44,72.48,40,68.39,36.21A48.94,48.94,0,0,0,74.6,20.55a3.43,3.43,0,0,0-.65-2.8.3.3,0,0,1,0-.08c1.11-2.07-.44-4.47-2.31-5a2.94,2.94,0,0,0-4.12.37,76.6,76.6,0,0,0-10.3,13.5c-1.29-1.06-2.6-2.09-3.92-3.12-1.22-1.44-2.48-2.85-3.66-4.34a2.72,2.72,0,0,0-3.26-.83q-3.31-2.38-6.7-4.65c-3.16-2.09-6.78,2.65-4,5.23,1.83,1.74,3.68,3.47,5.51,5.2q5.63,5.85,11.56,11.33a77.63,77.63,0,0,0-3.51,9.92,3.14,3.14,0,0,0,0,1.83c-.59,1.43-1.15,2.88-1.66,4.37a2.88,2.88,0,0,0,.15,2.45q-1.32,2.76-2.65,5.52c-1.82,3.82,3.65,7.16,5.76,3.36,2.52-4.54,4.93-9.14,7.29-13.76a3.31,3.31,0,0,0,2.76-2.22c.2-.58.44-1.14.66-1.72a137.74,137.74,0,0,0,21,17.84c3.13,2.17,6.77-2.65,4-5.22C85.2,56.37,83.8,55,82.38,53.7Z"/><path class="cls-1" d="M168.07,58.94,156.8,50.87a3.43,3.43,0,0,0-2.09-4.45c-1.65-.62-3.29-1.25-4.91-1.92a34.4,34.4,0,0,0,.17-5.28c.44-2.06.81-4.13,1.11-6.23A47.06,47.06,0,0,1,156,28.24c3.3-2.74-1.43-7.43-4.71-4.71l-.37.33a3.77,3.77,0,0,0-5.64,1.57c-.09.21-.17.43-.26.65a3.14,3.14,0,0,0-3.27,1.56q-2.62,4.39-4.87,8.94l-12.7-9.1a2.94,2.94,0,0,0-4,.57l-.6-.42c-3.49-2.51-6.8,3.26-3.37,5.75,1.51,1.09,3,2.15,4.57,3.17,1.09.76,2.17,1.54,3.27,2.28a3.62,3.62,0,0,0,.92.91c2.23,1.54,4.49,3,6.8,4.27l1.33.84a126.47,126.47,0,0,0-7,22.83c-.86,4.19,5.55,6,6.42,1.77.2-1,.44-2,.67-3a3.37,3.37,0,0,0,5,.54c.34-.3.65-.64,1-1a0,0,0,0,1,0,0,36.14,36.14,0,0,0,8.18-12.21L164.7,64.69C168.4,67,171.49,61.4,168.07,58.94Z"/><path class="cls-1" d="M130.32,116.67l-11.26-8.08a3.42,3.42,0,0,0-2.09-4.44c-1.66-.62-3.3-1.25-4.92-1.92a34.4,34.4,0,0,0,.17-5.28c.44-2.06.82-4.13,1.11-6.23A47.06,47.06,0,0,1,118.24,86c3.31-2.74-1.43-7.43-4.71-4.71l-.36.33a3.78,3.78,0,0,0-5.65,1.57c-.08.21-.16.43-.25.65A3.15,3.15,0,0,0,104,85.37q-2.62,4.39-4.87,8.94l-12.69-9.1a3,3,0,0,0-4,.57l-.59-.42c-3.5-2.51-6.81,3.26-3.37,5.75q2.25,1.64,4.56,3.17c1.09.76,2.18,1.54,3.28,2.28a3.57,3.57,0,0,0,.91.91c2.24,1.54,4.5,3,6.81,4.27l1.32.84a127.27,127.27,0,0,0-7,22.83c-.86,4.18,5.56,6,6.43,1.77.2-1,.43-2,.66-3a3.39,3.39,0,0,0,5.06.54c.34-.31.65-.64,1-1l0,0a36,36,0,0,0,8.18-12.21L127,122.42C130.65,124.74,133.75,119.12,130.32,116.67Z"/><path class="cls-1" d="M153.66,156.23c-4.21-2.53-8.51-4.78-12.89-6.86,0-.15,0-.31.08-.47a84.85,84.85,0,0,0,1.86-18.16,3.07,3.07,0,0,0-1.08-2.43,3.2,3.2,0,0,0-4.74-2.1c-5.44,1.41-6.14,7.68-7.26,12.94-.36,1.7-.64,3.4-.92,5.12q-1.79-.68-3.6-1.29L119,140.12a3.58,3.58,0,0,0-3.86-5c-4.48.85-4.74,4.2-3.31,7.17a2.82,2.82,0,0,0,1.7,2.58l.05,0a10.46,10.46,0,0,0,1.25,1.17,60.58,60.58,0,0,0,10.64,6.49c.62.45,1.25.88,1.89,1.3-.39,1.85-.78,3.7-1.09,5.58a3.43,3.43,0,0,0,.67,2.69c-.06,1.79-.1,3.59-.1,5.39-.3.74-.58,1.49-.89,2.24-1.62,3.82,3.57,7.2,5.76,3.35a84.56,84.56,0,0,0,5.29-11.2c.39-.94.75-1.88,1.09-2.82a53.82,53.82,0,0,0,5.29,1.56,3.17,3.17,0,0,0,2.81-.61l4.14,1.92C154.12,163.75,157.4,158.47,153.66,156.23Z"/><path class="cls-1" d="M209.17,225.06c-4.21-2.52-8.51-4.77-12.89-6.85,0-.16.05-.32.08-.47a85,85,0,0,0,1.86-18.17,3.09,3.09,0,0,0-1.08-2.43,3.2,3.2,0,0,0-4.74-2.1c-5.44,1.41-6.15,7.67-7.26,12.93-.36,1.71-.64,3.42-.92,5.13q-1.78-.66-3.6-1.29L174.47,209a3.57,3.57,0,0,0-3.86-5c-4.48.84-4.74,4.19-3.31,7.17a2.79,2.79,0,0,0,1.7,2.56l0,0a11.47,11.47,0,0,0,1.26,1.18,61.76,61.76,0,0,0,10.64,6.48c.62.45,1.25.89,1.89,1.3-.39,1.85-.78,3.7-1.09,5.58a3.42,3.42,0,0,0,.67,2.69c-.07,1.8-.1,3.59-.1,5.39-.3.74-.58,1.49-.89,2.23-1.62,3.82,3.57,7.21,5.75,3.37a85.16,85.16,0,0,0,5.3-11.2c.39-.94.75-1.88,1.09-2.83a51.22,51.22,0,0,0,5.29,1.56,3.14,3.14,0,0,0,2.81-.61l4.14,1.92C209.63,232.58,212.91,227.3,209.17,225.06Z"/><path class="cls-1" d="M209.47,113.76l4.11.46c3.74.43,4.51-5.71.88-6.53a134.52,134.52,0,0,1-19.57-6,29.46,29.46,0,0,0,1.39-10.7c.34-.51.64-1,1-1.54a2.88,2.88,0,0,0-.85-4.19c.22-.95.46-1.91.66-2.87.73-3.52-3.63-5.33-5.61-3.28a3.17,3.17,0,0,0-2.81.93,47,47,0,0,0-8.43,14.29l-.56-.26c-2.24-1.71-4.45-3.51-6.58-5.4-3.19-2.84-7.92,1.86-4.71,4.71.8.71,1.62,1.37,2.42,2.06A3.06,3.06,0,0,0,172.47,98c1.91,1.13,3.85,2.21,5.79,3.24a46.17,46.17,0,0,0-.82,10.27c-.29.67-.62,1.31-.91,2a3.64,3.64,0,0,0,1.35,4.6c.08.11.16.23.25.34.49,2.72,4.91,3.29,6.08.77.71-1.53,1.35-3.1,2-4.65a28.09,28.09,0,0,0,4.84-5.28,124.84,124.84,0,0,0,14.47,6.77C207.63,116.88,209.1,115.49,209.47,113.76Z"/><path class="cls-1" d="M188.62,15.92A111.09,111.09,0,0,0,201,23.36a58.62,58.62,0,0,0-3.33,13.25c-.26,2.07,1.23,3.08,2.87,3.14a3.24,3.24,0,0,0,3.88-1.34c2.06-3.19,3.93-6.46,5.72-9.78l.18-.32,8.57,6c2,1.4,4.36-.23,4.93-2.2,1.9.49,3.8.92,5.74,1.31,3,.6,5.95-3.21,3.24-5.56L231,26.25a3.32,3.32,0,0,0-4.09-.29,102.69,102.69,0,0,1-13.19-4.17A109.72,109.72,0,0,0,219.26,8a.27.27,0,0,0,0-.12c.84-.79,1.68-1.58,2.58-2.31,3.32-2.72-1.41-7.41-4.71-4.71a53.35,53.35,0,0,0-12.79,15.28l-9.57-6.65a2.76,2.76,0,0,0-3.77.34C187.45,8.47,185.79,13.94,188.62,15.92Z"/><path class="cls-1" d="M82.07,157.35c-4.91-2.71-9.72-5.56-14.49-8.46a85.87,85.87,0,0,0,5.85-20.2c.66-4.12-5.5-5.93-6.37-2-1.76-.77-4.16-.24-4.58,2a139.15,139.15,0,0,1-3.58,14.72q-5.61-3.6-11.11-7.38l-2.06-1.51a2.91,2.91,0,0,0-.62-.34c-.6-.42-1.21-.81-1.8-1.24-3.51-2.47-6.84,3.3-3.37,5.76.61.43,1.24.83,1.85,1.26l.29.42a10.64,10.64,0,0,0-1.57.87c-2.55,1.73-1.85,5,.8,6.09l14.16,6c-1.56,4-3.31,8-5.28,11.87-1.6,3.16,2.75,7.17,5.22,4,.19-.22.34-.45.52-.68h0a.24.24,0,0,1,0-.07c.61-.8,1.21-1.6,1.79-2.4,1.58,1.58,4.89,1.53,5.72-1.3.71-2.42,1.34-4.86,1.9-7.3.39.15.77.32,1.16.48l8.61,6.3a2.77,2.77,0,0,0,4.22-.91l.13.05C83,164.91,85.31,159.15,82.07,157.35Z"/><path class="cls-1" d="M248,177.26l-16.5-6.2c1.44-4.41,2.74-8.87,3.83-13.41a3.12,3.12,0,0,0-1-3.25c.21-1,.43-2.05.62-3.08.63-3.49-4.23-6.14-6.09-2.57a91.93,91.93,0,0,0-7.08,17.81c-3-2.2-5.88-4.53-8.67-7-3.19-2.84-7.92,1.85-4.71,4.71.62.55,1.25,1.09,1.88,1.63-.94,1.54-.89,3.77,1,4.67,2.88,1.35,5.72,2.78,8.57,4.18-.14.78-.31,1.55-.43,2.33l-.9,2.06c0,.09-.06.18-.09.27-1,2-2.09,4-3.2,5.93-1.8,3.2,2.14,6.1,4.64,4.55,1.54,1,3.85.92,4.72-1,1.44-3.22,2.75-6.48,4-9.77a2.69,2.69,0,0,0,.29.16A122.64,122.64,0,0,0,240,185a3.51,3.51,0,0,0,4.69-1.7l1.56.35C250.5,184.64,252,178.75,248,177.26Z"/><path class="cls-1" d="M281.18,82.32C278,78.58,268.66,78.17,264,76.71c.89-2.43,1.68-4.91,2.41-7.41q2.64-5,5.42-10c1.93-3.45-2.78-6.55-5.18-4.12a3.45,3.45,0,0,0-4.19,2.17q-3.36,8.19-6.15,16.56a145,145,0,0,1-16.63-8c-3.75-2.1-7.11,3.65-3.36,5.75A151.46,151.46,0,0,0,253.59,80q-4.64,9.57-8.84,19.34c-1.67,3.89,3.25,7,5.75,3.36,1.39-2,2.68-4,3.93-6.09a3.47,3.47,0,0,0,2.8-2.24q2.14-5.37,4-10.81l.28-.63c1.54.51,3.08,1,4.62,1.47,2,.59,9.06,1.14,10.34,2.66C279.24,90.3,283.94,85.57,281.18,82.32Z"/><path class="cls-1" d="M40.71,103.35c4.25-.18,4.29-6.76.08-6.66a3.85,3.85,0,0,0-1.43-.9L26.13,90.93q0-3.23.12-6.47a2.94,2.94,0,0,0-1.39-2.68,80.67,80.67,0,0,1,1.29-8.59c.85-4.18-5.57-6-6.43-1.77a89.81,89.81,0,0,0-1.8,16.45,56.72,56.72,0,0,1-7.77-5.81,3.47,3.47,0,0,0-5.37,1l-.6-.22C1,81.72-1.4,86.26.93,88.45A55.17,55.17,0,0,0,17,99a77.4,77.4,0,0,0,.12,13.35c.4,4.23,7.07,4.27,6.66,0a1.15,1.15,0,0,1,0-.19,3,3,0,0,0,3.1-3.22c-.2-2.3-.35-4.6-.47-6.9A54.84,54.84,0,0,0,40.71,103.35Z"/></g></g></svg>