<svg xmlns="http://www.w3.org/2000/svg" viewBox="0 0 72 72"><title>Ресурс 1</title><g id="Слой_2" data-name="Слой 2"><g id="Capa_1" data-name="Capa 1"><path d="M61.45,0H10.55A10.56,10.56,0,0,0,0,10.55v50.9A10.56,10.56,0,0,0,10.55,72h50.9A10.56,10.56,0,0,0,72,61.45V10.55A10.56,10.56,0,0,0,61.45,0ZM53.59,40.12c.12,2.05,3.26,4,4.88,5.69,1.31,1.34,4.17,3.59,3.65,5.88-.48,2.1-3.62,1.34-6.67,1.46-3.48.15-5.54.22-7.63-1.46a22.38,22.38,0,0,1-2.51-2.8c-.86-1-1.94-2.67-3.42-2.6-2.64.13-1.82,3.82-2.76,6.34C24.42,54.94,18.51,45.85,13.3,37c-2.53-4.27-6.17-13.45-6.17-13.45l10.4,0s3.34,6.07,4.22,7.63a37.47,37.47,0,0,0,2.44,3.58c.71,1,1.85,2.92,3.09,2.76,2-.26,2.38-8.08,1.13-10.71-.5-1.06-1.69-1.43-2.93-1.79.42-2.63,11.67-3.18,13.49-1.14,2.64,3-1.83,11.23,1.79,13.64,5.08-2.66,9.42-13.81,9.42-13.81l12.18.08s-1.9,6-3.9,8.69C57.3,34.05,53.44,37.54,53.59,40.12Z" fill="#fff"/></g></g></svg>