<svg version="1.2" baseProfile="tiny" viewBox="0 0 1024 768">
  <path fill="#fff" d="M860.61 748.87l-57.38-534.63c-.96-8.61-8.61-15.3-17.22-15.3H679.85v-32.52C679.85 74.6 605.25 0 513.44 0c-91.82 0-166.42 74.6-166.42 166.42v32.52H237.99c-8.61 0-16.26 6.7-17.21 15.3L163.4 748.87c-.96 4.78.96 9.56 3.83 13.39s7.65 5.74 12.43 5.74h664.71c4.78 0 9.56-1.91 12.43-5.74 2.86-3.82 4.77-8.61 3.81-13.39zM662.64 295.53c8.61 0 15.3 6.7 15.3 15.3s-6.7 15.3-15.3 15.3c-8.61 0-15.3-6.7-15.3-15.3s6.69-15.3 15.3-15.3zM381.45 166.42c0-72.69 59.3-131.99 131.99-131.99 72.69 0 131.98 59.3 131.98 131.99v32.52H381.45v-32.52zm-17.22 129.11c8.61 0 15.3 6.7 15.3 15.3s-6.7 15.3-15.3 15.3-15.3-6.7-15.3-15.3 6.7-15.3 15.3-15.3zm-164.5 437.08l53.56-500.2h93.73v31.56c-19.13 6.7-32.52 24.87-32.52 45.91 0 26.78 22 48.78 48.78 48.78s48.78-22 48.78-48.78c0-21.04-13.39-39.21-32.52-45.91v-31.56h263.97v31.56c-19.13 6.7-32.52 24.87-32.52 45.91 0 26.78 22 48.78 48.78 48.78s48.78-22 48.78-48.78c0-21.04-13.39-39.21-32.52-45.91v-31.56h97.55l53.56 500.2H199.73z"/>
</svg>
