<svg viewBox="0 0 82.12 83.56">
  <g>
    <g>
      <path d="M67.55 41.14c-.42-.63-10.52-15.2-26.49-15.2-13.7 0-25.91 14.49-26.43 15.11a1.15 1.15 0 000 1.46c.52.62 12.73 15.11 26.43 15.11S67 43.13 67.49 42.51a1.14 1.14 0 00.06-1.37zM41.06 55.36c-11 0-21.43-10.66-24.08-13.58 2.65-2.92 13.08-13.58 24.08-13.58C53.91 28.2 63 38.84 65.2 41.72c-2.56 2.83-13.06 13.64-24.14 13.64z"/>
      <path d="M41.06 32.73A9.05 9.05 0 1050 41.78a9 9 0 00-8.94-9.05zm0 15.84a6.79 6.79 0 116.67-6.79 6.74 6.74 0 01-6.67 6.79z"/>
      <path d="M41.06 83.56a40.33 40.33 0 01-16-3.28 40.93 40.93 0 01-13-9A41.61 41.61 0 013.23 58a42.54 42.54 0 010-32.52A41.61 41.61 0 0112 12.24a40.93 40.93 0 0113.05-9 40.57 40.57 0 0132 0 40.93 40.93 0 0113.05 9 41.61 41.61 0 018.8 13.28 42.54 42.54 0 010 32.52 41.61 41.61 0 01-8.8 13.28 40.93 40.93 0 01-13.05 9 40.33 40.33 0 01-15.99 3.24zm0-81.76c-21.66 0-39.29 17.94-39.29 40s17.63 40 39.29 40 39.29-17.94 39.29-40-17.63-40-39.29-40z"/>
    </g>
  </g>
</svg>
