<svg xmlns="http://www.w3.org/2000/svg" viewBox="0 0 72 72"><title>Ресурс 1</title><g id="Слой_2" data-name="Слой 2"><g id="Capa_1" data-name="Capa 1"><path d="M59.23,35.45C58.86,34.91,50,22.35,36,22.35c-12,0-22.72,12.49-23.17,13a1,1,0,0,0,0,1.26c.45.53,11.16,13,23.17,13s22.72-12.49,23.17-13A1,1,0,0,0,59.23,35.45ZM36,47.7c-9.63,0-18.79-9.18-21.12-11.7C17.21,33.48,26.35,24.3,36,24.3c11.27,0,19.22,9.17,21.17,11.65C54.92,38.38,45.71,47.7,36,47.7Z"/><path d="M36,28.2A7.8,7.8,0,1,0,43.8,36,7.81,7.81,0,0,0,36,28.2Zm0,13.65A5.85,5.85,0,1,1,41.85,36,5.85,5.85,0,0,1,36,41.85Z"/><path d="M36,72A36,36,0,0,1,22,2.83,36,36,0,0,1,50,69.17,35.72,35.72,0,0,1,36,72ZM36,1.55A34.45,34.45,0,1,0,70.45,36,34.5,34.5,0,0,0,36,1.55Z"/></g></g></svg>