<svg version="1.2" baseProfile="tiny" viewBox="0 0 1080 1080">
  <path fill="#fff" d="M990.53 170.29c-117.45-111.76-308.61-111.76-426.1-.03L540 193.47l-24.4-23.19c-117.5-111.75-308.64-111.74-426.14 0C31.77 225.15 0 297.94 0 375.2c0 77.29 31.77 150.06 89.47 204.96l424.45 402.96c7.3 6.95 16.7 10.41 26.09 10.41 9.38 0 18.77-3.47 26.08-10.42l424.45-402.95c57.69-54.88 89.47-127.67 89.47-204.95-.01-77.27-31.79-150.05-89.48-204.92zm-52.22 354.93L540 903.38 141.7 525.23c-42.51-40.42-65.91-93.7-65.91-150.01 0-56.31 23.41-109.59 65.91-150.01 44.34-42.19 102.57-63.27 160.81-63.27 58.26 0 116.51 21.11 160.85 63.3l50.53 47.99c14.63 13.91 37.58 13.91 52.21 0l50.54-48.01c88.69-84.37 232.98-84.37 321.66 0 42.49 40.42 65.91 93.7 65.91 150.01 0 56.3-23.42 109.57-65.9 149.99z"/>
</svg>
