<svg xmlns="http://www.w3.org/2000/svg" viewBox="0 0 955.99 963.78"><title>Ресурс 1</title><g id="Слой_2" data-name="Слой 2"><g id="Layer_1" data-name="Layer 1"><path d="M454.63.56C200.09,12.68-.77,224.65,0,479.48A475.86,475.86,0,0,0,52,695.07L1.28,941.41a18.61,18.61,0,0,0,22.51,21.86l241.38-57.19a475.85,475.85,0,0,0,205.39,49.86c260.16,4,477.08-202.6,485.19-462.66C964.44,214.51,734.37-12.76,454.63.56Zm288,742.09a374.51,374.51,0,0,1-431.23,70.58L277.8,796.49l-148,35.06L161,680.33,144.4,647.9a374.61,374.61,0,0,1,68.94-434.56A374.28,374.28,0,0,1,742.65,742.65Z" fill="#fff"/><path d="M710,581.66l-92.59-26.59a34.52,34.52,0,0,0-34.15,9L560.6,587.14a33.73,33.73,0,0,1-36.67,7.73C480.13,577.15,388,495.23,364.47,454.26a33.71,33.71,0,0,1,2.67-37.38L386.9,391.3a34.5,34.5,0,0,0,4.26-35.06l-39-88.1a34.53,34.53,0,0,0-53.92-12.34c-25.84,21.85-56.5,55.06-60.23,91.86-6.57,64.87,21.25,146.64,126.46,244.83C486.06,705.93,583.39,720.92,646.76,705.57c35.94-8.71,64.66-43.61,82.79-72.19A34.52,34.52,0,0,0,710,581.66Z" fill="#fff"/></g></g></svg>