<svg xmlns="http://www.w3.org/2000/svg" height="22" width="22"><defs><clipPath id="a" clipPathUnits="userSpaceOnUse"><path d="M0 1080h1080V0H0z"/></clipPath></defs><g clip-path="url(#a)" transform="matrix(1.33333 0 0 -1.33333 0 1440)"><path d="M858.516 763.594c-52.34 0-94.922 42.583-94.922 94.922s42.582 94.922 94.922 94.922c52.338 0 94.922-42.583 94.922-94.922 0-52.34-42.584-94.922-94.922-94.922M542.11 257.344c-157.026 0-284.766 127.74-284.766 284.766 0 157.024 127.74 284.765 284.766 284.765 157.024 0 284.765-127.741 284.765-284.765 0-157.026-127.741-284.766-284.765-284.766M921.797 1080H158.204C70.977 1080 0 1009.023 0 921.797V158.203C0 70.977 70.977 0 158.204 0h763.593C1009.023 0 1080 70.977 1080 158.203v763.594c0 87.226-70.977 158.203-158.203 158.203" fill="#3d4140"/><path d="M858.516 890.156c-17.461 0-31.641-14.18-31.641-31.64s14.18-31.64 31.64-31.64 31.642 14.18 31.642 31.64-14.182 31.64-31.641 31.64M542.11 763.594c-122.114 0-221.485-99.372-221.485-221.484 0-122.114 99.371-221.485 221.484-221.485 122.112 0 221.484 99.37 221.484 221.485 0 122.112-99.372 221.484-221.484 221.484" fill="#fff"/></g></svg>