<svg xmlns="http://www.w3.org/2000/svg" height="22" width="22"><defs><clipPath id="a" clipPathUnits="userSpaceOnUse"><path d="M0 1080h1080V0H0z"/></clipPath></defs><g clip-path="url(#a)" transform="matrix(1.33333 0 0 -1.33333 0 1440)"><path d="M803.843 478.18c1.829-30.713 48.928-60.588 73.163-85.28 19.739-20.12 62.57-53.882 54.797-88.254-7.164-31.552-54.264-20.044-99.99-21.872-52.205-2.211-83.148-3.354-114.547 21.872-14.785 11.966-23.473 26.14-37.65 41.993-12.878 14.328-29.112 40.012-51.213 39.02-39.706-1.981-27.284-57.311-41.383-95.036-220.71-34.753-309.345 101.59-387.538 233.895-37.877 64.094-92.598 201.733-92.598 201.733l156.083.534s50.07-91.074 63.332-114.547c11.279-19.968 23.7-35.82 36.505-53.654 10.746-14.785 27.74-43.745 46.337-41.382 30.256 3.886 35.743 121.252 16.995 160.579-7.47 15.927-25.378 21.49-43.897 26.902 6.249 39.477 175.058 47.709 202.342 17.07 39.63-44.507-27.436-168.427 26.826-204.551 76.212 39.934 141.297 207.144 141.297 207.144l182.757-1.144s-28.58-90.387-58.531-130.474c-17.452-23.474-75.373-75.755-73.087-114.547M921.797 1080H158.203C70.977 1080 0 1009.023 0 921.797V158.203C0 70.977 70.977 0 158.203 0h763.594C1009.023 0 1080 70.977 1080 158.203v763.594c0 87.226-70.977 158.203-158.203 158.203" fill="#fff"/></g></svg>